<svg viewBox="0 0 1498 400" xmlns="http://www.w3.org/2000/svg"><g><g><g><g><g><line x1="60" y1="378" x2="55" y2="378" style="visibility: inherit;" fill="rgb(0, 0, 0)" stroke="rgb(204, 204, 204)" stroke-width="1px"></line><line x1="60" y1="336" x2="55" y2="336" style="visibility: inherit;" fill="rgb(0, 0, 0)" stroke="rgb(204, 204, 204)" stroke-width="1px"></line><line x1="60" y1="294" x2="55" y2="294" style="visibility: inherit;" fill="rgb(0, 0, 0)" stroke="rgb(204, 204, 204)" stroke-width="1px"></line><line x1="60" y1="252" x2="55" y2="252" style="visibility: inherit;" fill="rgb(0, 0, 0)" stroke="rgb(204, 204, 204)" stroke-width="1px"></line><line x1="60" y1="210" x2="55" y2="210" style="visibility: inherit;" fill="rgb(0, 0, 0)" stroke="rgb(204, 204, 204)" stroke-width="1px"></line><line x1="60" y1="168.00000000000003" x2="55" y2="168.00000000000003" style="visibility: inherit;" fill="rgb(0, 0, 0)" stroke="rgb(204, 204, 204)" stroke-width="1px"></line><line x1="60" y1="126" x2="55" y2="126" style="visibility: inherit;" fill="rgb(0, 0, 0)" stroke="rgb(204, 204, 204)" stroke-width="1px"></line><line x1="60" y1="84.00000000000006" x2="55" y2="84.00000000000006" style="visibility: inherit;" fill="rgb(0, 0, 0)" stroke="rgb(204, 204, 204)" stroke-width="1px"></line><line x1="60" y1="42" x2="55" y2="42" style="visibility: inherit;" fill="rgb(0, 0, 0)" stroke="rgb(204, 204, 204)" stroke-width="1px"></line><line x1="60" y1="0" x2="55" y2="0" style="visibility: inherit;" fill="rgb(0, 0, 0)" stroke="rgb(204, 204, 204)" stroke-width="1px"></line></g><g transform="translate(50, 0)"><text x="0" y="378" dx="0em" dy="0.3em" style="text-anchor: end; visibility: hidden; font-family: &quot;Helvetica Neue&quot;, sans-serif; font-size: 12px; font-weight: 200;" fill="rgb(50, 49, 63)" stroke="none" stroke-width="1px">-1e-3</text><text x="0" y="336" dx="0em" dy="0.3em" style="text-anchor: end; visibility: inherit; font-family: &quot;Helvetica Neue&quot;, sans-serif; font-size: 12px; font-weight: 200;" fill="rgb(50, 49, 63)" stroke="none" stroke-width="1px">0</text><text x="0" y="294" dx="0em" dy="0.3em" style="text-anchor: end; visibility: inherit; font-family: &quot;Helvetica Neue&quot;, sans-serif; font-size: 12px; font-weight: 200;" fill="rgb(50, 49, 63)" stroke="none" stroke-width="1px">1e-3</text><text x="0" y="252" dx="0em" dy="0.3em" style="text-anchor: end; visibility: inherit; font-family: &quot;Helvetica Neue&quot;, sans-serif; font-size: 12px; font-weight: 200;" fill="rgb(50, 49, 63)" stroke="none" stroke-width="1px">2e-3</text><text x="0" y="210" dx="0em" dy="0.3em" style="text-anchor: end; visibility: inherit; font-family: &quot;Helvetica Neue&quot;, sans-serif; font-size: 12px; font-weight: 200;" fill="rgb(50, 49, 63)" stroke="none" stroke-width="1px">3e-3</text><text x="0" y="168.00000000000003" dx="0em" dy="0.3em" style="text-anchor: end; visibility: inherit; font-family: &quot;Helvetica Neue&quot;, sans-serif; font-size: 12px; font-weight: 200;" fill="rgb(50, 49, 63)" stroke="none" stroke-width="1px">4e-3</text><text x="0" y="126" dx="0em" dy="0.3em" style="text-anchor: end; visibility: inherit; font-family: &quot;Helvetica Neue&quot;, sans-serif; font-size: 12px; font-weight: 200;" fill="rgb(50, 49, 63)" stroke="none" stroke-width="1px">5e-3</text><text x="0" y="84.00000000000006" dx="0em" dy="0.3em" style="text-anchor: end; visibility: inherit; font-family: &quot;Helvetica Neue&quot;, sans-serif; font-size: 12px; font-weight: 200;" fill="rgb(50, 49, 63)" stroke="none" stroke-width="1px">6e-3</text><text x="0" y="42" dx="0em" dy="0.3em" style="text-anchor: end; visibility: inherit; font-family: &quot;Helvetica Neue&quot;, sans-serif; font-size: 12px; font-weight: 200;" fill="rgb(50, 49, 63)" stroke="none" stroke-width="1px">7e-3</text><text x="0" y="0" dx="0em" dy="0.3em" style="text-anchor: end; visibility: hidden; font-family: &quot;Helvetica Neue&quot;, sans-serif; font-size: 12px; font-weight: 200;" fill="rgb(50, 49, 63)" stroke="none" stroke-width="1px">8e-3</text></g><line x1="60" y1="0" x2="60" y2="378" fill="rgb(0, 0, 0)" stroke="rgb(204, 204, 204)" stroke-width="1px"></line></g></g><g transform="translate(60, 0)" clip-path="url(#clip_0)"><clipPath id="clip_0"><rect width="1438" height="378"></rect></clipPath><g><g><g><line x1="0" y1="0" x2="0" y2="378" fill="rgb(0, 0, 0)" stroke="rgb(60, 60, 60)" stroke-width="1px" opacity="0.25"></line><line x1="179.75" y1="0" x2="179.75" y2="378" fill="rgb(0, 0, 0)" stroke="rgb(60, 60, 60)" stroke-width="1px" opacity="0.25"></line><line x1="359.5" y1="0" x2="359.5" y2="378" fill="rgb(0, 0, 0)" stroke="rgb(60, 60, 60)" stroke-width="1px" opacity="0.25"></line><line x1="539.25" y1="0" x2="539.25" y2="378" fill="rgb(0, 0, 0)" stroke="rgb(60, 60, 60)" stroke-width="1px" opacity="0.25"></line><line x1="719" y1="0" x2="719" y2="378" fill="rgb(0, 0, 0)" stroke="rgb(60, 60, 60)" stroke-width="1px" opacity="0.25"></line><line x1="898.75" y1="0" x2="898.75" y2="378" fill="rgb(0, 0, 0)" stroke="rgb(60, 60, 60)" stroke-width="1px" opacity="0.25"></line><line x1="1078.5" y1="0" x2="1078.5" y2="378" fill="rgb(0, 0, 0)" stroke="rgb(60, 60, 60)" stroke-width="1px" opacity="0.25"></line><line x1="1258.25" y1="0" x2="1258.25" y2="378" fill="rgb(0, 0, 0)" stroke="rgb(60, 60, 60)" stroke-width="1px" opacity="0.25"></line><line x1="1438" y1="0" x2="1438" y2="378" fill="rgb(0, 0, 0)" stroke="rgb(60, 60, 60)" stroke-width="1px" opacity="0.25"></line></g><g><line x1="0" y1="378" x2="1438" y2="378" fill="rgb(0, 0, 0)" stroke="rgb(60, 60, 60)" stroke-width="1px" opacity="0.25"></line><line x1="0" y1="336" x2="1438" y2="336" fill="rgb(0, 0, 0)" stroke="rgb(60, 60, 60)" stroke-width="1px" opacity="0.25"></line><line x1="0" y1="294" x2="1438" y2="294" fill="rgb(0, 0, 0)" stroke="rgb(60, 60, 60)" stroke-width="1px" opacity="0.25"></line><line x1="0" y1="252" x2="1438" y2="252" fill="rgb(0, 0, 0)" stroke="rgb(60, 60, 60)" stroke-width="1px" opacity="0.25"></line><line x1="0" y1="210" x2="1438" y2="210" fill="rgb(0, 0, 0)" stroke="rgb(60, 60, 60)" stroke-width="1px" opacity="0.25"></line><line x1="0" y1="168.00000000000003" x2="1438" y2="168.00000000000003" fill="rgb(0, 0, 0)" stroke="rgb(60, 60, 60)" stroke-width="1px" opacity="0.25"></line><line x1="0" y1="126" x2="1438" y2="126" fill="rgb(0, 0, 0)" stroke="rgb(60, 60, 60)" stroke-width="1px" opacity="0.25"></line><line x1="0" y1="84.00000000000006" x2="1438" y2="84.00000000000006" fill="rgb(0, 0, 0)" stroke="rgb(60, 60, 60)" stroke-width="1px" opacity="0.25"></line><line x1="0" y1="42" x2="1438" y2="42" fill="rgb(0, 0, 0)" stroke="rgb(60, 60, 60)" stroke-width="1px" opacity="0.25"></line><line x1="0" y1="0" x2="1438" y2="0" fill="rgb(0, 0, 0)" stroke="rgb(60, 60, 60)" stroke-width="1px" opacity="0.25"></line></g></g></g><g><g><line x1="0" y1="336" x2="1438" y2="336" fill="rgb(0, 0, 0)" stroke="rgb(153, 153, 153)" stroke-width="1.5px"></line></g></g><g><g><line x1="179.75" y1="0" x2="179.75" y2="378" fill="rgb(0, 0, 0)" stroke="rgb(153, 153, 153)" stroke-width="1.5px"></line></g></g><g><g><g><g><g><path style="fill: none;" stroke="rgb(255, 112, 67)" stroke-width="2px" d="M202.68609999999998,-137.742139914336L204.37575,43.02605789570089L206.31705,29.459592760047485L208.4381,107.81714539982016L210.19965,54.234362975436795L212.1769,45.61882326813259L214.08225000000002,120.70623342106632L216.02355,171.64843740256623L217.9289,148.05934176507398L219.61855,181.83446718608573L221.8115,223.35368960163262L223.4652,259.5578441160448L225.58624999999998,265.43583479358193L227.5635,-28.408927343453684L229.54074999999997,112.71964515838238L231.41015000000002,-427.6279730517779L235.07705,-57.508988296536984L236.9105,79.51063436168869L238.708,133.82178907119305L240.82905000000002,205.79350076209423L242.55464999999998,252.2379695015086L244.5319,226.3408697350991L246.58104999999998,248.0568760881351L248.4864,94.01303685872529L250.4277,167.01948644067429L252.2971,221.3942802346387L254.2384,227.95853011032563L256.32349999999997,269.17774519275827L258.3367,291.31690595313785L260.278,307.55101924089934L262.1474,298.81903172369914L263.873,302.66865757018695L265.7424,252.3263001936471L267.64775000000003,248.77327367051325L269.4812,280.5781760144257L271.02705000000003,282.45736373458L273.18405,294.7850718244749L274.9456,272.40445760157377L276.85095,280.6199187860938L278.57655,268.4324193880543L280.51785,220.70673677536274L282.53105,20.87622435216832L284.47235,120.52742175207192L286.16200000000003,203.48476264631054L288.35495000000003,248.52082751750513L290.15245,265.1027090195394L291.91400000000004,87.17285855075988L293.89125,171.76845812401987L295.7966,234.46958693876107L297.84575,272.2088459454395L299.64325,285.38433159537124L301.58455,79.10591959444872L303.4899,178.21385353554453L305.5031,237.13304343632862L307.19275,266.519102826339L308.95430000000005,271.7481662569177L310.93155,286.1672500789304L312.80095,297.53141448543306L314.8501,149.14150103715565L316.9352,198.05625487141313L318.5889,220.7129825481624L320.7459,228.25145313762727L322.6153,263.9167116202301L324.44874999999996,264.4301667223803L326.3541,272.7436748034019L328.33135,189.14613282896636L330.2367,244.32605062182282L332.21395,278.22290029640817L334.0474,294.51375416135534L335.95275,306.591451561433L338.00190000000003,283.423610775758L339.8713,294.00862336626005L341.8126,149.44261690658544L343.68199999999996,213.95373743210564L345.51545,236.93146110957463L347.4927,245.63478927544116L349.43399999999997,-84.15402886431599L351.33934999999997,76.29377839692722L353.2447,177.03986186400155L355.07815,225.13629087688088L357.05539999999996,129.8906498723123L358.74505,198.9270155637201L360.90205000000003,247.1026399323336L362.5917,265.6702846617396L364.35325,285.03164739047855L366.36645,302.03331502915023L368.128,308.8714226135051L370.2131,233.3502158193848L372.04654999999997,197.70971067661412L373.98785,232.94346589991073L375.56964999999997,271.36682398771046L377.475,285.73430653902767L379.45225000000005,227.802585470634L381.39355,266.9964158457636L382.97535,288.0735139610391L384.84475,306.07880974800264L386.53439999999995,129.54014989132213L388.43975,206.61879069257992L390.23724999999996,254.86255156356378L392.17855,284.1152524917321L393.94010000000003,293.02453618274615L395.77355,300.05910989844193L397.57105,297.63903052332034L399.22475000000003,293.519812973422L401.0582,304.2990689519165L402.74785,308.76791924085427L404.79699999999997,35.980182909048835L406.3788,152.2786610576971L408.21225,206.03045720031642L410.08165,125.64306081635229L411.73535,166.5606054681687L413.7126,229.40250308137527L415.47415,255.95868560379083L417.2357,270.5510887456258L419.1051,270.089917867024L420.79475,290.4697578664209L422.73605,307.2721918498608L424.4257,259.72260794640374L426.40295,286.4724324618886L427.8769,173.06449230760995L429.6025,224.90177106075382L431.3281,266.39799437100305L433.30535000000003,245.45780436798702L435.03094999999996,250.9795248432742L437.11605,280.99877584792887L438.80569999999994,298.7993058916492L440.63915000000003,290.03572303468366L442.3288,293.0162670663111L444.342,299.83270357593074L446.2833,309.65042828124274L448.0808,313.9135663580612L449.62665,316.2847555823529L451.63984999999997,316.23412576786603L453.50925,310.2218872899379L455.127,231.08267989722287L456.88854999999995,269.1842559214601L458.6501,275.43045246295145L460.5195,252.17296610887058L462.35295,282.9009971130056L464.07854999999995,295.3882958614476L465.87605,309.39689955908193L467.81735,308.27312847516316L469.75865,310.2955142045997L471.55615000000006,314.48671551071004L473.1739,318.11038653118845L475.0433,316.1453622821774L477.09245,272.0049315255169L478.96185,290.0378500656431L481.0829,306.28898622534547L482.6647,314.865775606621L484.57005000000004,306.65224620571064L486.43944999999997,305.954973819079L488.38075000000003,291.92050177214855L490.39395,291.8781772880752L492.1555,301.79069829253103L494.09680000000003,314.5277417903892L495.78645,319.83651348554355L497.79965000000004,310.8727576384888L499.705,272.5273011594978L501.53845,295.59930079400345L503.2281,273.4725465906847L505.06155,270.53357170869043L507.07475000000005,262.61286753177126L508.9801,255.10385109042812L510.5619,274.9501024588536L512.5751,284.0397080960626L514.40855,295.71989518711L516.13415,308.9493282827342L517.7878499999999,314.3388852103862L519.72915,317.8653229694404L521.5626000000001,322.7788232602492L523.6477,249.3697760693917L525.4452,283.2917760137302L527.2427,300.59226402203484L529.14805,300.38648672065284L530.94555,295.69000400549857L532.74305,211.45887830225644L534.75625,259.91506374828083L536.5537499999999,281.24977604122193L538.4591,296.34679659386717L540.22065,310.38977251025244L542.09005,302.82511379314786L544.0313500000001,292.82171220328405L546.04455,306.18428100494145L547.8061,282.9035360044098L549.49575,264.39594477867223L551.473,265.5853325021573L553.1267,234.67842932297637L555.03205,268.47943756582646L556.97335,239.33985135020203L558.62705,231.70538290626638L560.42455,272.0294090374706L562.3299000000001,291.40955028172715L564.1993,306.3576424735718L566.10465,311.92165703153955L567.97405,290.24281094343274L569.6637,305.6902403065685L571.4971499999999,311.886143748708L573.3306,317.3417587923243L575.23595,323.7820835803384L576.9975,308.36260891225544L578.97475,313.6288402217499L580.8081999999999,198.95580608474438L582.7495,251.89598757945396L584.6189,284.53196707026245L586.30855,125.90674341712048L588.5015,207.5493083395617L590.11925,250.44513022478264L592.0965,279.60025245257225L593.71425,299.57729755544216L595.58365,299.40216968702407L597.4171,309.0267628609963L599.5022,314.0232274142178L601.33565,311.18146235576404L603.0972,319.80106079626756L605.0744500000001,324.84349701321827L606.9078999999999,322.5912435391051L608.7054,326.22488105396195L610.53885,258.2126695996509L612.3723,263.0728194928757L614.0979,252.03990989724346L616.1111,284.65137364917166L617.80075,170.5448905316184L619.9937,208.78494982196037L621.89905,177.89540258510795L623.5168,235.34823626034787L625.49405,273.4210140602862L627.43535,287.5599071474865L629.2687999999999,279.2325665908751L631.24605,299.2392024896039L633.1514000000001,301.282217541426L635.0208,296.99947976192215L636.85425,279.28926257562864L639.01125,298.7499814164287L640.66495,312.2774353893244L642.46245,316.54624588506783L644.4397,318.69995208251396L646.4529,321.2679562953065L648.2144499999999,324.0778031309739L650.08385,315.26330026486784L652.0611,322.8182762348748L653.46315,299.6249541571198L655.18875,256.9917766574298L656.7346,281.0066741037086L658.4961500000001,260.09318030492756L660.29365,273.54825944075753L662.37875,193.42359245937928L664.4279,246.73784005342046L666.4051499999999,275.7548522929363L667.98695,287.5901381413646L669.56875,288.68002830165665L671.6898,301.4902093263301L673.6311,306.99599968615667L675.75215,311.7283614527717L677.83725,310.2946635306796L679.8864,313.7430194707019L682.00745,290.182895159203L684.1285,301.82884254558576L686.2136,302.3718711491894L688.2268,311.2518401518596L690.27595,298.0595649093469L692.3969999999999,302.9986064205366L694.4821,269.84199000715006L696.5672,294.6271609476211L698.7242,206.17578650182503L700.70145,255.78006332131335L702.78655,286.7400243046484L704.9076,299.19248432573534L706.9927,302.83857854437446L709.11375,313.34593198763423L711.12695,263.7080530438846L713.248,234.1649709948317L715.36905,273.98547900255176L717.45415,297.1155323365965L719.5751999999999,310.936202608046L721.5884,307.17069310806517L723.7094500000001,298.6273112929602L725.86645,308.8886909884879L727.95155,316.08276339766644L730.0726000000001,320.81539016351337L732.12175,322.03763927469544L734.20685,322.20277086410607L736.36385,327.10656037846354L738.44895,327.7627824717039L740.6059499999999,297.82150115807497L742.69105,306.5928549259284L744.6683,317.5576735087393L746.78935,307.5761095552539L748.9104000000001,315.5128016194415L751.0314500000001,320.8369627798214L753.1525,321.88385184267105L755.20165,318.8185451196667L757.28675,313.31432712514913L759.4078000000001,316.11781895739415L761.52885,322.78349794105486L763.6139499999999,322.58456900939075L765.6631,325.82309296963575L767.7482000000001,328.93384795673L769.8692500000001,326.56914454311016L771.9903,309.58651481187275L774.0394499999999,318.29524710126407L776.12455,305.24518141655733L778.2096499999999,302.04923531269196L780.3307,315.14933408815233L782.4158,310.57821906667095L784.5009,318.5878803085455L786.5141000000001,323.45700292584934L788.6711,327.59996075930997L790.7562,328.2044215271416L792.8772499999999,327.542288962147L794.9264,329.96604267904576L797.0474499999999,329.1966492171923L799.0966,330.2230918050686L801.14575,325.42222500649865L803.2668,299.33550340567695L805.31595,305.7093143411557L807.437,244.00630371857167L809.5220999999999,270.65173091270617L811.6431499999999,292.89152643362036L813.72825,309.29590752165564L815.8133499999999,316.7881199246484L817.89845,314.40128327464095L819.9835499999999,320.80187788778187L822.1046,324.7638409832598L824.1897,318.4626411530811L826.2748,322.3680888145604L828.3598999999999,326.18817727708637L830.40905,319.29178653065156L832.5301,307.3388327846157L834.6152000000001,316.5113754670234L836.7003,283.26551309975457L838.8213499999999,299.9249654336048L840.9424,304.6108512806608L842.9556000000001,254.44895772652114L845.1126,277.77394404272013L847.1257999999999,298.88236815786223L849.24685,312.11888293871425L851.33195,256.7364923176118L853.3811000000001,259.7646344217329L855.4662,287.610486913855L857.4794,300.77491499283025L859.5645,312.2266989069133L861.68555,318.84137490492753L863.7347,52.53497960032047L865.8198,109.8915480426611L867.8689499999999,184.8622887284554L869.95405,238.33489096580428L872.11105,271.19358654569675L874.1242500000001,275.63086730465943L876.2452999999999,292.6898076169604L878.2585,307.5583011575104L880.3435999999999,317.1596461227852L882.32085,323.93244970761646L884.4059500000001,327.1018052117029L886.4551000000001,327.4481574284136L888.4323499999999,329.5783836584765L890.51745,329.49754465404396L892.60255,240.32398490776566L894.6876500000001,272.9516514009681L896.70085,296.6769042718714L898.7859500000001,292.28448462163243L900.87105,306.4718382384805L902.9921,290.0657684565441L905.11315,282.79175602560383L907.12635,302.96917749392514L909.1036,307.0801574741156L911.1887,313.1504286414743L913.3097500000001,321.4945899738251L915.39485,325.566369044712L917.5159,323.0949376283919L919.49315,326.06314383509147L921.5782499999999,307.75454084016314L923.66335,317.1965465286743L925.7484499999999,298.97423918109365L927.8695,310.2674125251284L929.84675,316.9790465078271L931.9318499999999,323.082207828627L934.0528999999999,316.32717747903826L936.17395,323.40771760150653L938.25905,318.0853724493376L940.27225,322.5365687361757L942.3573500000001,326.92757211892365L944.4064999999999,328.7767903539993L946.5275499999999,321.09515209099396L948.61265,325.3520330212496L950.6258499999999,329.36390670215536L952.71095,331.5567525918087L954.832,330.7622306682795L956.9530500000001,332.34667682193947L959.03815,332.61721231697754L961.1232500000001,262.6634185144827L963.13645,291.2394367117804L965.2575,307.1009649829788L967.3426,314.4890035701825L969.4636499999999,320.8617601319534L971.5128,326.0465857606945L973.5979000000001,328.7344539412729L975.683,324.3931294488979L977.80405,320.2982054558738L979.88915,323.29840639668515L981.9382999999999,326.8400689996798L984.0234,327.4647119706508L986.1084999999999,329.1047545760411L988.22955,328.00410196644293L990.31465,325.12501441459943L992.3638000000001,313.4754488700395L994.377,234.968572198377L996.4621,272.3994934326751L998.5472,293.91617873371206L1000.6682500000001,304.58518877587056L1002.7174,316.5612084448594L1004.8384500000001,322.86281087532313L1006.8876,318.67307607663975L1009.0086500000001,323.1617209155421L1011.1297000000001,313.6195147347636L1013.1788499999999,310.70572372673075L1015.2999,319.2262800315376L1017.385,319.34829215470586L1019.4701,325.69148364800475L1021.6271,262.48658017598547L1023.7121999999999,288.37867049249905L1025.8692,304.72542537840695L1027.9183500000001,316.75396071534317L1030.0394000000001,317.5751404075233L1032.16045,317.20290615366594L1034.2814999999998,318.98066472683365L1036.40255,318.2809756410436L1038.48765,320.9867418913061L1040.6087,309.6314794165203L1042.6938,318.7148225088676L1044.74295,324.9445753027728L1046.864,327.90110490639023L1048.98505,330.80929802254L1051.07015,332.4563460268234L1053.1912,326.6335000987443L1055.2044,325.9377203657459L1057.2894999999999,326.40900471820567L1059.41055,327.60743095147467L1061.3878,274.0595190088025L1063.4729,296.7428794742046L1065.52205,310.23412139153737L1067.60715,306.0522400472239L1069.6922499999998,309.9763080488474L1071.7413999999999,317.86456772712353L1073.79055,321.59844984987365L1075.8397,295.7593435682594L1077.96075,308.5855805430704L1080.0818,232.97802434586848L1082.13095,255.21298091246706L1084.21605,285.7102760469147L1086.30115,304.77613171888015L1088.38625,314.3143177807301L1090.5073,321.34726950947015L1092.55645,323.1826393640701L1094.64155,326.52553776967943L1096.6907,326.8499870202857L1098.81175,330.07253058370924L1100.8609,329.8436235011077L1102.946,321.4321622208778L1104.9592,325.2629689593199L1106.9724,275.78043889964124L1109.0575,295.4847867723301L1111.17855,309.04737951327456L1113.2636499999999,316.367234158518L1115.3128,323.8297318369116L1117.29005,325.3983993454816L1119.3392,326.51603713123006L1121.46025,328.9319045879629L1123.54535,331.1801635770071L1125.5945,314.8597326992791L1127.6077,321.69832357201335L1129.65685,314.1143685053787L1131.7779,320.4038677837179L1133.82705,326.2204873228762L1135.9121499999999,329.17148630590214L1137.8894,330.09738188892067L1139.93855,330.4048098058631L1142.09555,329.82263481634885L1144.18065,331.9596612342777L1146.26575,328.95973130079847L1148.243,329.62900392364855L1150.3281000000002,331.41167345025474L1152.4491500000001,332.3005173899665L1154.53425,326.9791922910771L1156.61935,329.09819430206034L1158.63255,330.6377637613103L1160.7536,329.1438747404239L1162.8387,327.9350178771896L1164.95975,327.5725921452564L1167.04485,325.84370092495664L1169.05805,327.2454015283324L1171.21505,329.2629204005342L1173.2641999999998,330.2701348964701L1175.38525,330.4349136231254L1177.5063,331.3661638794339L1179.5914,329.62962002500126L1181.6765,331.5212499321374L1183.7616,330.0194339861496L1185.88265,255.54400696218156L1188.0037,287.2220752527285L1190.0169,306.2554340628516L1192.0660500000001,317.1049476125601L1194.1871,313.4602305991211L1196.2721999999999,320.42997995608164L1198.39325,316.0714401686526L1200.4064500000002,321.0027648291528L1202.49155,270.588315721246L1204.6126,291.1185502083703L1206.73365,307.94777094263833L1208.81875,305.8474675815642L1210.90385,317.36061608040313L1212.953,309.35206214074185L1215.0381,318.9345533410524L1217.1951000000001,323.47614661113187L1219.2802,280.50438962433196L1221.32935,291.9847613840756L1223.2347,304.88419146914526L1225.4636,317.1728338576396L1227.58465,323.31777092565835L1229.66975,326.45164628331395L1231.6470000000002,314.7421210281821L1233.7321,322.5785169287654L1235.8172000000002,327.0563579992479L1237.9023,320.7555214678363L1239.9874,324.6778843137132L1242.03655,328.09596563445444L1244.12165,323.5426892740915L1246.1708,321.8445488618845L1248.2199500000002,319.31253048521484L1250.3410000000001,313.16491257506436L1252.3542,320.14616541358646L1254.4393,320.85959234207314L1256.3087,323.5395396507014L1258.25,326.74330859794156L1260.37105,298.10039572217426L1262.45615,309.98578102170444L1264.54125,290.4277422489465L1266.69825,305.5140423166113L1268.6755,286.2243950165723L1270.7606,282.0028589411029L1272.8097500000001,300.4718586222089L1274.89485,312.11807643362175L1277.0518499999998,318.28329221953175L1279.1009999999999,84.32361743181485L1281.2220499999999,175.98395577455784L1283.1993,231.55995583763854L1285.3563000000001,249.9752802341052L1287.4773500000001,283.96101817477035L1289.56245,282.45429071180996L1291.6475500000001,299.2980604562117L1293.6967,312.8314875256727L1295.81775,321.30577802168614L1297.9388,326.28990359168654L1299.98795,319.04933944977165L1302.109,324.7474561400486L1304.1941000000002,327.35418469664216L1306.3510999999999,330.1838204866259L1308.47215,312.0359294529622L1310.55725,321.04837670371904L1312.64235,318.51894958136063L1314.7274499999999,314.68158386352707L1316.81255,322.1011657246384L1319.0055,323.5489825384875L1321.12655,297.30978221086025L1323.1757,305.883753860443L1325.2608,308.44615863342534L1327.38185,310.7716497329143L1329.5029,315.1497102944414L1331.62395,322.73244104697375L1333.745,326.0536694609095L1335.8301000000001,314.8298920662236L1337.9511499999999,320.6233270044867L1340.0003,326.3299613897201L1342.12135,328.68073581640476L1344.2423999999999,328.1476493637088L1346.21965,329.33761327835794L1348.30475,330.0071987803899L1350.4258,329.0517275934591L1352.5109,325.87267756604695L1354.4522,328.9535109369491L1356.57325,330.0517204123421L1358.6224,330.6827375206926L1360.7794000000001,329.67100164021275L1362.82855,330.56874771671505L1364.9855499999999,330.6826266684056L1366.99875,332.3431399581273L1369.08385,318.5019062097335L1371.24085,320.1846200304755L1373.32595,325.98414655897005L1375.4470000000001,328.4133659032053L1377.49615,321.5212327094118L1379.6172000000001,315.07252237208127L1381.5225500000001,320.4970579958033L1383.356,321.06132640412875L1385.5489499999999,300.7021337589409L1387.3824,278.39327537958536L1389.43155,301.05029396017426L1391.4088,260.87307668954156L1393.45795,287.63182036473614L1395.47115,250.3021532752768L1397.62815,279.62035109377837L1399.64135,295.5731179631989" fill="none"></path></g></g></g></g><g opacity="0.2"><g><g><g><path style="fill: none;" stroke="rgb(255, 112, 67)" stroke-width="2px" d="M179.75,-36.98591807484627L179.78594999999999,132.696312725544L180.72065,-172.71045514941216L182.4822,68.22313262522226L184.38755,-188.92263726890087L186.54455000000002,-3530.879224777221L188.0904,184.77433301880959L190.13955,39.418247401714325L191.973,-187.10900576412678L195.24445,-1225.4391714334486L197.25764999999998,166.39009384810927L198.8035,166.34468069672587L200.63695,-504.8912681043148L202.68609999999998,146.21049991250038L204.37575,314.1018595676869L206.31705,9.113339580595493L208.4381,225.3415373750031L210.19965,-26.13491298258299L212.1769,32.695986203849316L214.08225000000002,233.33487786725163L216.02355,248.06073760986328L217.9289,112.67597774416208L219.61855,232.49691525846723L221.8115,285.63234616443515L223.4652,313.8639832511544L225.58624999999998,274.25281178578734L227.5635,-469.1757998764515L229.54074999999997,324.4124259115197L231.41015000000002,-1238.1492211818693L232.99195,-21.141226530075016L235.07705,253.7773967385292L236.9105,285.0400585345924L238.708,215.28851880133152L240.82905000000002,313.75106644257903L242.55464999999998,321.9046718920581L244.5319,187.49522032588723L246.58104999999998,280.6308854967356L248.4864,-137.0527214705944L250.4277,276.5291606672108L252.2971,302.95647086016834L254.2384,237.8049049191177L256.32349999999997,331.0065677985549L258.3367,324.525647087954L260.278,331.9021891700104L262.1474,285.7210504487157L263.873,308.4430963397026L265.7424,176.81276413053277L267.64775000000003,243.44373388588428L269.4812,328.2855295299087L271.02705000000003,285.27614531479776L273.18405,313.27663395926356L274.9456,238.8335362672806L276.85095,292.94311056286097L278.57655,250.15117029100657L280.51785,149.11821285635236L282.53105,-278.8695442825556L284.47235,270.004217851907L286.16200000000003,327.9207739876583L288.35495000000003,316.0749248242937L290.15245,289.97553127259016L291.91400000000004,-179.72191715240479L293.89125,298.66185748390853L295.7966,328.52128016087227L297.84575,328.81773445545696L299.64325,305.1475600702688L301.58455,-230.31169840693474L303.4899,326.8757544471882L305.5031,325.5118282875046L307.19275,310.59819191135466L308.95430000000005,279.5917614027858L310.93155,307.7958758119494L312.80095,314.57766109518707L314.8501,-73.44336913526058L316.9352,271.4283856227994L318.5889,254.69807406328619L320.7459,239.5591590218246L322.6153,317.41459934413433L324.44874999999996,265.2003493756056L326.3541,285.2139369249344L328.33135,63.74981986731291L330.2367,327.0959273111075L332.21395,329.06817480828613L334.0474,318.9500349587761L335.95275,324.7079976615496L338.00190000000003,248.67184959724545L339.8713,309.8861422520131L341.8126,-67.40639278292656L343.68199999999996,310.7204182203859L345.51545,271.3980466257781L347.4927,258.68978152424097L349.43399999999997,-578.8372560739517L351.33934999999997,316.965489288792L353.2447,328.15898706461303L355.07815,297.2809343961999L357.05539999999996,-12.977811634540558L358.74505,302.48156410083175L360.90205000000003,319.36607648525387L362.5917,293.5217517558485L364.35325,314.073691483587L366.36645,327.5358164871577L368.128,319.12858399003744L370.2131,120.0684056282044L372.04654999999997,144.24895296245816L373.98785,285.79409873485565L375.56964999999997,329.00186111941L377.475,307.2855303660035L379.45225000000005,140.90500386804345L381.39355,325.7871614084579L382.97535,319.68916113395244L384.84475,333.086753428448L386.53439999999995,-135.2678398936987L388.43975,322.2367518944666L390.23724999999996,327.2281928700395L392.17855,327.9943038839847L393.94010000000003,306.38846171926707L395.77355,310.61097047198564L397.57105,294.00891146063805L399.22475000000003,287.34098664857447L401.0582,320.4679529196583L402.74785,315.4711946742609L404.79699999999997,-373.2014215886593L406.3788,326.72637828066945L408.21225,286.65815141424537L410.08165,5.061966240406036L411.73535,227.9369224458933L413.7126,323.6653495011851L415.47415,295.79295938741416L417.2357,292.4396934583783L419.1051,269.39816154912114L420.79475,321.03951786551625L422.73605,332.47584282502066L424.4257,188.39823209121826L426.40295,326.59716923511587L427.8769,2.952582076191902L429.6025,302.6576891904697L431.3281,328.64232933637686L433.30535000000003,214.04751936346295L435.03094999999996,259.2621055562049L437.11605,326.02765235491097L438.80569999999994,325.50010095722973L440.63915000000003,276.8903487492353L442.3288,297.4870831137523L444.342,310.0573583403602L446.2833,324.37701533921063L448.0808,320.30827347328886L449.62665,319.8415394187905L451.63984999999997,316.1581810461357L453.50925,301.20352957304567L455.127,112.37386880815035L456.88854999999995,326.33661995781586L458.6501,284.79974727518857L460.5195,217.28673657774925L462.35295,328.99304361920804L464.07854999999995,314.11924398411065L465.87605,330.40980510553345L467.81735,306.58747184928507L469.75865,313.3290927987546L471.55615000000006,320.7735174698755L473.1739,323.5458930619061L475.0433,313.1978259086609L477.09245,205.79428539052608L478.96185,317.08722787583247L481.0829,330.66569046489894L482.6647,327.7309596785344L484.57005000000004,294.33195210434496L486.43944999999997,304.90906523913145L488.38075000000003,270.868793701753L490.39395,291.8146905619651L492.1555,316.65947979921475L494.09680000000003,333.63330703717656L495.78645,327.79967102827504L497.79965000000004,297.42712386790663L499.705,215.00911644101146L501.53845,330.20730024576187L503.2281,240.28241528570655L505.06155,266.12510938569903L507.07475000000005,250.73181126639247L508.9801,243.8403264284134L510.5619,304.71947951149195L512.5751,297.67411655187607L514.40855,313.24017582368106L516.13415,328.79347792617045L517.7878499999999,322.42322060186416L519.72915,323.1549796080217L521.5626000000001,330.14907369646244L523.6477,139.25620528310537L525.4452,334.17477593023796L527.2427,326.5429960344918L529.14805,300.07782076857984L530.94555,288.64527993276715L532.74305,85.11218974739319L534.75625,332.59934191731736L536.5537499999999,313.25184448063374L538.4591,318.99232742283493L540.22065,331.45423638483044L542.09005,291.4781257174909L544.0313500000001,277.81660981848836L546.04455,326.2281342074275L547.8061,247.98241850361228L549.49575,236.6345579400659L551.473,267.36941408738494L553.1267,188.31807455420494L555.03205,319.18094993010163L556.97335,195.63047202676537L558.62705,220.2536802403629L560.42455,332.51544823427685L562.3299000000001,320.47976214811206L564.1993,328.77978076133877L566.10465,320.2676788684912L567.97405,257.7245418112725L569.6637,328.86138435127214L571.4971499999999,321.1799989119172L573.3306,325.5251813577488L575.23595,333.44257076235954L576.9975,285.233396910131L578.97475,321.52818718599156L580.8081999999999,26.94625487923622L582.7495,331.3062598215183L584.6189,333.4859363064752L586.30855,-112.0310920625925L588.5015,330.01315572322346L590.11925,314.78886305261403L592.0965,323.3329357942566L593.71425,329.5428652097471L595.58365,299.1394778843969L597.4171,323.4636526219547L599.5022,321.51792424404994L601.33565,306.9188147680834L603.0972,332.7304584570229L605.0744500000001,332.4071513386443L606.9078999999999,319.21286332793534L608.7054,331.67533732624725L610.53885,156.19435241818428L612.3723,270.3630443327129L614.0979,235.49054550379515L616.1111,333.56856927706394L617.80075,-0.6148341447114376L619.9937,266.14503875747323L621.89905,131.56108172982934L623.5168,321.5274867732078L625.49405,330.5301807601936L627.43535,308.768246778287L629.2687999999999,266.74155575595796L631.24605,329.24915633769706L633.1514000000001,304.3467401191592L635.0208,290.57537309266627L636.85425,252.72393679618835L639.01125,327.9410596776288L640.66495,332.568616348668L642.46245,322.9494616286829L644.4397,321.93051137868315L646.4529,325.1199626144953L648.2144499999999,328.29257338447496L650.08385,302.0415459657088L652.0611,334.15074018988525L653.46315,264.8349710404873L655.18875,193.04201040789488L656.7346,317.02902027312666L658.4961500000001,228.72293960675597L660.29365,293.73087814450264L662.37875,73.23659198731184L664.4279,326.7092114444822L666.4051499999999,319.28037065220997L667.98695,305.34306691400707L669.56875,290.3148635420948L671.6898,320.7054808633402L673.6311,315.25468522589654L675.75215,318.82690410269424L677.83725,308.1441166475415L679.8864,318.9155533807352L682.00745,254.8427086919546L684.1285,319.29776362515986L686.2136,303.18641405459493L688.2268,324.5717936558649L690.27595,278.27115204557776L692.3969999999999,310.40716868732125L694.4821,220.10706538707018L696.5672,331.80491735832766L698.7242,73.4987248331309L700.70145,330.18647855054587L702.78655,333.17996577965096L704.9076,317.8711743573658L706.9927,308.3077198723331L709.11375,329.1069621525239L711.12695,189.25123462826016L713.248,189.85034792125228L715.36905,333.7162410141318L717.45415,331.81061233766377L719.5751999999999,331.66720801522024L721.5884,301.5224288580939L723.7094500000001,285.8122385703027L725.86645,324.2807605317794L727.95155,326.8738720114343L730.0726000000001,327.9143303122837L732.12175,323.8710129414685L734.20685,322.450468248222L736.36385,334.4622446499998L738.44895,328.74711561156437L740.6059499999999,252.9095791876316L742.69105,319.7498855777085L744.6683,334.0049013829557L746.78935,292.60376362502575L748.9104000000001,327.41783971572295L751.0314500000001,328.8232045203913L753.1525,323.4541854369454L755.20165,314.2205850351602L757.28675,305.05800013337284L759.4078000000001,320.3230567057617L761.52885,332.78201641654596L763.6139499999999,322.2861756118946L765.6631,330.68087891000323L767.7482000000001,333.5999804373714L769.8692500000001,323.02208942268044L771.9903,284.1125702150166L774.0394499999999,331.35834553535096L776.12455,285.6700828894973L778.2096499999999,297.25531615689397L780.3307,334.79948225134285L782.4158,303.72154653444886L784.5009,330.6023721713573L786.5141000000001,330.7606868518051L788.6711,333.81439750950085L790.7562,329.1111126788892L792.8772499999999,326.549090114655L794.9264,333.601673254394L797.0474499999999,328.0425590244122L799.0966,331.7627556868829L801.14575,318.22092480864376L803.2668,260.20542100444436L805.31595,315.2700307443738L807.437,151.45178778469565L809.5220999999999,310.61987170390785L811.6431499999999,326.25121971499175L813.72825,333.90247915370855L815.8133499999999,328.0264385291375L817.89845,310.8210282996297L819.9835499999999,330.4027698074933L822.1046,330.70678562647663L824.1897,309.01084140781313L826.2748,328.2262603067793L828.3598999999999,331.91830997087527L830.40905,308.94720041099936L832.5301,289.4094021655619L834.6152000000001,330.27018949063495L836.7003,233.39671954885128L838.8213499999999,324.91414393438026L840.9424,311.6396800512448L842.9556000000001,179.20611739531162L845.1126,312.76142351701856L847.1257999999999,330.54500433057547L849.24685,331.97365510999225L851.33195,173.6629063859582L853.3811000000001,264.3068475779146L855.4662,329.37926565203816L857.4794,320.5215571112931L859.5645,329.4043747780379L861.68555,328.76338890194893L863.7347,-346.92461335659027L865.8198,195.92640070617202L867.8689499999999,297.31839975714684L869.95405,318.5437943218276L872.11105,320.48162991553545L874.1242500000001,282.28678844310343L876.2452999999999,318.27821808541194L878.2585,329.8610414683353L880.3435999999999,331.5616635706974L882.32085,334.0916550848633L884.4059500000001,331.85583846783265L886.4551000000001,327.9676857534796L888.4323499999999,332.7737230035709L890.51745,329.37628614739515L892.60255,106.56364528834825L894.6876500000001,321.8931511407718L896.70085,332.26478357822634L898.7859500000001,285.69585514627397L900.87105,327.75286866375245L902.9921,265.45666378363967L905.11315,271.8807373791933L907.12635,333.23530969640706L909.1036,313.2466274444014L911.1887,322.2558353925124L913.3097500000001,334.0108319723513L915.39485,331.67403765104245L917.5159,319.3877905039117L919.49315,330.5154531451408L921.5782499999999,280.2916363477707L923.66335,331.3595550614409L925.7484499999999,271.6407781597227L927.8695,327.2071725411806L929.84675,327.0464974818751L931.9318499999999,332.2369498098269L934.0528999999999,306.19463195465505L936.17395,334.028527785209L938.25905,310.10185472108424L940.27225,329.2133631664328L942.3573500000001,333.5140771930455L944.4064999999999,331.5506177066127L946.5275499999999,309.572694696486L948.61265,331.737354416633L950.6258499999999,335.381717223514L952.71095,334.84602142628864L954.832,329.57044778298587L956.9530500000001,334.7233460524294L959.03815,333.02301555953454L961.1232500000001,157.7327278107405L963.13645,334.10346400772687L965.2575,330.8932573897764L967.3426,325.57106145098805L969.4636499999999,330.42089497460984L971.5128,333.823824203806L973.5979000000001,332.76625621214043L975.683,317.88114271033555L977.80405,314.15581946633756L979.88915,327.79870780790225L981.9382999999999,332.15256290417165L984.0234,328.4016764271073L986.1084999999999,331.5648184841266L988.22955,326.3531230520457L990.31465,320.8063830868341L992.3638000000001,296.00110055319965L994.377,117.20825719088322L996.4621,328.5458752841223L998.5472,326.1912066852674L1000.6682500000001,320.58870383910835L1002.7174,334.5252379483427L1004.8384500000001,332.3152145210188L1006.8876,312.3884738786146L1009.0086500000001,329.8946881738957L1011.1297000000001,299.3062054635957L1013.1788499999999,306.3350372146815L1015.2999,332.0071144887479L1017.385,319.5313103394583L1019.4701,335.206270887953L1021.6271,167.67922496795657L1023.7121999999999,327.21680596726947L1025.8692,329.24555770726874L1027.9183500000001,334.79676372074755L1030.0394000000001,318.80690994579345L1032.16045,316.6445547728799L1034.2814999999998,321.6473025865853L1036.40255,317.23144201235846L1038.48765,325.0453912666999L1040.6087,292.59858570434153L1042.6938,332.3398371473886L1044.74295,334.2892044936307L1046.864,332.3358993118163L1048.98505,335.1715876967646L1051.07015,334.9269180332485L1053.1912,317.8992312066257L1055.2044,324.89405076624826L1057.2894999999999,327.11593124689534L1059.41055,329.40507030137815L1061.3878,193.73765109479427L1063.4729,330.76792017230764L1065.52205,330.47098426753655L1067.60715,299.77941803075373L1069.6922499999998,315.8624100512825L1071.7413999999999,329.69695724453777L1073.79055,327.1992730339989L1075.8397,257.000684145838L1077.96075,327.8249360052869L1080.0818,119.56669005006557L1082.13095,288.56541576236486L1084.21605,331.45621874858625L1086.30115,333.3749152268283L1088.38625,328.62159687350504L1090.5073,331.8966971025802L1092.55645,325.93569414597005L1094.64155,331.53988537809346L1096.6907,327.3366608961951L1098.81175,334.90634592884453L1100.8609,329.5002628772054L1102.946,308.8149703005329L1104.9592,331.00917906698305L1106.9724,201.55664381012323L1109.0575,325.0413085813634L1111.17855,329.3912686246913L1113.2636499999999,327.3470161263831L1115.3128,335.023478354502L1117.29005,327.75140060833655L1119.3392,328.19249380985275L1121.46025,332.5557057730621L1123.54535,334.55255206057336L1125.5945,290.3790863826871L1127.6077,331.9562098811148L1129.65685,302.73843590542674L1131.7779,329.8381167012267L1133.82705,334.9454166316136L1135.9121499999999,333.59798478044104L1137.8894,331.48622526344843L1139.93855,330.8659516812768L1142.09555,328.9493723320775L1144.18065,335.1652008611709L1146.26575,324.45983640057966L1148.243,330.63291285792366L1150.3281000000002,334.0856777401641L1152.4491500000001,333.6337832995341L1154.53425,318.9972046427429L1156.61935,332.2766973185353L1158.63255,332.9471179501852L1160.7536,326.9030412090942L1162.8387,326.12173258233815L1164.95975,327.02895354735665L1167.04485,323.25036409450695L1169.05805,329.34795243339613L1171.21505,332.2891987088369L1173.2641999999998,331.7809566403739L1175.38525,330.68208171310835L1177.5063,332.76303926389664L1179.5914,327.02480424335226L1181.6765,334.35869479284156L1183.7616,327.7667100671679L1185.88265,143.83086642622953L1188.0037,334.7391776885488L1190.0169,334.8054722780362L1192.0660500000001,333.37921793712303L1194.1871,307.99315507896245L1196.2721999999999,330.88460399152245L1198.39325,309.5336304875091L1200.4064500000002,328.39975181990303L1202.49155,194.9666420593858L1204.6126,321.9139019390568L1206.73365,333.19160204404034L1208.81875,302.697012539953L1210.90385,334.6303388286615L1212.953,297.33923123124987L1215.0381,333.3082901415182L1217.1951000000001,330.28853651625104L1219.2802,216.04675414413217L1221.32935,309.2053190236911L1223.2347,324.2333365967497L1225.4636,335.60579744038114L1227.58465,332.5351765276864L1229.66975,331.15245931979734L1231.6470000000002,297.1778331454843L1233.7321,334.33311077964026L1235.8172000000002,333.7731196049717L1237.9023,311.3042666707188L1239.9874,330.5614285825286L1242.03655,333.2230876155663L1244.12165,316.7127747335471L1246.1708,319.2973382435739L1248.2199500000002,315.51450292021036L1250.3410000000001,303.94348570983857L1252.3542,330.6180446713697L1254.4393,321.9297327348031L1256.3087,327.55946061364375L1258.25,331.54896201880183L1260.37105,255.13602640852332L1262.45615,327.8138589709997L1264.54125,261.09068408980966L1266.69825,328.1434924181085L1268.6755,257.2899240665138L1270.7606,275.67055482789874L1272.8097500000001,328.1753581438679L1274.89485,329.587403150741L1277.0518499999998,327.5311158983968L1279.1009999999999,-266.6158947497606L1281.2220499999999,313.47446328867227L1283.1993,314.92395593225956L1285.3563000000001,277.5982668288052L1287.4773500000001,334.93962508576806L1289.56245,280.19419951736927L1291.6475500000001,324.5637150728144L1293.6967,333.1316281298641L1295.81775,334.0172137657064L1297.9388,333.7660919466871L1299.98795,308.1884932368994L1302.109,333.294631175464L1304.1941000000002,331.26427753153257L1306.3510999999999,334.4282741716015L1308.47215,284.81409290246665L1310.55725,334.56704757985426L1312.64235,314.7248088978231L1314.7274499999999,308.9255352867767L1316.81255,333.2305385163054L1319.0055,325.72070775926113L1321.12655,257.95098171941936L1323.1757,318.7447113348171L1325.2608,312.28976579289883L1327.38185,314.25988638214767L1329.5029,321.7168011367321L1331.62395,334.10653717577225L1333.745,331.03551208181307L1335.8301000000001,297.9942259741947L1337.9511499999999,329.3134794118814L1340.0003,334.8899129675701L1342.12135,332.20689745643176L1344.2423999999999,327.3480196846649L1346.21965,331.12255915033165L1348.30475,331.0115770334378L1350.4258,327.6185208130628L1352.5109,321.10410252492875L1354.4522,333.57476099330233L1356.57325,331.6990346254315L1358.6224,331.6292631832184L1360.7794000000001,328.15339781949297L1362.82855,331.9153668314684L1364.9855499999999,330.8534450959414L1366.99875,334.8339098927099L1369.08385,297.7400555871427L1371.24085,322.7086907615885L1373.32595,334.68343635171186L1375.4470000000001,332.05719491955824L1377.49615,311.18303291872144L1379.6172000000001,305.39945686608553L1381.5225500000001,328.6338614313863L1383.356,321.90772901661694L1385.5489499999999,270.16334479115903L1387.3824,244.92998781055215L1389.43155,335.03582183105755L1391.4088,200.6072507835925L1393.45795,327.76993587752804L1395.47115,194.3076526410878L1397.62815,323.5976478215307L1399.64135,319.5022682673298" fill="none"></path></g></g></g></g></g></g><g transform="translate(60, 378)" clip-path="url(#clip_1)"><clipPath id="clip_1"><rect width="1438" height="22"></rect></clipPath><g><g><line x1="0" y1="0" x2="0" y2="5" style="visibility: inherit;" fill="rgb(0, 0, 0)" stroke="rgb(204, 204, 204)" stroke-width="1px"></line><line x1="179.75" y1="0" x2="179.75" y2="5" style="visibility: inherit;" fill="rgb(0, 0, 0)" stroke="rgb(204, 204, 204)" stroke-width="1px"></line><line x1="359.5" y1="0" x2="359.5" y2="5" style="visibility: inherit;" fill="rgb(0, 0, 0)" stroke="rgb(204, 204, 204)" stroke-width="1px"></line><line x1="539.25" y1="0" x2="539.25" y2="5" style="visibility: inherit;" fill="rgb(0, 0, 0)" stroke="rgb(204, 204, 204)" stroke-width="1px"></line><line x1="719" y1="0" x2="719" y2="5" style="visibility: inherit;" fill="rgb(0, 0, 0)" stroke="rgb(204, 204, 204)" stroke-width="1px"></line><line x1="898.75" y1="0" x2="898.75" y2="5" style="visibility: inherit;" fill="rgb(0, 0, 0)" stroke="rgb(204, 204, 204)" stroke-width="1px"></line><line x1="1078.5" y1="0" x2="1078.5" y2="5" style="visibility: inherit;" fill="rgb(0, 0, 0)" stroke="rgb(204, 204, 204)" stroke-width="1px"></line><line x1="1258.25" y1="0" x2="1258.25" y2="5" style="visibility: inherit;" fill="rgb(0, 0, 0)" stroke="rgb(204, 204, 204)" stroke-width="1px"></line><line x1="1438" y1="0" x2="1438" y2="5" style="visibility: inherit;" fill="rgb(0, 0, 0)" stroke="rgb(204, 204, 204)" stroke-width="1px"></line></g><g transform="translate(0, 8)"><text x="0" y="0" dx="0em" dy="0.95em" style="text-anchor: middle; visibility: hidden; font-family: &quot;Helvetica Neue&quot;, sans-serif; font-size: 12px; font-weight: 200;" fill="rgb(50, 49, 63)" stroke="none" stroke-width="1px">-5k</text><text x="179.75" y="0" dx="0em" dy="0.95em" style="text-anchor: middle; visibility: inherit; font-family: &quot;Helvetica Neue&quot;, sans-serif; font-size: 12px; font-weight: 200;" fill="rgb(50, 49, 63)" stroke="none" stroke-width="1px">0</text><text x="359.5" y="0" dx="0em" dy="0.95em" style="text-anchor: middle; visibility: inherit; font-family: &quot;Helvetica Neue&quot;, sans-serif; font-size: 12px; font-weight: 200;" fill="rgb(50, 49, 63)" stroke="none" stroke-width="1px">5k</text><text x="539.25" y="0" dx="0em" dy="0.95em" style="text-anchor: middle; visibility: inherit; font-family: &quot;Helvetica Neue&quot;, sans-serif; font-size: 12px; font-weight: 200;" fill="rgb(50, 49, 63)" stroke="none" stroke-width="1px">10k</text><text x="719" y="0" dx="0em" dy="0.95em" style="text-anchor: middle; visibility: inherit; font-family: &quot;Helvetica Neue&quot;, sans-serif; font-size: 12px; font-weight: 200;" fill="rgb(50, 49, 63)" stroke="none" stroke-width="1px">15k</text><text x="898.75" y="0" dx="0em" dy="0.95em" style="text-anchor: middle; visibility: inherit; font-family: &quot;Helvetica Neue&quot;, sans-serif; font-size: 12px; font-weight: 200;" fill="rgb(50, 49, 63)" stroke="none" stroke-width="1px">20k</text><text x="1078.5" y="0" dx="0em" dy="0.95em" style="text-anchor: middle; visibility: inherit; font-family: &quot;Helvetica Neue&quot;, sans-serif; font-size: 12px; font-weight: 200;" fill="rgb(50, 49, 63)" stroke="none" stroke-width="1px">25k</text><text x="1258.25" y="0" dx="0em" dy="0.95em" style="text-anchor: middle; visibility: inherit; font-family: &quot;Helvetica Neue&quot;, sans-serif; font-size: 12px; font-weight: 200;" fill="rgb(50, 49, 63)" stroke="none" stroke-width="1px">30k</text><text x="1438" y="0" dx="0em" dy="0.95em" style="text-anchor: middle; visibility: hidden; font-family: &quot;Helvetica Neue&quot;, sans-serif; font-size: 12px; font-weight: 200;" fill="rgb(50, 49, 63)" stroke="none" stroke-width="1px">35k</text></g><line x1="0" y1="0" x2="1438" y2="0" fill="rgb(0, 0, 0)" stroke="rgb(204, 204, 204)" stroke-width="1px"></line></g></g></g></g></svg>