<svg viewBox="0 0 1498 400" xmlns="http://www.w3.org/2000/svg"><g><g><g><g><g><line x1="60" y1="378" x2="55" y2="378" style="visibility: inherit;" fill="rgb(0, 0, 0)" stroke="rgb(204, 204, 204)" stroke-width="1px"></line><line x1="60" y1="346.5" x2="55" y2="346.5" style="visibility: inherit;" fill="rgb(0, 0, 0)" stroke="rgb(204, 204, 204)" stroke-width="1px"></line><line x1="60" y1="315" x2="55" y2="315" style="visibility: inherit;" fill="rgb(0, 0, 0)" stroke="rgb(204, 204, 204)" stroke-width="1px"></line><line x1="60" y1="283.5" x2="55" y2="283.5" style="visibility: inherit;" fill="rgb(0, 0, 0)" stroke="rgb(204, 204, 204)" stroke-width="1px"></line><line x1="60" y1="252" x2="55" y2="252" style="visibility: inherit;" fill="rgb(0, 0, 0)" stroke="rgb(204, 204, 204)" stroke-width="1px"></line><line x1="60" y1="220.5" x2="55" y2="220.5" style="visibility: inherit;" fill="rgb(0, 0, 0)" stroke="rgb(204, 204, 204)" stroke-width="1px"></line><line x1="60" y1="188.99999999999997" x2="55" y2="188.99999999999997" style="visibility: inherit;" fill="rgb(0, 0, 0)" stroke="rgb(204, 204, 204)" stroke-width="1px"></line><line x1="60" y1="157.50000000000003" x2="55" y2="157.50000000000003" style="visibility: inherit;" fill="rgb(0, 0, 0)" stroke="rgb(204, 204, 204)" stroke-width="1px"></line><line x1="60" y1="125.99999999999997" x2="55" y2="125.99999999999997" style="visibility: inherit;" fill="rgb(0, 0, 0)" stroke="rgb(204, 204, 204)" stroke-width="1px"></line><line x1="60" y1="94.5" x2="55" y2="94.5" style="visibility: inherit;" fill="rgb(0, 0, 0)" stroke="rgb(204, 204, 204)" stroke-width="1px"></line><line x1="60" y1="63" x2="55" y2="63" style="visibility: inherit;" fill="rgb(0, 0, 0)" stroke="rgb(204, 204, 204)" stroke-width="1px"></line><line x1="60" y1="31.5" x2="55" y2="31.5" style="visibility: inherit;" fill="rgb(0, 0, 0)" stroke="rgb(204, 204, 204)" stroke-width="1px"></line><line x1="60" y1="0" x2="55" y2="0" style="visibility: inherit;" fill="rgb(0, 0, 0)" stroke="rgb(204, 204, 204)" stroke-width="1px"></line></g><g transform="translate(50, 0)"><text x="0" y="378" dx="0em" dy="0.3em" style="text-anchor: end; visibility: hidden; font-family: &quot;Helvetica Neue&quot;, sans-serif; font-size: 12px; font-weight: 200;" fill="rgb(50, 49, 63)" stroke="none" stroke-width="1px">-0.01</text><text x="0" y="346.5" dx="0em" dy="0.3em" style="text-anchor: end; visibility: inherit; font-family: &quot;Helvetica Neue&quot;, sans-serif; font-size: 12px; font-weight: 200;" fill="rgb(50, 49, 63)" stroke="none" stroke-width="1px">0</text><text x="0" y="315" dx="0em" dy="0.3em" style="text-anchor: end; visibility: inherit; font-family: &quot;Helvetica Neue&quot;, sans-serif; font-size: 12px; font-weight: 200;" fill="rgb(50, 49, 63)" stroke="none" stroke-width="1px">0.01</text><text x="0" y="283.5" dx="0em" dy="0.3em" style="text-anchor: end; visibility: inherit; font-family: &quot;Helvetica Neue&quot;, sans-serif; font-size: 12px; font-weight: 200;" fill="rgb(50, 49, 63)" stroke="none" stroke-width="1px">0.02</text><text x="0" y="252" dx="0em" dy="0.3em" style="text-anchor: end; visibility: inherit; font-family: &quot;Helvetica Neue&quot;, sans-serif; font-size: 12px; font-weight: 200;" fill="rgb(50, 49, 63)" stroke="none" stroke-width="1px">0.03</text><text x="0" y="220.5" dx="0em" dy="0.3em" style="text-anchor: end; visibility: inherit; font-family: &quot;Helvetica Neue&quot;, sans-serif; font-size: 12px; font-weight: 200;" fill="rgb(50, 49, 63)" stroke="none" stroke-width="1px">0.04</text><text x="0" y="188.99999999999997" dx="0em" dy="0.3em" style="text-anchor: end; visibility: inherit; font-family: &quot;Helvetica Neue&quot;, sans-serif; font-size: 12px; font-weight: 200;" fill="rgb(50, 49, 63)" stroke="none" stroke-width="1px">0.05</text><text x="0" y="157.50000000000003" dx="0em" dy="0.3em" style="text-anchor: end; visibility: inherit; font-family: &quot;Helvetica Neue&quot;, sans-serif; font-size: 12px; font-weight: 200;" fill="rgb(50, 49, 63)" stroke="none" stroke-width="1px">0.06</text><text x="0" y="125.99999999999997" dx="0em" dy="0.3em" style="text-anchor: end; visibility: inherit; font-family: &quot;Helvetica Neue&quot;, sans-serif; font-size: 12px; font-weight: 200;" fill="rgb(50, 49, 63)" stroke="none" stroke-width="1px">0.07</text><text x="0" y="94.5" dx="0em" dy="0.3em" style="text-anchor: end; visibility: inherit; font-family: &quot;Helvetica Neue&quot;, sans-serif; font-size: 12px; font-weight: 200;" fill="rgb(50, 49, 63)" stroke="none" stroke-width="1px">0.08</text><text x="0" y="63" dx="0em" dy="0.3em" style="text-anchor: end; visibility: inherit; font-family: &quot;Helvetica Neue&quot;, sans-serif; font-size: 12px; font-weight: 200;" fill="rgb(50, 49, 63)" stroke="none" stroke-width="1px">0.09</text><text x="0" y="31.5" dx="0em" dy="0.3em" style="text-anchor: end; visibility: inherit; font-family: &quot;Helvetica Neue&quot;, sans-serif; font-size: 12px; font-weight: 200;" fill="rgb(50, 49, 63)" stroke="none" stroke-width="1px">0.1</text><text x="0" y="0" dx="0em" dy="0.3em" style="text-anchor: end; visibility: hidden; font-family: &quot;Helvetica Neue&quot;, sans-serif; font-size: 12px; font-weight: 200;" fill="rgb(50, 49, 63)" stroke="none" stroke-width="1px">0.11</text></g><line x1="60" y1="0" x2="60" y2="378" fill="rgb(0, 0, 0)" stroke="rgb(204, 204, 204)" stroke-width="1px"></line></g></g><g transform="translate(60, 0)" clip-path="url(#clip_0)"><clipPath id="clip_0"><rect width="1438" height="378"></rect></clipPath><g><g><g><line x1="0" y1="0" x2="0" y2="378" fill="rgb(0, 0, 0)" stroke="rgb(60, 60, 60)" stroke-width="1px" opacity="0.25"></line><line x1="179.75" y1="0" x2="179.75" y2="378" fill="rgb(0, 0, 0)" stroke="rgb(60, 60, 60)" stroke-width="1px" opacity="0.25"></line><line x1="359.5" y1="0" x2="359.5" y2="378" fill="rgb(0, 0, 0)" stroke="rgb(60, 60, 60)" stroke-width="1px" opacity="0.25"></line><line x1="539.25" y1="0" x2="539.25" y2="378" fill="rgb(0, 0, 0)" stroke="rgb(60, 60, 60)" stroke-width="1px" opacity="0.25"></line><line x1="719" y1="0" x2="719" y2="378" fill="rgb(0, 0, 0)" stroke="rgb(60, 60, 60)" stroke-width="1px" opacity="0.25"></line><line x1="898.75" y1="0" x2="898.75" y2="378" fill="rgb(0, 0, 0)" stroke="rgb(60, 60, 60)" stroke-width="1px" opacity="0.25"></line><line x1="1078.5" y1="0" x2="1078.5" y2="378" fill="rgb(0, 0, 0)" stroke="rgb(60, 60, 60)" stroke-width="1px" opacity="0.25"></line><line x1="1258.25" y1="0" x2="1258.25" y2="378" fill="rgb(0, 0, 0)" stroke="rgb(60, 60, 60)" stroke-width="1px" opacity="0.25"></line><line x1="1438" y1="0" x2="1438" y2="378" fill="rgb(0, 0, 0)" stroke="rgb(60, 60, 60)" stroke-width="1px" opacity="0.25"></line></g><g><line x1="0" y1="378" x2="1438" y2="378" fill="rgb(0, 0, 0)" stroke="rgb(60, 60, 60)" stroke-width="1px" opacity="0.25"></line><line x1="0" y1="346.5" x2="1438" y2="346.5" fill="rgb(0, 0, 0)" stroke="rgb(60, 60, 60)" stroke-width="1px" opacity="0.25"></line><line x1="0" y1="315" x2="1438" y2="315" fill="rgb(0, 0, 0)" stroke="rgb(60, 60, 60)" stroke-width="1px" opacity="0.25"></line><line x1="0" y1="283.5" x2="1438" y2="283.5" fill="rgb(0, 0, 0)" stroke="rgb(60, 60, 60)" stroke-width="1px" opacity="0.25"></line><line x1="0" y1="252" x2="1438" y2="252" fill="rgb(0, 0, 0)" stroke="rgb(60, 60, 60)" stroke-width="1px" opacity="0.25"></line><line x1="0" y1="220.5" x2="1438" y2="220.5" fill="rgb(0, 0, 0)" stroke="rgb(60, 60, 60)" stroke-width="1px" opacity="0.25"></line><line x1="0" y1="188.99999999999997" x2="1438" y2="188.99999999999997" fill="rgb(0, 0, 0)" stroke="rgb(60, 60, 60)" stroke-width="1px" opacity="0.25"></line><line x1="0" y1="157.50000000000003" x2="1438" y2="157.50000000000003" fill="rgb(0, 0, 0)" stroke="rgb(60, 60, 60)" stroke-width="1px" opacity="0.25"></line><line x1="0" y1="125.99999999999997" x2="1438" y2="125.99999999999997" fill="rgb(0, 0, 0)" stroke="rgb(60, 60, 60)" stroke-width="1px" opacity="0.25"></line><line x1="0" y1="94.5" x2="1438" y2="94.5" fill="rgb(0, 0, 0)" stroke="rgb(60, 60, 60)" stroke-width="1px" opacity="0.25"></line><line x1="0" y1="63" x2="1438" y2="63" fill="rgb(0, 0, 0)" stroke="rgb(60, 60, 60)" stroke-width="1px" opacity="0.25"></line><line x1="0" y1="31.5" x2="1438" y2="31.5" fill="rgb(0, 0, 0)" stroke="rgb(60, 60, 60)" stroke-width="1px" opacity="0.25"></line><line x1="0" y1="0" x2="1438" y2="0" fill="rgb(0, 0, 0)" stroke="rgb(60, 60, 60)" stroke-width="1px" opacity="0.25"></line></g></g></g><g><g><line x1="0" y1="346.5" x2="1438" y2="346.5" fill="rgb(0, 0, 0)" stroke="rgb(153, 153, 153)" stroke-width="1.5px"></line></g></g><g><g><line x1="179.75" y1="0" x2="179.75" y2="378" fill="rgb(0, 0, 0)" stroke="rgb(153, 153, 153)" stroke-width="1.5px"></line></g></g><g><g><g><g><g><path style="fill: none;" stroke="rgb(255, 112, 67)" stroke-width="2px" d="M204.37575,-8.841736838362294L206.31705,41.29566187428429L208.4381,-104.01089346680465L214.08225000000002,-4.955839040249202L216.02355,60.846261787944854L217.9289,85.45980634597123L219.61855,80.715853545257L221.8115,83.55194103702848L223.4652,123.59954654983898L225.58624999999998,125.21226976494626L227.5635,-163.0686513805898L232.99195,-55.124329249445054L235.07705,77.48376178052916L236.9105,133.7072047207695L238.708,92.9924920780254L240.82905000000002,122.92044301997092L242.55464999999998,90.78774158839934L244.5319,174.54676439084975L246.58104999999998,217.7152690029382L248.4864,237.98557511215446L250.4277,164.49557457778516L252.2971,194.6715469977258L254.2384,195.91234294635112L256.32349999999997,213.9104760115455L258.3367,190.9637419274505L260.278,195.64857396459328L262.1474,148.5412433068753L263.873,180.000410195151L265.7424,-184.42152651088088L267.64775000000003,-13.418391932277473L269.4812,77.517228079743L271.02705000000003,90.76092169461936L273.18405,126.4887775587365L274.9456,152.37072278307556L276.85095,182.27341284006732L278.57655,239.86925204115235L280.51785,261.59097475122184L282.53105,207.07251130526976L284.47235,244.55056838683024L286.16200000000003,223.50913876886105L288.35495000000003,218.15744479355163L290.15245,256.4891800111953L291.91400000000004,241.3291928873313L293.89125,179.8646085146574L295.7966,234.62012633508508L297.84575,259.02303174630447L299.64325,162.35668564734235L301.58455,71.86441827355242L303.4899,131.85780828916091L305.5031,131.3516289694491L307.19275,129.70464964529177L308.95430000000005,171.5037757356185L310.93155,161.64647515411482L312.80095,199.55062733170573L314.8501,126.58635954306831L316.9352,124.52140484003013L318.5889,118.19022601692552L320.7459,165.88916872053548L322.6153,189.30265230005506L324.44874999999996,205.70762633124303L326.3541,222.50750186943597L328.33135,8.268802159449933L330.2367,74.97688497806882L332.21395,162.50267295810752L334.0474,180.44088911874994L335.95275,213.942702384972L338.00190000000003,216.75616534482444L339.8713,207.16417958099248L341.8126,173.4792381868279L343.68199999999996,187.25211034390426L345.51545,232.22151783435402L347.4927,222.96609491603883L349.43399999999997,166.68056822715587L351.33934999999997,173.29622151195042L353.2447,214.22861657434123L355.07815,254.72541771318566L357.05539999999996,273.52572713709503L358.74505,291.03372568885464L360.90205000000003,298.8640140801667L362.5917,308.35365596249693L364.35325,312.344155721873L366.36645,273.6521331358015L368.128,251.879081680659L370.2131,227.43088487642024L372.04654999999997,234.99174898777613L373.98785,268.2489478553188L375.56964999999997,260.29920676737146L377.475,266.6463865735478L379.45225000000005,278.04216654588856L381.39355,234.5134643464689L382.97535,258.46969435211446L384.84475,249.7489321267392L386.53439999999995,136.41852025006926L388.43975,196.46422824153134L390.23724999999996,229.28995780282514L392.17855,272.07364529935L393.94010000000003,284.75891708026813L395.77355,289.18277396077207L397.57105,264.8309548158305L399.22475000000003,193.25620663516864L401.0582,228.07986100526537L402.74785,263.5014461637252L404.79699999999997,266.654388480527L406.3788,218.55167918392584L408.21225,221.84815987341742L410.08165,208.66866386171066L411.73535,202.44659916899136L413.7126,249.2133174454661L415.47415,260.323421237796L417.2357,230.7894988137063L419.1051,230.40942614540916L420.79475,197.23904395857727L422.73605,231.15538882171674L424.4257,160.4334835884307L426.40295,218.02953854738672L427.8769,242.15057571404574L429.6025,183.46802550955653L431.3281,225.64267667027735L433.30535000000003,156.90987275774734L435.03094999999996,204.17970194807918L437.11605,213.87261435622733L438.80569999999994,246.76776631912446L440.63915000000003,210.50815592849767L442.3288,246.02465867486305L444.342,273.5324028871161L446.2833,296.47794504265204L448.0808,289.77424679130445L449.62665,249.6996675665982L451.63984999999997,243.54303128038688L453.50925,249.63192476341038L455.127,281.6637666531438L456.88854999999995,298.3321482622197L458.6501,246.4502864202005L460.5195,271.9346565809931L462.35295,276.13244640273365L464.07854999999995,295.7092399020047L465.87605,303.19364026376905L467.81735,267.11407791786974L469.75865,219.45663045176016L471.55615000000006,263.75725910859194L473.1739,272.21733359573415L475.0433,294.8082755749114L477.09245,304.6443579476886L478.96185,292.30880628417805L481.0829,280.9661746629529L482.6647,239.8725609903605L484.57005000000004,263.0752406880302L486.43944999999997,276.7223301136519L488.38075000000003,240.32523081922682L490.39395,248.62441053822133L492.1555,252.584690008071L494.09680000000003,181.22093746871172L495.78645,237.8747327376033L497.79965000000004,215.98676783434303L499.705,241.3726752241954L501.53845,237.9721893573108L503.2281,242.18194909717457L505.06155,261.9690269459833L507.07475000000005,239.57477206465893L508.9801,257.42705197171745L510.5619,185.47968063972218L512.5751,214.14208662642136L514.40855,208.4267811663931L516.13415,243.136850888311L517.7878499999999,261.48311169730374L519.72915,247.44195020369736L521.5626000000001,271.9173388871375L523.6477,262.7694885681762L525.4452,280.3438942455169L527.2427,250.69308629172542L529.14805,283.4249278156459L530.94555,299.5163450225293L532.74305,223.2274634947836L534.75625,239.08985873523116L536.5537499999999,276.674193532543L538.4591,302.6217525539147L540.22065,305.17872731014177L542.09005,274.22562978341625L544.0313500000001,262.9937522421744L546.04455,253.5422612971346L547.8061,266.1760468316841L549.49575,295.27246611611656L551.473,262.4151557433403L553.1267,192.73591547297218L555.03205,243.27222435228097L556.97335,152.23541024060287L558.62705,192.38218781340862L560.42455,235.01492008113112L562.3299000000001,156.76077777471096L564.1993,229.61270182587774L566.10465,190.66410955940523L567.97405,241.09671962278983L569.6637,230.52142651687802L571.4971499999999,273.97634707762745L573.3306,291.0833920843836L575.23595,309.9505603388659L576.9975,311.663275520546L578.97475,289.6279260564105L580.8081999999999,225.67318783094026L582.7495,257.92620435738286L584.6189,280.7510172956212L586.30855,237.09020261365313L588.5015,246.1315710195788L590.11925,236.8933585404687L592.0965,268.5864505004485L593.71425,232.43750732729433L595.58365,243.6231465046978L597.4171,250.23265200140332L599.5022,270.24287566263826L601.33565,261.4012120557985L603.0972,254.7458168711162L605.0744500000001,281.4975683992145L606.9078999999999,298.87754483439255L608.7054,257.5185537452562L610.53885,271.6915981227197L612.3723,280.64875361198415L614.0979,253.08204372450248L616.1111,285.5845600707801L617.80075,301.674764201401L619.9937,312.40733930601675L621.89905,305.63512080242634L623.5168,304.4880932008052L625.49405,182.33018982617995L627.43535,216.42189912771548L629.2687999999999,244.82565078899484L631.24605,273.7842399538471L633.1514000000001,299.1440425680005L635.0208,305.12193188985725L636.85425,305.44519076150976L639.01125,300.37578530849413L640.66495,291.1150609030807L642.46245,279.5226129322936L644.4397,291.30159342838465L646.4529,178.40007752509797L648.2144499999999,218.12762114454438L650.08385,266.6443336819433L652.0611,298.02144021428995L653.46315,281.8390880622707L655.18875,256.83972349454416L656.7346,240.46902186685475L658.4961500000001,247.5033102364163L660.29365,279.7998042814177L662.37875,237.84595188571464L664.4279,234.90713079615506L666.4051499999999,249.83031975235983L667.98695,200.61301844123864L669.56875,219.50663638296047L671.6898,265.2253504883189L673.6311,289.5227100784146L675.75215,247.9290191939213L677.83725,236.28583310310472L679.8864,245.42604466834322L682.00745,203.2675935718933L684.1285,249.92032752892493L686.2136,272.7506189120478L688.2268,257.36734516457716L690.27595,262.4903705226541L692.3969999999999,288.89310701085094L694.4821,233.54117107029532L696.5672,257.94143141141996L698.7242,280.7019636740176L700.70145,301.9635923968934L702.78655,283.10632692230837L704.9076,281.5393736955708L706.9927,238.67520733756933L709.11375,244.78578788091605L711.12695,272.6027738372974L713.248,274.7600963068302L715.36905,283.6981052057323L717.45415,287.570626936637L719.5751999999999,243.07250732915557L721.5884,262.8583730354128L723.7094500000001,284.3088896539341L725.86645,268.3492554167825L727.95155,295.57736002332973L730.0726000000001,289.36346055672766L732.12175,291.7489866620672L734.20685,294.0580505315287L736.36385,284.446690725316L738.44895,292.4372351770278L740.6059499999999,299.272584942262L742.69105,304.78717998029623L744.6683,287.54449697650574L746.78935,283.79503593335806L748.9104000000001,259.6834917008296L751.0314500000001,284.0712266707072L753.1525,256.4090953852921L755.20165,291.02941063038645L757.28675,304.79875864568135L759.4078000000001,316.1955623450594L761.52885,325.58159606834306L763.6139499999999,288.2827599536183L765.6631,261.3685643548252L767.7482000000001,255.95987005379686L769.8692500000001,279.5443689746969L771.9903,293.36846797307214L774.0394499999999,288.4274462887041L776.12455,213.96186590959982L778.2096499999999,251.4799755134902L780.3307,266.1924726244045L782.4158,127.00434679247337L784.5009,203.84720514987347L786.5141000000001,211.30960465535188L788.6711,241.39507215955652L790.7562,269.69699041687727L792.8772499999999,296.2676457845764L794.9264,292.6065803249834L797.0474499999999,267.8459415304755L799.0966,263.4813527505454L801.14575,263.052818273953L803.2668,283.80581748437965L805.31595,264.0952381518607L807.437,261.5388976038769L809.5220999999999,285.13201626248804L811.6431499999999,301.4102863426217L813.72825,304.5497451949244L815.8133499999999,318.6067883102223L817.89845,313.47604660112415L819.9835499999999,318.92353174377234L822.1046,326.9101033788621L824.1897,267.11905473659635L826.2748,266.19855266177774L828.3598999999999,293.69305287034285L830.40905,289.97667321700436L832.5301,276.32888549648874L834.6152000000001,283.12922832419366L836.7003,283.3642661157244L838.8213499999999,296.8490937349494L840.9424,263.3044914363203L842.9556000000001,266.5075478588568L845.1126,280.42062107011833L847.1257999999999,303.02721439341553L849.24685,309.68807478347327L851.33195,264.9276622569496L853.3811000000001,293.8138053019529L855.4662,303.3269045308045L857.4794,259.51487676231926L859.5645,251.48535225945037L861.68555,275.8804111117561L863.7347,274.46795290913815L865.8198,290.81269664515037L867.8689499999999,276.2357891064822L869.95405,276.57208945226307L872.11105,254.0465705506303L874.1242500000001,255.2257486738144L876.2452999999999,250.25145776017774L878.2585,282.4078326344894L880.3435999999999,294.68711931380074L882.32085,314.2836518780641L884.4059500000001,315.7861983580144L886.4551000000001,314.6764986382575L888.4323499999999,280.38434305886335L890.51745,292.61756148993913L892.60255,298.16924351415L894.6876500000001,271.7672310409604L896.70085,293.1005545362924L898.7859500000001,308.21164444305566L900.87105,300.8655401466374L902.9921,288.2892720400145L905.11315,247.69211531274618L907.12635,279.82723476197185L909.1036,289.9750399043015L911.1887,241.7426153302104L913.3097500000001,274.95649140357443L915.39485,296.9567838651953L917.5159,300.16365045714485L919.49315,272.74172862117354L921.5782499999999,294.4452445197544L923.66335,269.63064711323034L925.7484499999999,266.97853623795896L927.8695,286.6678431143963L929.84675,280.1756968862178L931.9318499999999,302.66783282668064L934.0528999999999,318.7791097864214L936.17395,297.09641818283217L938.25905,285.2376170684589L940.27225,307.43165338514405L942.3573500000001,313.3594158785979L944.4064999999999,320.9338499794119L946.5275499999999,324.3597199046441L948.61265,303.30500309907364L950.6258499999999,282.3823577910243L952.71095,259.4044527768837L954.832,219.5837605869619L956.9530500000001,237.69915805613087L959.03815,267.8421428306704L961.1232500000001,143.02515569947988L963.13645,206.10518435163993L965.2575,236.86904798760233L967.3426,272.527796744938L969.4636499999999,292.27987438157817L971.5128,264.8238399518467L973.5979000000001,250.53735890942434L975.683,210.47468152616992L977.80405,240.2821531845604L979.88915,247.61163643321242L981.9382999999999,254.63273500544335L984.0234,276.7958798327595L986.1084999999999,216.52227884045544L988.22955,238.322619775005L990.31465,253.06923117582073L992.3638000000001,281.63659224752524L994.377,275.9522539800044L996.4621,289.9450525656722L998.5472,309.17812645657403L1000.6682500000001,321.48601396645483L1002.7174,330.22220900049285L1004.8384500000001,333.887436340469L1006.8876,321.2817850620853L1009.0086500000001,305.27614577927034L1011.1297000000001,258.6361076701751L1013.1788499999999,269.27317251229704L1015.2999,291.727156202283L1017.385,295.3930445881406L1019.4701,305.5690503140819L1021.6271,313.7848937620539L1023.7121999999999,277.0149845904004L1025.8692,294.0907958560223L1027.9183500000001,283.24841822016447L1030.0394000000001,299.14656832004016L1032.16045,311.9541532669033L1034.2814999999998,302.72582222363746L1036.40255,283.0978502726042L1038.48765,292.3396429975619L1040.6087,299.23482580690325L1042.6938,225.71178775852167L1044.74295,273.40164980439613L1046.864,260.1591342070596L1048.98505,286.1167602079449L1051.07015,300.8686765711658L1053.1912,261.3425814974995L1055.2044,263.286354778331L1057.2894999999999,269.24237785376397L1059.41055,184.0788182833033L1061.3878,220.65823688019736L1063.4729,261.92976012399447L1065.52205,277.27463422683275L1067.60715,251.84963847379322L1069.6922499999998,199.8797251652505L1071.7413999999999,234.67719533865608L1073.79055,256.88854052767135L1075.8397,262.86572311905013L1077.96075,294.1706751163646L1080.0818,308.4426790722218L1082.13095,222.74554060983695L1084.21605,239.31730952464363L1086.30115,237.2448231584002L1088.38625,269.73317110724264L1090.5073,289.3760902147711L1092.55645,271.164664480759L1094.64155,239.35058511118484L1096.6907,272.20069755432246L1098.81175,278.1581501830651L1100.8609,293.72974018493494L1102.946,276.89385358237746L1104.9592,279.28369824435424L1106.9724,287.3444117849834L1109.0575,303.8710287978212L1111.17855,299.3059290569997L1113.2636499999999,315.69961823169746L1115.3128,315.9207205252013L1117.29005,324.1167779491044L1119.3392,331.1990320243357L1121.46025,281.6987667028855L1123.54535,240.33949553339187L1125.5945,276.11876878362L1127.6077,272.02662124020515L1129.65685,292.04827569109295L1131.7779,311.4522728308713L1133.82705,323.41927129534935L1135.9121499999999,324.8051641442362L1137.8894,256.0417529587736L1139.93855,289.3666503361115L1142.09555,270.49193651266387L1144.18065,288.0343299353867L1146.26575,237.22361021308595L1148.243,263.1080033462852L1150.3281000000002,278.8836050402588L1152.4491500000001,299.1052100175748L1154.53425,253.49777716184434L1156.61935,274.5505746120797L1158.63255,269.99797409859815L1160.7536,280.5386361082644L1162.8387,287.98807314486805L1164.95975,310.770866040317L1167.04485,296.59760327573287L1169.05805,277.99491544029513L1171.21505,267.81874934858917L1173.2641999999998,234.15776463465L1175.38525,250.2897868565685L1177.5063,235.09755492877758L1179.5914,257.5768422286022L1181.6765,285.613682906348L1183.7616,308.5028188790491L1185.88265,305.83481043372217L1188.0037,293.89924414928953L1190.0169,309.0771915274185L1192.0660500000001,297.5615316618873L1194.1871,308.93534551534907L1196.2721999999999,293.63538205757055L1198.39325,306.7997710679282L1200.4064500000002,319.05269927806756L1202.49155,313.44693851785127L1204.6126,292.44394151607906L1206.73365,311.05876249273723L1208.81875,317.3980124876654L1210.90385,309.0553193575595L1212.953,323.57263045802995L1215.0381,331.88569157485836L1217.1951000000001,328.4911124362181L1219.2802,325.9354070457L1221.32935,330.2168758696498L1223.2347,331.98073864776234L1225.4636,331.3428243580362L1227.58465,336.7105401341856L1229.66975,306.0933798929894L1231.6470000000002,317.6067019587141L1233.7321,325.31534431210196L1235.8172000000002,296.7986575444403L1237.9023,280.30427179663553L1239.9874,303.86473905830337L1242.03655,312.338785366945L1244.12165,273.5155206452206L1246.1708,297.3394947353241L1248.2199500000002,269.365779814317L1250.3410000000001,293.4775393931235L1252.3542,298.5870604002872L1254.4393,307.37409431543347L1256.3087,311.7814475994193L1258.25,298.61860356038113L1260.37105,309.3126581765282L1262.45615,270.3033206914108L1264.54125,288.21103247056845L1266.69825,293.84402210593487L1268.6755,305.88066325235525L1270.7606,258.4326252886543L1272.8097500000001,280.06855957352457L1274.89485,279.95103341277445L1277.0518499999998,303.177727232492L1279.1009999999999,312.0186965607798L1281.2220499999999,318.40549350414847L1283.1993,328.89082988743553L1285.3563000000001,321.05841570955255L1287.4773500000001,319.4250719091996L1289.56245,320.8422357889536L1291.6475500000001,300.19889675989884L1293.6967,244.12093560049018L1295.81775,258.94072160809685L1297.9388,272.77091551834013L1299.98795,286.2563919127802L1302.109,307.35868731686145L1304.1941000000002,313.3056265688608L1306.3510999999999,101.44022644619167L1308.47215,141.77125896251215L1310.55725,222.02359936191743L1312.64235,265.8186126932002L1314.7274499999999,291.2376207524983L1316.81255,306.8740352344929L1319.0055,321.7649338824719L1321.12655,302.0183033590418L1323.1757,312.9680779059173L1325.2608,301.90445600178487L1327.38185,309.86767888353256L1329.5029,312.4329700509369L1331.62395,283.2915489101207L1333.745,268.379666913974L1335.8301000000001,291.2037280410842L1337.9511499999999,298.0181902161429L1340.0003,311.92670462198197L1342.12135,318.1470463252344L1344.2423999999999,317.5542453856038L1346.21965,324.2966615054468L1348.30475,325.50189348084984L1350.4258,327.66124528772093L1352.5109,307.0926482863811L1354.4522,311.8886931158654L1356.57325,300.3452763940425L1358.6224,303.516751387598L1360.7794000000001,290.68457901113146L1362.82855,308.2068175189669L1364.9855499999999,319.9142997326612L1366.99875,326.2189078820667L1369.08385,231.59912652331118L1371.24085,268.5726802948566L1373.32595,255.21943272670813L1375.4470000000001,267.06244958204456L1377.49615,265.871302753761L1379.6172000000001,283.43645834107673L1381.5225500000001,280.2866584311692L1383.356,282.77227342729384L1385.5489499999999,112.22574971082577L1387.3824,179.9036598233149L1389.43155,244.3406381897414L1391.4088,281.2666408277174L1393.45795,298.4295399096084L1395.47115,311.9009428259118L1397.62815,324.9372601469313L1399.64135,327.66534631497893" fill="none"></path></g></g></g></g><g opacity="0.2"><g><g><g><path style="fill: none;" stroke="rgb(255, 112, 67)" stroke-width="2px" d="M197.25764999999998,-74.56191515922546L198.8035,86.79378108680248L200.63695,-109.44250112771994L202.68609999999998,50.84787534177303L204.37575,141.0210501551628L206.31705,116.48903006315231L208.4381,-321.94859048724186L210.19965,-26.06282866001135L212.1769,19.682249441742897L214.08225000000002,41.346294075250626L216.02355,159.54811388254166L217.9289,122.37983161211014L219.61855,73.59995806217194L221.8115,87.80606018006802L223.4652,183.6708523482084L225.58624999999998,127.6313521116972L227.5635,-595.4897675514222L229.54074999999997,45.39005944132805L231.41015000000002,-284.9511179924011L232.99195,104.87647654116154L235.07705,276.39588249474764L236.9105,218.04236510396L238.708,31.9204248636961L240.82905000000002,167.81236866116524L242.55464999999998,42.5886899381876L244.5319,300.1852978169918L246.58104999999998,282.4680256806314L248.4864,268.3910342082381L250.4277,54.2605739235878L252.2971,239.9355055913329L254.2384,197.77353686839342L256.32349999999997,240.90767560154197L258.3367,156.543640807271L260.278,202.675822019577L262.1474,77.88024732470512L263.873,227.1891605257988L265.7424,-731.0544315576553L267.64775000000003,243.08630993217227L269.4812,213.9206580966711L271.02705000000003,110.6264621168375L273.18405,180.08056135475636L274.9456,191.19364061951637L276.85095,227.12744792550802L278.57655,326.26301084272563L280.51785,294.17355881631374L282.53105,125.29481613636017L284.47235,300.7676540091634L286.16200000000003,191.94699434190989L288.35495000000003,210.12990383058786L290.15245,313.9867828376591L291.91400000000004,218.5892122015357L293.89125,87.66773195564747L295.7966,316.75340306572616L297.84575,295.62738986313343L299.64325,17.35716649889946L301.58455,-63.87398278713226L303.4899,221.84789331257343L305.5031,130.59235998988152L307.19275,127.23418065905571L308.95430000000005,234.20246487110853L310.93155,146.8605242818594L312.80095,256.4068555980921L314.8501,17.13995786011219L316.9352,121.42397278547287L318.5889,108.69345778226852L320.7459,237.4375827759504L322.6153,224.42287766933438L324.44874999999996,230.31508737802505L326.3541,247.7073151767254L328.33135,-313.089247405529L330.2367,175.039009205997L332.21395,293.7913549281657L334.0474,207.34821335971355L335.95275,264.1954222843051L338.00190000000003,220.97635978460312L339.8713,192.77620093524456L341.8126,122.95182609558105L343.68199999999996,207.9114185795188L345.51545,299.67562907002866L347.4927,209.0829605385661L349.43399999999997,82.25227819383144L351.33934999999997,183.21970143914223L353.2447,275.6272091679275L355.07815,315.4706194214523L357.05539999999996,301.7261912729591L358.74505,317.29572351649404L360.90205000000003,310.60944666713476L362.5917,322.58811878599226L364.35325,318.3299053609371L366.36645,215.6140992566943L368.128,219.2195044979453L370.2131,190.75858967006207L372.04654999999997,246.33304515480995L373.98785,318.1347461566329L375.56964999999997,248.37459513545036L377.475,276.16715628281236L379.45225000000005,295.1358365043998L381.39355,169.22041104733944L382.97535,294.40403936058283L384.84475,236.66778878867626L386.53439999999995,-33.57709756493574L388.43975,286.5327902287245L390.23724999999996,278.52855214476585L392.17855,336.2491765441373L393.94010000000003,303.7868247516453L395.77355,295.818559281528L397.57105,228.30322609841824L399.22475000000003,85.8940843641758L401.0582,280.3153425604105L402.74785,316.63382390141487L404.79699999999997,271.3838019557297L406.3788,146.3976152390242L408.21225,226.79288090765473L410.08165,188.89941984415051L411.73535,193.11350212991235L413.7126,319.36339486017823L415.47415,276.988576926291L417.2357,186.48861517757175L419.1051,229.8393171429634L420.79475,147.48347067832947L422.73605,282.029906116426L424.4257,54.35062573850155L426.40295,304.4236209858209L427.8769,278.3321314640343L429.6025,95.44420020282269L431.3281,288.9046534113586L433.30535000000003,53.810666888952255L435.03094999999996,275.084445733577L437.11605,228.41198296844956L438.80569999999994,296.1104942634702L440.63915000000003,156.11874034255746L442.3288,299.2994127944112L444.342,314.7940192054957L446.2833,330.8962582759559L448.0808,279.71869941428304L449.62665,189.58779872953892L451.63984999999997,234.30807685106993L453.50925,258.76526498794556L455.127,329.711529487744L456.88854999999995,323.3347206758335L458.6501,168.62749365717175L460.5195,310.16121182218194L462.35295,282.4291311353445L464.07854999999995,325.0744301509112L465.87605,314.4202408064157L467.81735,212.99473439902067L469.75865,147.97045925259593L471.55615000000006,330.20820209383965L473.1739,284.9074453264475L475.0433,328.69468854367733L477.09245,319.3984815068543L478.96185,273.8054787889123L481.0829,263.9522272311151L482.6647,178.23214048147202L484.57005000000004,297.87926023453474L486.43944999999997,297.1929642520845L488.38075000000003,185.7295818775892L490.39395,261.07318011671305L492.1555,258.52510921284556L494.09680000000003,74.17530865967274L495.78645,322.85542564094067L497.79965000000004,183.1548204794526L499.705,279.451536308974L501.53845,232.87146055698395L503.2281,248.49658870697021L505.06155,291.6496437191963L507.07475000000005,205.98338974267244L508.9801,284.2054718323052L510.5619,77.55862364172935L512.5751,257.1356956064701L514.40855,199.85382297635078L516.13415,295.20195547118783L517.7878499999999,289.0025029107928L519.72915,226.38020796328783L521.5626000000001,308.6304219122976L523.6477,249.04771308973432L525.4452,306.7055027615279L527.2427,206.2168743610382L529.14805,332.5226901015267L530.94555,323.6534708328545L532.74305,108.79414120316505L534.75625,262.88345159590244L536.5537499999999,333.0506957285106L538.4591,341.54309108597226L540.22065,309.0141894444823L542.09005,227.79598349332807L544.0313500000001,246.14593593031168L546.04455,239.36502487957478L547.8061,285.12672513350844L549.49575,338.91709504276514L551.473,213.12919018417594L553.1267,88.21705506742L555.03205,319.07668767124414L556.97335,15.680189073085785L558.62705,252.6023541726172L560.42455,298.9640184827149L562.3299000000001,39.37956431508064L564.1993,338.8905879026279L566.10465,132.24122115969658L567.97405,316.7456347178668L569.6637,214.65848685801026L571.4971499999999,339.15872791875154L573.3306,316.74395959451795L575.23595,338.25131272058934L576.9975,314.232348293066L578.97475,256.5749018602073L580.8081999999999,129.7410804927349L582.7495,306.3057291470468L584.6189,314.9882367029786L586.30855,171.5989805907011L588.5015,259.6936236284673L590.11925,223.03603982180357L592.0965,316.12608844041824L593.71425,178.21409256756306L595.58365,260.401605270803L597.4171,260.14691024646163L599.5022,300.2582111544907L601.33565,248.13871664553878L603.0972,244.76272409409282L605.0744500000001,321.625195691362L606.9078999999999,324.94750948715955L608.7054,195.48006711155176L610.53885,292.951164688915L612.3723,294.08448684588075L614.0979,211.73197889328L616.1111,334.3383345901966L617.80075,325.8100703973323L619.9937,328.5062019629404L621.89905,295.4767930470407L623.5168,302.76755179837346L625.49405,-0.9066652357578278L627.43535,267.55946308001876L629.2687999999999,287.43127828091383L631.24605,317.2221237011254L633.1514000000001,337.18374648923054L635.0208,314.0887658726424L636.85425,305.93007906898856L639.01125,292.7716771289706L640.66495,277.2239742949605L642.46245,262.1339409761131L644.4397,308.97006417252123L646.4529,9.047803670167923L648.2144499999999,277.718936573714L650.08385,339.41940248804167L652.0611,345.08710001280997L653.46315,257.56555983424187L655.18875,219.34067664295435L656.7346,215.91296942532063L658.4961500000001,258.0547427907586L660.29365,328.2445453489199L662.37875,174.91517329216006L664.4279,230.49889916181564L666.4051499999999,272.21510318666697L667.98695,126.78706647455692L669.56875,247.8470632955432L671.6898,333.8034216463566L673.6311,325.9687494635582L675.75215,185.5384828671813L677.83725,218.82105396687984L679.8864,259.136362016201L682.00745,140.02991692721844L684.1285,319.8994284644723L686.2136,306.99605598673224L688.2268,234.2924345433712L690.27595,270.1749085597694L692.3969999999999,328.4972117431462L694.4821,150.51326715946198L696.5672,294.5418219231069L698.7242,314.842762067914L700.70145,333.8560354812071L702.78655,254.82042871043086L704.9076,279.18894385546446L706.9927,174.37895780056715L709.11375,253.9516586959362L711.12695,314.3282527718693L713.248,277.9960800111294L715.36905,297.1051185540855L717.45415,293.37940953299403L719.5751999999999,176.32532791793346L721.5884,292.53717159479856L723.7094500000001,316.48466458171606L725.86645,244.40980406105515L727.95155,336.4195169331506L730.0726000000001,280.04261135682464L732.12175,295.32727582007647L734.20685,297.521646335721L736.36385,270.02965101599693L738.44895,304.42305185459554L740.6059499999999,309.52560959011316L742.69105,313.0590725373477L744.6683,261.68047247081995L746.78935,278.1708443686366L748.9104000000001,223.51617535203695L751.0314500000001,320.65282912552357L753.1525,214.9158984571695L755.20165,342.9598834980279L757.28675,325.45278066862375L759.4078000000001,333.2907678941265L761.52885,339.6606466532685L763.6139499999999,232.33450578153133L765.6631,220.99727095663548L767.7482000000001,247.8468286022544L769.8692500000001,314.92111735604703L771.9903,314.10461647063494L774.0394499999999,281.0159137621522L776.12455,102.26349534094334L778.2096499999999,307.7571399193257L780.3307,288.261218290776L782.4158,-81.77784195542341L784.5009,319.11149268597364L786.5141000000001,222.50320391356942L788.6711,286.5232734158635L790.7562,312.14986780285835L792.8772499999999,336.12362883612514L794.9264,287.1149821355939L797.0474499999999,230.70498333871365L799.0966,256.93446958065033L801.14575,262.4100165590644L803.2668,314.9353163000196L805.31595,234.52936915308237L807.437,257.7043867819011L809.5220999999999,320.52169425040483L811.6431499999999,325.82769146282226L813.72825,309.2589334733784L815.8133499999999,339.69235298316926L817.89845,305.7799340374768L819.9835499999999,327.09475945774466L822.1046,338.88996083149686L824.1897,177.43248177319765L826.2748,264.8177995495498L828.3598999999999,334.9348031831905L830.40905,284.40210373699665L832.5301,255.85720391571522L834.6152000000001,293.3297425657511L836.7003,283.7168228030205L838.8213499999999,317.076335163787L840.9424,212.98758798837662L842.9556000000001,271.3121324926615L845.1126,301.2902308870107L847.1257999999999,336.93710437836125L849.24685,319.67936536855996L851.33195,197.787043467164L853.3811000000001,337.14301986945793L855.4662,317.59655337408185L857.4794,193.79683510959148L859.5645,239.44106550514698L861.68555,312.4729993902147L863.7347,272.34926560521126L865.8198,315.32981224916875L867.8689499999999,254.3704277984798L869.95405,277.0765399709344L872.11105,220.25829219818115L874.1242500000001,256.9945158585906L876.2452999999999,242.79002138972282L878.2585,330.64239494595677L880.3435999999999,313.1060493327677L882.32085,343.67845072445925L884.4059500000001,318.04001807793975L886.4551000000001,313.0119490586221L888.4323499999999,228.94610968977213L890.51745,310.9673891365528L892.60255,306.4967665504664L894.6876500000001,232.1642123311758L896.70085,325.10053977929056L898.7859500000001,330.87827930320054L900.87105,289.8463837020099L902.9921,269.4248698800802L905.11315,186.79638022184372L907.12635,328.0299139358103L909.1036,305.19674761779606L911.1887,169.39397846907377L913.3097500000001,324.7773055136204L915.39485,329.95722255762666L917.5159,304.97395034506917L919.49315,231.6088458672166L921.5782499999999,327.0005183676258L923.66335,232.4087510034442L925.7484499999999,263.0003699250519L927.8695,316.20180342905223L929.84675,270.4374775439501L931.9318499999999,336.40603673737496L934.0528999999999,342.94602522603236L936.17395,264.5723807774484L938.25905,267.449415396899L940.27225,340.7227078601718L942.3573500000001,322.2510596187785L944.4064999999999,332.29550113063306L946.5275499999999,329.4985247924924L948.61265,271.722927890718L950.6258499999999,250.99838982895017L952.71095,224.9375952556729L954.832,159.85272230207923L956.9530500000001,264.87225425988436L959.03815,313.0566199924797L961.1232500000001,-44.20032499730593L963.13645,300.72522732988L965.2575,283.01484344154596L967.3426,326.0159198809415L969.4636499999999,321.9079908365384L971.5128,223.63978830724955L973.5979000000001,229.10763734579086L975.683,150.38066545128825L977.80405,284.9933606721461L979.88915,258.6058613061905L981.9382999999999,265.1643828637898L984.0234,310.0405970737338L986.1084999999999,126.11187735199928L988.22955,271.02313117682934L990.31465,275.1891482770443L992.3638000000001,324.4876338550821L994.377,267.4257465787232L996.4621,310.9342504441738L998.5472,338.02773729292676L1000.6682500000001,339.947845231276L1002.7174,343.3265015515499L1004.8384500000001,339.38527735043317L1006.8876,302.3733081445098L1009.0086500000001,281.26768685504794L1011.1297000000001,188.67605050653216L1013.1788499999999,285.22876977548003L1015.2999,325.408131737262L1017.385,300.89187716692686L1019.4701,320.8330589029938L1021.6271,326.10865893401206L1023.7121999999999,221.86012083292007L1025.8692,319.7045127544552L1027.9183500000001,266.9848517663777L1030.0394000000001,322.9937934698537L1032.16045,331.16553068719804L1034.2814999999998,288.8833256587386L1036.40255,253.65589234605432L1038.48765,306.2023320849985L1040.6087,309.57760002091527L1042.6938,115.42723068594933L1044.74295,344.93644287320785L1046.864,240.2953608110547L1048.98505,325.05319920927286L1051.07015,322.99655111599714L1053.1912,202.05343888700008L1055.2044,266.2020146995783L1057.2894999999999,278.17641246691346L1059.41055,56.333478927612305L1061.3878,275.52736477553844L1063.4729,323.8370449896902L1065.52205,300.29194538109004L1067.60715,213.712144844234L1069.6922499999998,121.92485520243645L1071.7413999999999,286.8734005987644L1073.79055,290.2055583111942L1075.8397,271.8314970061183L1077.96075,341.12810311233625L1080.0818,329.85068500600755L1082.13095,94.19983291625977L1084.21605,264.1749628968537L1086.30115,234.13609360903502L1088.38625,318.4656930305064L1090.5073,318.8404688760638L1092.55645,243.8475258797407L1094.64155,191.62946605682373L1096.6907,321.47586621902883L1098.81175,287.0943291261792L1100.8609,317.08712518773973L1102.946,251.64002367854118L1104.9592,282.86846523731947L1106.9724,299.435482095927L1109.0575,328.660954317078L1111.17855,292.4582794457674L1113.2636499999999,340.2901519937441L1115.3128,316.2523739654571L1117.29005,336.41086408495903L1119.3392,341.8224131371826L1121.46025,207.44836872071028L1123.54535,178.30058877915144L1125.5945,329.78767865896225L1127.6077,265.8883999250829L1129.65685,322.08075736742467L1131.7779,340.55826854053885L1133.82705,341.3697689920664L1135.9121499999999,326.8840034175664L1137.8894,152.89663618057966L1139.93855,339.35399640211836L1142.09555,242.17986577749252L1144.18065,314.347920069471L1146.26575,161.00753062963486L1148.243,301.93459304608405L1150.3281000000002,302.5470075812191L1152.4491500000001,329.4376174835488L1154.53425,185.0866278782487L1156.61935,306.1297707874328L1158.63255,263.1690733283758L1160.7536,296.3496291227639L1162.8387,299.16222869977355L1164.95975,344.9450553834904L1167.04485,275.33770912885666L1169.05805,250.09088368713856L1171.21505,252.55450021103024L1173.2641999999998,183.6662875637412L1175.38525,274.4878201894462L1177.5063,212.30920703709126L1179.5914,291.295773178339L1181.6765,327.6689439229667L1183.7616,342.8365228381008L1185.88265,301.8327977657318L1188.0037,275.9958947226405L1190.0169,331.84411259461194L1192.0660500000001,280.2880418635905L1194.1871,325.9960662955418L1196.2721999999999,270.6854368709028L1198.39325,326.54635458346456L1200.4064500000002,337.4320915932767L1202.49155,305.03829737752676L1204.6126,260.9394460134208L1206.73365,338.9809939577244L1208.81875,326.9068874800578L1210.90385,296.5412796624005L1212.953,345.3485971087357L1215.0381,344.3552832501009L1217.1951000000001,323.3992437282577L1219.2802,322.1018489599228L1221.32935,336.63907910557464L1223.2347,334.6265328149311L1225.4636,330.3859529234469L1227.58465,344.7621137984097L1229.66975,260.16763953119516L1231.6470000000002,334.8766850573011L1233.7321,336.87830784218386L1235.8172000000002,254.02362739294767L1237.9023,255.56269317492843L1239.9874,339.20543995080516L1242.03655,325.0498548299074L1244.12165,215.280623562634L1246.1708,333.07545587047935L1248.2199500000002,227.4052074328065L1250.3410000000001,329.6451787613332L1252.3542,306.2513419110328L1254.4393,320.5546451881528L1256.3087,318.39247752539814L1258.25,278.8743375018239L1260.37105,325.35374010074884L1262.45615,211.78931446373463L1264.54125,315.072600139305L1266.69825,302.2935065589845L1268.6755,323.9356249719858L1270.7606,187.2605683431029L1272.8097500000001,312.52246100082994L1274.89485,279.7747441716492L1277.0518499999998,338.0177679620683L1279.1009999999999,325.28015055321157L1281.2220499999999,327.9856889192015L1283.1993,344.61883446236607L1285.3563000000001,309.30979444272816L1287.4773500000001,316.97505620867014L1289.56245,322.9679816085845L1291.6475500000001,269.2338882163167L1293.6967,160.00399386137727L1295.81775,281.17040061950684L1297.9388,293.51620638370514L1299.98795,306.4846065044403L1302.109,339.0121304229833L1304.1941000000002,322.2260354468599L1306.3510999999999,-216.35787373781216L1308.47215,202.2678077369928L1310.55725,342.4021099610254L1312.64235,331.5111326901242L1314.7274499999999,329.3661328414455L1316.81255,330.3286569574848L1319.0055,344.10128185444046L1321.12655,272.39835757389665L1323.1757,329.3927397262305L1325.2608,285.30902314558625L1327.38185,321.8125132061541L1329.5029,316.2809068020433L1331.62395,239.5794171988964L1333.745,246.01184391975403L1335.8301000000001,325.4398197317496L1337.9511499999999,308.2398834787309L1340.0003,332.78947623074055L1342.12135,327.47755888011307L1344.2423999999999,316.6650439761579L1346.21965,334.4102856852114L1348.30475,327.3097414439544L1350.4258,330.9002729980275L1352.5109,276.2397527843714L1354.4522,319.0827603600919L1356.57325,283.03015131130815L1358.6224,308.27396387793124L1360.7794000000001,271.43632044643164L1362.82855,334.49017528072L1364.9855499999999,337.4755230532028L1366.99875,335.6758201061748L1369.08385,89.669454485178L1371.24085,324.03301095217466L1373.32595,235.18956137448546L1375.4470000000001,284.8269748650491L1377.49615,264.0845825113356L1379.6172000000001,309.7841917220503L1381.5225500000001,275.561958566308L1383.356,286.50069592148066L1385.5489499999999,-143.59403586387646L1387.3824,281.42052499204874L1389.43155,340.99610573938116L1391.4088,336.6556447846815L1393.45795,324.17388853244483L1395.47115,332.10804720036685L1397.62815,344.4917361284606L1399.64135,331.7574755670503" fill="none"></path></g></g></g></g></g></g><g transform="translate(60, 378)" clip-path="url(#clip_1)"><clipPath id="clip_1"><rect width="1438" height="22"></rect></clipPath><g><g><line x1="0" y1="0" x2="0" y2="5" style="visibility: inherit;" fill="rgb(0, 0, 0)" stroke="rgb(204, 204, 204)" stroke-width="1px"></line><line x1="179.75" y1="0" x2="179.75" y2="5" style="visibility: inherit;" fill="rgb(0, 0, 0)" stroke="rgb(204, 204, 204)" stroke-width="1px"></line><line x1="359.5" y1="0" x2="359.5" y2="5" style="visibility: inherit;" fill="rgb(0, 0, 0)" stroke="rgb(204, 204, 204)" stroke-width="1px"></line><line x1="539.25" y1="0" x2="539.25" y2="5" style="visibility: inherit;" fill="rgb(0, 0, 0)" stroke="rgb(204, 204, 204)" stroke-width="1px"></line><line x1="719" y1="0" x2="719" y2="5" style="visibility: inherit;" fill="rgb(0, 0, 0)" stroke="rgb(204, 204, 204)" stroke-width="1px"></line><line x1="898.75" y1="0" x2="898.75" y2="5" style="visibility: inherit;" fill="rgb(0, 0, 0)" stroke="rgb(204, 204, 204)" stroke-width="1px"></line><line x1="1078.5" y1="0" x2="1078.5" y2="5" style="visibility: inherit;" fill="rgb(0, 0, 0)" stroke="rgb(204, 204, 204)" stroke-width="1px"></line><line x1="1258.25" y1="0" x2="1258.25" y2="5" style="visibility: inherit;" fill="rgb(0, 0, 0)" stroke="rgb(204, 204, 204)" stroke-width="1px"></line><line x1="1438" y1="0" x2="1438" y2="5" style="visibility: inherit;" fill="rgb(0, 0, 0)" stroke="rgb(204, 204, 204)" stroke-width="1px"></line></g><g transform="translate(0, 8)"><text x="0" y="0" dx="0em" dy="0.95em" style="text-anchor: middle; visibility: hidden; font-family: &quot;Helvetica Neue&quot;, sans-serif; font-size: 12px; font-weight: 200;" fill="rgb(50, 49, 63)" stroke="none" stroke-width="1px">-5k</text><text x="179.75" y="0" dx="0em" dy="0.95em" style="text-anchor: middle; visibility: inherit; font-family: &quot;Helvetica Neue&quot;, sans-serif; font-size: 12px; font-weight: 200;" fill="rgb(50, 49, 63)" stroke="none" stroke-width="1px">0</text><text x="359.5" y="0" dx="0em" dy="0.95em" style="text-anchor: middle; visibility: inherit; font-family: &quot;Helvetica Neue&quot;, sans-serif; font-size: 12px; font-weight: 200;" fill="rgb(50, 49, 63)" stroke="none" stroke-width="1px">5k</text><text x="539.25" y="0" dx="0em" dy="0.95em" style="text-anchor: middle; visibility: inherit; font-family: &quot;Helvetica Neue&quot;, sans-serif; font-size: 12px; font-weight: 200;" fill="rgb(50, 49, 63)" stroke="none" stroke-width="1px">10k</text><text x="719" y="0" dx="0em" dy="0.95em" style="text-anchor: middle; visibility: inherit; font-family: &quot;Helvetica Neue&quot;, sans-serif; font-size: 12px; font-weight: 200;" fill="rgb(50, 49, 63)" stroke="none" stroke-width="1px">15k</text><text x="898.75" y="0" dx="0em" dy="0.95em" style="text-anchor: middle; visibility: inherit; font-family: &quot;Helvetica Neue&quot;, sans-serif; font-size: 12px; font-weight: 200;" fill="rgb(50, 49, 63)" stroke="none" stroke-width="1px">20k</text><text x="1078.5" y="0" dx="0em" dy="0.95em" style="text-anchor: middle; visibility: inherit; font-family: &quot;Helvetica Neue&quot;, sans-serif; font-size: 12px; font-weight: 200;" fill="rgb(50, 49, 63)" stroke="none" stroke-width="1px">25k</text><text x="1258.25" y="0" dx="0em" dy="0.95em" style="text-anchor: middle; visibility: inherit; font-family: &quot;Helvetica Neue&quot;, sans-serif; font-size: 12px; font-weight: 200;" fill="rgb(50, 49, 63)" stroke="none" stroke-width="1px">30k</text><text x="1438" y="0" dx="0em" dy="0.95em" style="text-anchor: middle; visibility: hidden; font-family: &quot;Helvetica Neue&quot;, sans-serif; font-size: 12px; font-weight: 200;" fill="rgb(50, 49, 63)" stroke="none" stroke-width="1px">35k</text></g><line x1="0" y1="0" x2="1438" y2="0" fill="rgb(0, 0, 0)" stroke="rgb(204, 204, 204)" stroke-width="1px"></line></g></g></g></g></svg>