<svg viewBox="0 0 1498 400" xmlns="http://www.w3.org/2000/svg"><g><g><g><g><g><line x1="60" y1="378" x2="55" y2="378" style="visibility: inherit;" fill="rgb(0, 0, 0)" stroke="rgb(204, 204, 204)" stroke-width="1px"></line><line x1="60" y1="352.8" x2="55" y2="352.8" style="visibility: inherit;" fill="rgb(0, 0, 0)" stroke="rgb(204, 204, 204)" stroke-width="1px"></line><line x1="60" y1="327.6" x2="55" y2="327.6" style="visibility: inherit;" fill="rgb(0, 0, 0)" stroke="rgb(204, 204, 204)" stroke-width="1px"></line><line x1="60" y1="302.4" x2="55" y2="302.4" style="visibility: inherit;" fill="rgb(0, 0, 0)" stroke="rgb(204, 204, 204)" stroke-width="1px"></line><line x1="60" y1="277.2" x2="55" y2="277.2" style="visibility: inherit;" fill="rgb(0, 0, 0)" stroke="rgb(204, 204, 204)" stroke-width="1px"></line><line x1="60" y1="252" x2="55" y2="252" style="visibility: inherit;" fill="rgb(0, 0, 0)" stroke="rgb(204, 204, 204)" stroke-width="1px"></line><line x1="60" y1="226.79999999999998" x2="55" y2="226.79999999999998" style="visibility: inherit;" fill="rgb(0, 0, 0)" stroke="rgb(204, 204, 204)" stroke-width="1px"></line><line x1="60" y1="201.6" x2="55" y2="201.6" style="visibility: inherit;" fill="rgb(0, 0, 0)" stroke="rgb(204, 204, 204)" stroke-width="1px"></line><line x1="60" y1="176.4" x2="55" y2="176.4" style="visibility: inherit;" fill="rgb(0, 0, 0)" stroke="rgb(204, 204, 204)" stroke-width="1px"></line><line x1="60" y1="151.19999999999996" x2="55" y2="151.19999999999996" style="visibility: inherit;" fill="rgb(0, 0, 0)" stroke="rgb(204, 204, 204)" stroke-width="1px"></line><line x1="60" y1="125.99999999999997" x2="55" y2="125.99999999999997" style="visibility: inherit;" fill="rgb(0, 0, 0)" stroke="rgb(204, 204, 204)" stroke-width="1px"></line><line x1="60" y1="100.80000000000001" x2="55" y2="100.80000000000001" style="visibility: inherit;" fill="rgb(0, 0, 0)" stroke="rgb(204, 204, 204)" stroke-width="1px"></line><line x1="60" y1="75.59999999999997" x2="55" y2="75.59999999999997" style="visibility: inherit;" fill="rgb(0, 0, 0)" stroke="rgb(204, 204, 204)" stroke-width="1px"></line><line x1="60" y1="50.39999999999998" x2="55" y2="50.39999999999998" style="visibility: inherit;" fill="rgb(0, 0, 0)" stroke="rgb(204, 204, 204)" stroke-width="1px"></line><line x1="60" y1="25.19999999999999" x2="55" y2="25.19999999999999" style="visibility: inherit;" fill="rgb(0, 0, 0)" stroke="rgb(204, 204, 204)" stroke-width="1px"></line><line x1="60" y1="0" x2="55" y2="0" style="visibility: inherit;" fill="rgb(0, 0, 0)" stroke="rgb(204, 204, 204)" stroke-width="1px"></line></g><g transform="translate(50, 0)"><text x="0" y="378" dx="0em" dy="0.3em" style="text-anchor: end; visibility: hidden; font-family: &quot;Helvetica Neue&quot;, sans-serif; font-size: 12px; font-weight: 200;" fill="rgb(50, 49, 63)" stroke="none" stroke-width="1px">-4e-3</text><text x="0" y="352.8" dx="0em" dy="0.3em" style="text-anchor: end; visibility: inherit; font-family: &quot;Helvetica Neue&quot;, sans-serif; font-size: 12px; font-weight: 200;" fill="rgb(50, 49, 63)" stroke="none" stroke-width="1px">-2e-3</text><text x="0" y="327.6" dx="0em" dy="0.3em" style="text-anchor: end; visibility: inherit; font-family: &quot;Helvetica Neue&quot;, sans-serif; font-size: 12px; font-weight: 200;" fill="rgb(50, 49, 63)" stroke="none" stroke-width="1px">0</text><text x="0" y="302.4" dx="0em" dy="0.3em" style="text-anchor: end; visibility: inherit; font-family: &quot;Helvetica Neue&quot;, sans-serif; font-size: 12px; font-weight: 200;" fill="rgb(50, 49, 63)" stroke="none" stroke-width="1px">2e-3</text><text x="0" y="277.2" dx="0em" dy="0.3em" style="text-anchor: end; visibility: inherit; font-family: &quot;Helvetica Neue&quot;, sans-serif; font-size: 12px; font-weight: 200;" fill="rgb(50, 49, 63)" stroke="none" stroke-width="1px">4e-3</text><text x="0" y="252" dx="0em" dy="0.3em" style="text-anchor: end; visibility: inherit; font-family: &quot;Helvetica Neue&quot;, sans-serif; font-size: 12px; font-weight: 200;" fill="rgb(50, 49, 63)" stroke="none" stroke-width="1px">6e-3</text><text x="0" y="226.79999999999998" dx="0em" dy="0.3em" style="text-anchor: end; visibility: inherit; font-family: &quot;Helvetica Neue&quot;, sans-serif; font-size: 12px; font-weight: 200;" fill="rgb(50, 49, 63)" stroke="none" stroke-width="1px">8e-3</text><text x="0" y="201.6" dx="0em" dy="0.3em" style="text-anchor: end; visibility: inherit; font-family: &quot;Helvetica Neue&quot;, sans-serif; font-size: 12px; font-weight: 200;" fill="rgb(50, 49, 63)" stroke="none" stroke-width="1px">0.01</text><text x="0" y="176.4" dx="0em" dy="0.3em" style="text-anchor: end; visibility: inherit; font-family: &quot;Helvetica Neue&quot;, sans-serif; font-size: 12px; font-weight: 200;" fill="rgb(50, 49, 63)" stroke="none" stroke-width="1px">0.012</text><text x="0" y="151.19999999999996" dx="0em" dy="0.3em" style="text-anchor: end; visibility: inherit; font-family: &quot;Helvetica Neue&quot;, sans-serif; font-size: 12px; font-weight: 200;" fill="rgb(50, 49, 63)" stroke="none" stroke-width="1px">0.014</text><text x="0" y="125.99999999999997" dx="0em" dy="0.3em" style="text-anchor: end; visibility: inherit; font-family: &quot;Helvetica Neue&quot;, sans-serif; font-size: 12px; font-weight: 200;" fill="rgb(50, 49, 63)" stroke="none" stroke-width="1px">0.016</text><text x="0" y="100.80000000000001" dx="0em" dy="0.3em" style="text-anchor: end; visibility: inherit; font-family: &quot;Helvetica Neue&quot;, sans-serif; font-size: 12px; font-weight: 200;" fill="rgb(50, 49, 63)" stroke="none" stroke-width="1px">0.018</text><text x="0" y="75.59999999999997" dx="0em" dy="0.3em" style="text-anchor: end; visibility: inherit; font-family: &quot;Helvetica Neue&quot;, sans-serif; font-size: 12px; font-weight: 200;" fill="rgb(50, 49, 63)" stroke="none" stroke-width="1px">0.02</text><text x="0" y="50.39999999999998" dx="0em" dy="0.3em" style="text-anchor: end; visibility: inherit; font-family: &quot;Helvetica Neue&quot;, sans-serif; font-size: 12px; font-weight: 200;" fill="rgb(50, 49, 63)" stroke="none" stroke-width="1px">0.022</text><text x="0" y="25.19999999999999" dx="0em" dy="0.3em" style="text-anchor: end; visibility: inherit; font-family: &quot;Helvetica Neue&quot;, sans-serif; font-size: 12px; font-weight: 200;" fill="rgb(50, 49, 63)" stroke="none" stroke-width="1px">0.024</text><text x="0" y="0" dx="0em" dy="0.3em" style="text-anchor: end; visibility: hidden; font-family: &quot;Helvetica Neue&quot;, sans-serif; font-size: 12px; font-weight: 200;" fill="rgb(50, 49, 63)" stroke="none" stroke-width="1px">0.026</text></g><line x1="60" y1="0" x2="60" y2="378" fill="rgb(0, 0, 0)" stroke="rgb(204, 204, 204)" stroke-width="1px"></line></g></g><g transform="translate(60, 0)" clip-path="url(#clip_0)"><clipPath id="clip_0"><rect width="1438" height="378"></rect></clipPath><g><g><g><line x1="0" y1="0" x2="0" y2="378" fill="rgb(0, 0, 0)" stroke="rgb(60, 60, 60)" stroke-width="1px" opacity="0.25"></line><line x1="179.75" y1="0" x2="179.75" y2="378" fill="rgb(0, 0, 0)" stroke="rgb(60, 60, 60)" stroke-width="1px" opacity="0.25"></line><line x1="359.5" y1="0" x2="359.5" y2="378" fill="rgb(0, 0, 0)" stroke="rgb(60, 60, 60)" stroke-width="1px" opacity="0.25"></line><line x1="539.25" y1="0" x2="539.25" y2="378" fill="rgb(0, 0, 0)" stroke="rgb(60, 60, 60)" stroke-width="1px" opacity="0.25"></line><line x1="719" y1="0" x2="719" y2="378" fill="rgb(0, 0, 0)" stroke="rgb(60, 60, 60)" stroke-width="1px" opacity="0.25"></line><line x1="898.75" y1="0" x2="898.75" y2="378" fill="rgb(0, 0, 0)" stroke="rgb(60, 60, 60)" stroke-width="1px" opacity="0.25"></line><line x1="1078.5" y1="0" x2="1078.5" y2="378" fill="rgb(0, 0, 0)" stroke="rgb(60, 60, 60)" stroke-width="1px" opacity="0.25"></line><line x1="1258.25" y1="0" x2="1258.25" y2="378" fill="rgb(0, 0, 0)" stroke="rgb(60, 60, 60)" stroke-width="1px" opacity="0.25"></line><line x1="1438" y1="0" x2="1438" y2="378" fill="rgb(0, 0, 0)" stroke="rgb(60, 60, 60)" stroke-width="1px" opacity="0.25"></line></g><g><line x1="0" y1="378" x2="1438" y2="378" fill="rgb(0, 0, 0)" stroke="rgb(60, 60, 60)" stroke-width="1px" opacity="0.25"></line><line x1="0" y1="352.8" x2="1438" y2="352.8" fill="rgb(0, 0, 0)" stroke="rgb(60, 60, 60)" stroke-width="1px" opacity="0.25"></line><line x1="0" y1="327.6" x2="1438" y2="327.6" fill="rgb(0, 0, 0)" stroke="rgb(60, 60, 60)" stroke-width="1px" opacity="0.25"></line><line x1="0" y1="302.4" x2="1438" y2="302.4" fill="rgb(0, 0, 0)" stroke="rgb(60, 60, 60)" stroke-width="1px" opacity="0.25"></line><line x1="0" y1="277.2" x2="1438" y2="277.2" fill="rgb(0, 0, 0)" stroke="rgb(60, 60, 60)" stroke-width="1px" opacity="0.25"></line><line x1="0" y1="252" x2="1438" y2="252" fill="rgb(0, 0, 0)" stroke="rgb(60, 60, 60)" stroke-width="1px" opacity="0.25"></line><line x1="0" y1="226.79999999999998" x2="1438" y2="226.79999999999998" fill="rgb(0, 0, 0)" stroke="rgb(60, 60, 60)" stroke-width="1px" opacity="0.25"></line><line x1="0" y1="201.6" x2="1438" y2="201.6" fill="rgb(0, 0, 0)" stroke="rgb(60, 60, 60)" stroke-width="1px" opacity="0.25"></line><line x1="0" y1="176.4" x2="1438" y2="176.4" fill="rgb(0, 0, 0)" stroke="rgb(60, 60, 60)" stroke-width="1px" opacity="0.25"></line><line x1="0" y1="151.19999999999996" x2="1438" y2="151.19999999999996" fill="rgb(0, 0, 0)" stroke="rgb(60, 60, 60)" stroke-width="1px" opacity="0.25"></line><line x1="0" y1="125.99999999999997" x2="1438" y2="125.99999999999997" fill="rgb(0, 0, 0)" stroke="rgb(60, 60, 60)" stroke-width="1px" opacity="0.25"></line><line x1="0" y1="100.80000000000001" x2="1438" y2="100.80000000000001" fill="rgb(0, 0, 0)" stroke="rgb(60, 60, 60)" stroke-width="1px" opacity="0.25"></line><line x1="0" y1="75.59999999999997" x2="1438" y2="75.59999999999997" fill="rgb(0, 0, 0)" stroke="rgb(60, 60, 60)" stroke-width="1px" opacity="0.25"></line><line x1="0" y1="50.39999999999998" x2="1438" y2="50.39999999999998" fill="rgb(0, 0, 0)" stroke="rgb(60, 60, 60)" stroke-width="1px" opacity="0.25"></line><line x1="0" y1="25.19999999999999" x2="1438" y2="25.19999999999999" fill="rgb(0, 0, 0)" stroke="rgb(60, 60, 60)" stroke-width="1px" opacity="0.25"></line><line x1="0" y1="0" x2="1438" y2="0" fill="rgb(0, 0, 0)" stroke="rgb(60, 60, 60)" stroke-width="1px" opacity="0.25"></line></g></g></g><g><g><line x1="0" y1="327.6" x2="1438" y2="327.6" fill="rgb(0, 0, 0)" stroke="rgb(153, 153, 153)" stroke-width="1.5px"></line></g></g><g><g><line x1="179.75" y1="0" x2="179.75" y2="378" fill="rgb(0, 0, 0)" stroke="rgb(153, 153, 153)" stroke-width="1.5px"></line></g></g><g><g><g><g><g><path style="fill: none;" stroke="rgb(255, 112, 67)" stroke-width="2px" d="M188.0904,-49.70828063031968L190.13955,13.51803739925731L191.973,9.785854927702474L193.59074999999999,-95.57884235144718L197.25764999999998,-16.540071486826434L198.8035,2.7364191552912303L200.63695,-154.6430065811537L202.68609999999998,-56.577974230743905L204.37575,91.09831929257462L206.31705,176.65957369220382L208.4381,107.52827242036665L210.19965,99.70775061973484L212.1769,111.09226635223303L214.08225000000002,161.87673248861714L216.02355,155.93447192747286L217.9289,205.00599279076368L219.61855,145.8924230004308L221.8115,8.450788097462919L223.4652,20.273068607626442L225.58624999999998,58.563870474691726L227.5635,-23.237779628112833L229.54074999999997,36.366393226589025L231.41015000000002,12.55287168785162L232.99195,75.59453458501605L235.07705,142.38534099552007L236.9105,154.85699747826223L238.708,174.65251760672487L240.82905000000002,149.09901889664715L242.55464999999998,160.02133536483794L244.5319,173.06260997158458L246.58104999999998,180.13372292009132L248.4864,207.63485236438984L250.4277,231.3573851619066L252.2971,238.79328126513576L254.2384,228.55470620517514L256.32349999999997,209.95500364174828L258.3367,215.74279755217623L260.278,225.01194752073155L262.1474,-163.0682562543186L263.873,30.008562316566554L265.7424,-286.71965517585795L269.4812,-14.429279149053343L271.02705000000003,86.90331059486681L273.18405,125.9620258164552L274.9456,140.66985643460785L276.85095,186.82236983900847L278.57655,236.68226372445366L280.51785,177.2040737726836L282.53105,100.36901445379101L284.47235,144.21328057402874L286.16200000000003,166.2548295167368L288.35495000000003,131.95355586095243L290.15245,195.23128420954214L291.91400000000004,74.2724516823593L293.89125,110.91043493000905L295.7966,149.28479559569516L297.84575,122.2801158651647L299.64325,166.29541431158412L301.58455,111.91750726514829L303.4899,84.82414548286067L305.5031,152.25782602183978L307.19275,193.03454875530576L308.95430000000005,174.54831922639477L310.93155,124.30320707553065L312.80095,179.6858421653118L314.8501,95.7963702875141L316.9352,119.55394558237572L318.5889,-111.61014522000204L322.6153,-11.0866606485273L324.44874999999996,77.54246275952903L326.3541,165.72959352050094L328.33135,136.90580472298782L330.2367,168.57036332099628L332.21395,220.90183409651513L334.0474,244.66440245285867L335.95275,249.59871619150184L338.00190000000003,180.03588167193615L339.8713,234.2017189367523L341.8126,163.20563705825268L343.68199999999996,204.050992382845L345.51545,113.86423135833786L347.4927,75.03217233083745L349.43399999999997,108.97774208642306L351.33934999999997,172.3722588596181L353.2447,194.97589498564219L355.07815,153.68788466575512L357.05539999999996,173.75063089801532L358.74505,140.07537698551212L360.90205000000003,189.30437259944796L362.5917,187.99290255887817L364.35325,227.77450162222092L366.36645,263.51931551609255L368.128,271.6432704756487L370.2131,165.17686837135724L372.04654999999997,218.1698762192963L373.98785,235.06001796303025L375.56964999999997,224.9370563768019L377.475,196.70586725370106L379.45225000000005,132.5772990983487L381.39355,199.93068573053247L382.97535,233.02652524680238L384.84475,262.2052325888445L386.53439999999995,178.09376515292945L388.43975,203.6366387083758L390.23724999999996,247.98917306115504L392.17855,278.7223637159185L393.94010000000003,203.58514351818064L395.77355,196.58644912882502L397.57105,191.29425176765835L399.22475000000003,173.68774628750276L401.0582,215.88583854965444L402.74785,241.36533090193316L404.79699999999997,177.20327419113664L406.3788,233.754363130981L408.21225,223.35484262433903L410.08165,216.12231199459586L411.73535,233.24625059018345L413.7126,218.494794282018L415.47415,199.91534857553177L417.2357,49.55372425914959L419.1051,138.06775232792592L420.79475,155.10786148631985L422.73605,204.79980919733296L424.4257,247.4775154296288L426.40295,250.7910807307797L427.8769,267.2504362622641L429.6025,33.90718441007982L431.3281,150.7100870663487L433.30535000000003,169.21691433158895L435.03094999999996,201.2784243417822L437.11605,216.31304609376446L438.80569999999994,234.62361084072742L440.63915000000003,245.80220104336115L442.3288,262.15769483881814L444.342,199.62148312114252L446.2833,234.12754183132992L448.0808,257.2665517644259L449.62665,272.4271785508795L451.63984999999997,268.0112962234738L453.50925,207.67874234609138L455.127,193.15634584481916L456.88854999999995,241.95650968674062L458.6501,129.9036781497195L460.5195,188.6587866483566L462.35295,215.91617058089L464.07854999999995,173.9791200266517L465.87605,210.3387195450805L467.81735,68.06418140070087L469.75865,149.64728562972817L471.55615000000006,193.14271419699114L473.1739,217.71692454579545L475.0433,240.1579050193016L477.09245,216.0086458241811L478.96185,207.764536884777L481.0829,232.61268963596356L482.6647,251.73333072114664L484.57005000000004,241.2669763258021L486.43944999999997,251.97032343184478L488.38075000000003,226.02703584572984L490.39395,218.13340282285995L492.1555,230.51254323717825L494.09680000000003,254.1255175463669L495.78645,263.33339625789597L497.79965000000004,268.45130144413633L499.705,286.3615187328686L501.53845,297.0480575464147L503.2281,254.42321905147895L505.06155,218.66264130206028L507.07475000000005,139.3493906076617L508.9801,185.23595162069003L510.5619,174.66295912405968L512.5751,194.3816139605112L514.40855,214.2824633536617L516.13415,240.16587949218632L517.7878499999999,244.58727035863566L519.72915,252.97876180913073L521.5626000000001,263.25135491777075L523.6477,214.3708515697039L525.4452,254.18230764855844L527.2427,274.52952772641123L529.14805,220.8921909729477L530.94555,222.56980642913797L532.74305,217.08501749717604L534.75625,243.5358271815384L536.5537499999999,276.14284507284157L538.4591,277.7793332457518L540.22065,224.02261907815787L542.09005,242.2933171994081L544.0313500000001,228.52633188346573L546.04455,233.74298739629714L547.8061,227.15284600614146L549.49575,250.66894175057791L551.473,270.21230036226024L553.1267,245.07824656729164L555.03205,259.1054487713531L556.97335,226.4257911967251L558.62705,258.13555886139056L560.42455,270.74651083314166L562.3299000000001,150.9842068395838L564.1993,210.7150389861658L566.10465,231.06238126764268L567.97405,244.49622356241684L569.6637,265.5161092862233L571.4971499999999,279.87480067534716L573.3306,273.9759828878848L575.23595,292.6018938570266L576.9975,284.59141193563016L578.97475,289.95496033212106L580.8081999999999,245.57124000776147L582.7495,276.25072885554783L584.6189,287.4814336249337L586.30855,225.5968413882914L588.5015,226.4263079627432L590.11925,264.17251298675404L592.0965,287.3889251230253L593.71425,295.29717833954646L595.58365,274.37463822995755L597.4171,278.97358047252976L599.5022,277.2747484814291L601.33565,291.27801825955L603.0972,296.74305764700165L605.0744500000001,307.85083229727786L606.9078999999999,249.3947552251055L608.7054,257.91277758760657L610.53885,228.00708945920113L612.3723,224.96715572613502L614.0979,196.17033702753798L616.1111,204.51862662448178L617.80075,230.0434127945524L619.9937,214.5485146426452L621.89905,189.11778744896012L623.5168,227.80514080518338L625.49405,243.43829968925627L627.43535,135.8858969256658L629.2687999999999,166.2395813217985L631.24605,228.21429498366876L633.1514000000001,253.74739465503313L635.0208,187.38513615005263L636.85425,242.0362269157614L639.01125,262.0079455287424L640.66495,272.81801836348575L642.46245,256.70828272734286L644.4397,282.63088896954326L646.4529,292.31632987176937L648.2144499999999,283.2579427863095L650.08385,291.2159641057958L652.0611,290.92076642726124L653.46315,260.28826248535074L655.18875,281.71918012485537L656.7346,282.01078225931906L658.4961500000001,283.97660119033685L660.29365,254.08723538575663L662.37875,241.08643699799833L664.4279,201.13764779576573L666.4051499999999,209.43174048190662L667.98695,229.78264599487395L669.56875,212.0906756421638L671.6898,249.82188671585695L673.6311,229.01386962030395L675.75215,266.3401181641053L677.83725,203.18933813469596L679.8864,100.40544351993191L682.00745,178.70763694470043L684.1285,218.36145770773243L686.2136,220.70948406234353L688.2268,256.46357685483974L690.27595,265.7006123829334L692.3969999999999,273.74314569285207L694.4821,263.3219452530187L696.5672,285.68646138914175L698.7242,268.506313621448L700.70145,277.9620026266256L702.78655,273.3604429278182L704.9076,274.9460901843552L706.9927,266.2353412459519L709.11375,278.2640916580097L711.12695,296.3256512957669L713.248,259.5258050869618L715.36905,281.8612264650368L717.45415,260.1899943022313L719.5751999999999,262.0735499059189L721.5884,226.91461369008L723.7094500000001,217.96102946108684L725.86645,239.09411335144105L727.95155,176.17453098627124L730.0726000000001,216.03228483636497L732.12175,230.3761330943663L734.20685,246.80012009092323L736.36385,235.23387745289892L738.44895,224.01390362780626L740.6059499999999,204.61395478487813L742.69105,207.06272687101844L744.6683,216.5205694704323L746.78935,236.44997508728915L748.9104000000001,242.16590115609415L751.0314500000001,271.5397196986982L753.1525,200.18221483342106L755.20165,234.67504405371696L757.28675,252.38651667411537L759.4078000000001,260.43176468178876L761.52885,267.5024076543167L763.6139499999999,246.97239578556506L765.6631,262.2263040896743L767.7482000000001,279.8402627179169L769.8692500000001,201.26653817350527L771.9903,216.33953420641933L774.0394499999999,255.6101775301869L776.12455,264.794151940845L778.2096499999999,270.41313386583477L780.3307,292.0846425184091L782.4158,253.05010131469248L784.5009,262.9920109607034L786.5141000000001,269.7919021032603L788.6711,268.56613734348724L790.7562,219.4791460060126L792.8772499999999,250.36596677679103L794.9264,259.40653223322795L797.0474499999999,276.6524780760823L799.0966,288.2408420099687L801.14575,300.31248550173615L803.2668,267.29804742012607L805.31595,211.10214748426785L807.437,211.91966864373987L809.5220999999999,237.62677828554337L811.6431499999999,258.65402481099386L813.72825,267.8305060493375L815.8133499999999,282.2699162083819L817.89845,300.1934147451274L819.9835499999999,275.6158902474613L822.1046,291.5966988239212L824.1897,285.55543118855496L826.2748,288.8193645509549L828.3598999999999,289.6501723459344L830.40905,278.89005501097324L832.5301,271.739050741052L834.6152000000001,283.00087304208L836.7003,270.3288543459375L838.8213499999999,279.36991749713417L840.9424,280.34746843150015L842.9556000000001,255.0707645354912L845.1126,260.79261857439553L847.1257999999999,275.38988186907454L849.24685,276.72769218544175L851.33195,249.20757702744012L853.3811000000001,275.3637224009246L855.4662,278.0360456830627L857.4794,280.6880281443218L859.5645,297.334000741363L861.68555,280.9868690678003L863.7347,264.55331352046267L865.8198,248.78669174367866L867.8689499999999,247.9274626121204L869.95405,271.1106050963122L872.11105,257.3425765243124L874.1242500000001,270.6654696753294L876.2452999999999,289.6647281234739L878.2585,285.01073916556106L880.3435999999999,285.64836004347603L882.32085,296.21372342889606L884.4059500000001,302.839201558367L886.4551000000001,300.7422402249191L888.4323499999999,301.8438751071044L890.51745,296.14269296582626L892.60255,257.11827952656796L894.6876500000001,264.5089351036766L896.70085,280.4728756495487L898.7859500000001,200.29792441655226L900.87105,234.49619364070313L902.9921,259.0192268653358L905.11315,277.2220242211905L907.12635,289.7652736688964L909.1036,262.5664983555861L911.1887,283.92100165722144L913.3097500000001,291.8195139633111L915.39485,287.3573929239209L917.5159,280.24766764395804L919.49315,287.0971894391082L921.5782499999999,272.60125291453016L923.66335,284.07883671525843L925.7484499999999,254.0096899062617L927.8695,236.4067027616634L929.84675,270.7471375022462L931.9318499999999,277.3518104810494L934.0528999999999,278.55775434741247L936.17395,293.7759239108868L938.25905,282.9742627305691L940.27225,275.5169982673469L942.3573500000001,286.1811816641237L944.4064999999999,293.6406532243517L946.5275499999999,279.9819295603411L948.61265,290.22244286430634L950.6258499999999,287.3548401119873L952.71095,300.7138878770212L954.832,283.3855486844503L956.9530500000001,288.17725293409967L959.03815,298.895601394979L961.1232500000001,261.6363571895408L963.13645,285.3818914974181L965.2575,287.48410428386615L967.3426,290.20349686948475L969.4636499999999,296.73041549776804L971.5128,292.51076305347567L973.5979000000001,296.4080445406609L975.683,302.48285791182656L977.80405,310.57374626095077L979.88915,289.64585734066355L981.9382999999999,268.145173976165L984.0234,281.65870973667023L986.1084999999999,265.6610188072951L988.22955,260.24555395996754L990.31465,286.5875584947221L992.3638000000001,294.0657435108514L994.377,295.6743760266478L996.4621,294.27923222250195L998.5472,283.5266419873622L1000.6682500000001,258.027291343569L1002.7174,273.37862916884376L1004.8384500000001,286.50682017466454L1006.8876,272.0867147172155L1009.0086500000001,289.2426320583917L1011.1297000000001,251.92889643080812L1013.1788499999999,257.99533642839066L1015.2999,270.16346872693697L1017.385,274.5597651883745L1019.4701,267.06197308300636L1021.6271,243.33603370606127L1023.7121999999999,264.78744341325296L1025.8692,264.268555990109L1027.9183500000001,272.87026678934643L1030.0394000000001,218.35465725848047L1032.16045,217.6125593065558L1034.2814999999998,200.97322891469827L1036.40255,225.90562717149274L1038.48765,247.6739854733921L1040.6087,271.4429257611649L1042.6938,283.0156289489696L1044.74295,298.54683216974536L1046.864,290.38660933354737L1048.98505,281.10304653602384L1051.07015,299.1899731533493L1053.1912,299.9971840481022L1055.2044,291.54020556599255L1057.2894999999999,295.4875393148682L1059.41055,289.93010898762475L1061.3878,288.4565831637891L1063.4729,303.5671727686345L1065.52205,307.8495377991628L1067.60715,314.39717689517704L1069.6922499999998,312.9364281006966L1071.7413999999999,310.7063964287677L1073.79055,305.2099168625616L1075.8397,284.11066755456585L1077.96075,280.5448116880825L1080.0818,238.7653247512681L1082.13095,237.78860531820672L1084.21605,272.6020131690264L1086.30115,285.37413564014196L1088.38625,290.1719683518276L1090.5073,289.6926247701207L1092.55645,292.2857954250371L1094.64155,302.4378232819421L1096.6907,296.0061332093228L1098.81175,302.30212703289385L1100.8609,281.30789069886083L1102.946,254.50983034047533L1104.9592,249.0890383072081L1106.9724,238.88117635174888L1109.0575,260.8696653377968L1111.17855,254.3671136988376L1113.2636499999999,263.46112746198025L1115.3128,282.7813752269688L1117.29005,298.42946176614646L1119.3392,301.77683068833517L1121.46025,300.9019604991184L1123.54535,300.3698262608234L1125.5945,297.20326199315093L1127.6077,305.42010152314367L1129.65685,280.1295096747533L1131.7779,294.01826303601L1133.82705,217.8803486394866L1135.9121499999999,258.3609625269761L1137.8894,269.14810187129916L1139.93855,274.9722916955277L1142.09555,276.9590995253339L1144.18065,289.6834444772431L1146.26575,291.8741575538354L1148.243,289.1692140541516L1150.3281000000002,291.4418244574691L1152.4491500000001,270.3596765982643L1154.53425,283.5408122175953L1156.61935,300.33785546928397L1158.63255,295.534689115046L1160.7536,300.0683415162912L1162.8387,303.50294343528753L1164.95975,304.4372923868752L1167.04485,303.17794331314303L1169.05805,309.7113115915411L1171.21505,304.52295496128517L1173.2641999999998,306.3575594899804L1175.38525,306.57087530078L1177.5063,296.6266925031334L1179.5914,304.8061201443905L1181.6765,305.7911835080763L1183.7616,300.34389177598837L1185.88265,269.7204696448939L1188.0037,280.1335067534326L1190.0169,297.021395401031L1192.0660500000001,300.0011867246748L1194.1871,285.01129947463994L1196.2721999999999,288.27566514915424L1198.39325,290.9598001318049L1200.4064500000002,279.29032448630755L1202.49155,257.1506309515311L1204.6126,273.1248395977064L1206.73365,271.62656564877295L1208.81875,269.5551792205326L1210.90385,280.83761487146927L1212.953,268.1333783277316L1215.0381,287.3685443582948L1217.1951000000001,265.52502647476285L1219.2802,248.1441136112028L1221.32935,278.51750182240613L1223.2347,288.83956235888246L1225.4636,297.2378694501826L1227.58465,300.33530066734903L1229.66975,302.8173629353276L1231.6470000000002,288.97399562149235L1233.7321,300.6202509210198L1235.8172000000002,294.18601519439756L1237.9023,302.69335359990083L1239.9874,308.83138959871667L1242.03655,302.27559414009414L1244.12165,306.5170415104935L1246.1708,302.05125410118757L1248.2199500000002,273.4837952712718L1250.3410000000001,290.95526837592087L1252.3542,294.89775545707204L1254.4393,278.90804987377436L1256.3087,294.332671632813L1258.25,298.2204806134531L1260.37105,278.9528106728452L1262.45615,266.87442602779015L1264.54125,263.8798850832316L1266.69825,277.4709492108484L1268.6755,294.8399325316405L1270.7606,272.9995792207274L1272.8097500000001,286.5296160831841L1274.89485,272.8296500247593L1277.0518499999998,283.9113123270497L1279.1009999999999,277.5495181123987L1281.2220499999999,269.92708000722973L1283.1993,280.86017824461135L1285.3563000000001,274.4528011450176L1287.4773500000001,286.5031351139548L1289.56245,261.8554741370918L1291.6475500000001,285.7874001111532L1293.6967,296.7197708225814L1295.81775,295.3769974605183L1297.9388,290.90361126652L1299.98795,285.85515145087624L1302.109,252.18938496723405L1304.1941000000002,274.3256835936137L1306.3510999999999,287.5875308551566L1308.47215,280.4303749846325L1310.55725,294.39092796441355L1312.64235,286.00077472058797L1314.7274499999999,295.5971391082726L1316.81255,287.4187875223709L1319.0055,264.4986207379432L1321.12655,260.1185958301146L1323.1757,228.33083393306248L1325.2608,254.51844662297196L1327.38185,266.89716790627494L1329.5029,255.75487623906764L1331.62395,283.1216380864926L1333.745,289.1432176834671L1335.8301000000001,299.358943699454L1337.9511499999999,297.9147758335797L1340.0003,304.2320823734807L1342.12135,297.9458823661987L1344.2423999999999,303.166159957706L1346.21965,302.5870781185085L1348.30475,303.97723123770083L1350.4258,242.46517063224982L1352.5109,263.82860610228585L1354.4522,271.0041431717086L1356.57325,288.3784351287489L1358.6224,297.5472985295627L1360.7794000000001,272.05821443964084L1362.82855,284.249848761523L1364.9855499999999,292.7777817710425L1366.99875,302.62193006208895L1369.08385,286.54146548111055L1371.24085,292.3539403968979L1373.32595,288.04336766355806L1375.4470000000001,296.9848362530236L1377.49615,281.80763401478316L1379.6172000000001,278.87954778545964L1381.5225500000001,290.05487477987333L1383.356,302.86663295999136L1385.5489499999999,299.79102812603094L1387.3824,273.34890264299503L1389.43155,278.90343958915463L1391.4088,258.81212750781293L1393.45795,243.45359099572133L1395.47115,240.7458568457677L1397.62815,270.27557991162917L1399.64135,281.615100848621" fill="none"></path></g></g></g></g><g opacity="0.2"><g><g><g><path style="fill: none;" stroke="rgb(255, 112, 67)" stroke-width="2px" d="M179.75,-1247.6564728260041L179.75,228.52280823737382L179.78594999999999,174.9984807729721L180.72065,-857.0021711826325L182.4822,-50.765455940365825L184.38755,161.73944821804764L186.54455000000002,-280.34339329004297L188.0904,120.48577772676947L190.13955,106.76457541286942L191.973,4.243998920917477L193.59074999999999,-252.67023822069177L195.24445,-272.7669776022435L197.25764999999998,208.07289066016673L198.8035,31.61339046657082L200.63695,-390.52715157866487L202.68609999999998,90.45041123628613L204.37575,312.55026791933926L206.31705,304.9797312984243L208.4381,3.841851970553421L210.19965,87.97768274545666L212.1769,128.16841559708118L214.08225000000002,238.0517606087029L216.02355,147.0211984053254L217.9289,278.6126927867532L219.61855,57.22248846888539L221.8115,-197.71107813119897L223.4652,38.00645912289616L225.58624999999998,116.00001448988917L227.5635,-145.94017943143854L229.54074999999997,125.77261956632134L231.41015000000002,-23.167402723431678L232.99195,170.15701638758182L235.07705,242.5715426377952L236.9105,173.56448130905628L238.708,204.34579694867134L240.82905000000002,110.7687714904547L242.55464999999998,176.40480989813804L244.5319,192.62452176064252L246.58104999999998,190.7403923034668L248.4864,248.8865464389324L250.4277,266.9411843106151L252.2971,249.94712541103362L254.2384,213.19684362262487L256.32349999999997,182.05544980466365L258.3367,224.42448841631412L260.278,238.91567247211933L262.1474,-745.1885618805886L263.873,319.6237901620567L265.7424,-761.8119814038278L267.64775000000003,-58.91658855378631L269.4812,257.3244449146092L271.02705000000003,238.9021952100098L273.18405,184.55009864866733L274.9456,162.7316023617983L276.85095,256.0511399455369L278.57655,311.4721045525745L280.51785,87.98678884506228L282.53105,-14.883574524521862L284.47235,209.9796797543764L286.16200000000003,199.31715293079614L288.35495000000003,80.50164537727835L290.15245,290.1478767324239L291.91400000000004,-107.16579710841188L293.89125,165.86740980148315L295.7966,206.84633659422397L297.84575,81.77309626936909L299.64325,232.3183619812131L301.58455,30.350646695494618L303.4899,44.184102809429135L305.5031,253.40834683030843L307.19275,254.19963285550477L308.95430000000005,146.81897493302824L310.93155,48.93553884923455L312.80095,262.7597947999835L314.8501,-30.037837529182468L316.9352,155.19030852466824L318.5889,-458.3562814235688L320.7459,-282.5961202919484L322.6153,242.2901512518525L324.44874999999996,210.4861478716135L326.3541,298.01028966195884L328.33135,93.67012152671816L330.2367,216.067201218009L332.21395,299.3990402597934L334.0474,280.30825498737397L335.95275,257.00018679946663L338.00190000000003,75.69162989258763L339.8713,315.4504748339765L341.8126,56.71151424050328L343.68199999999996,265.3190253697336L345.51545,-21.41591017842302L347.4927,16.784083789586987L349.43399999999997,159.89609671980145L351.33934999999997,267.46403401941063L353.2447,228.88134917467832L355.07815,91.75586918592455L357.05539999999996,203.8447502464056L358.74505,89.56249611675736L360.90205000000003,263.14786602035167L362.5917,186.02569749802353L364.35325,287.4469002172351L366.36645,317.1365363568999L368.128,283.82920291498306L370.2131,5.47726521492001L372.04654999999997,297.6593879912049L373.98785,260.3952305786312L375.56964999999997,209.7526139974594L377.475,154.35908356904983L379.45225000000005,36.38444686532017L381.39355,300.9607656788081L382.97535,282.67028452120724L384.84475,305.9732936019078L386.53439999999995,51.92656399905684L388.43975,241.95094904154539L390.23724999999996,314.5179745903239L392.17855,324.82214969806375L393.94010000000003,90.8793132215738L395.77355,186.0884075447917L397.57105,183.35595572590827L399.22475000000003,147.27798806726932L401.0582,279.18297694288196L402.74785,279.5845694303513L404.79699999999997,80.96018912494179L406.3788,318.5809965407476L408.21225,207.75556186437606L410.08165,205.2735160499811L411.73535,258.9321584835649L413.7126,196.36760981976985L415.47415,172.04618001580238L417.2357,-175.98871221542367L419.1051,270.8387944310904L420.79475,180.6680252239108L422.73605,279.3377307638526L424.4257,311.49407477807256L426.40295,255.76142868250608L427.8769,291.9394695594907L429.6025,-316.1076933681966L431.3281,325.9144410507521L433.30535000000003,196.97715522944927L435.03094999999996,249.3706893570721L437.11605,238.86497872173786L438.80569999999994,262.0894579611719L440.63915000000003,262.57008634731176L442.3288,286.69093553200366L444.342,105.81716554462906L446.2833,285.886629896611L448.0808,291.9750666640699L449.62665,295.16811873055997L451.63984999999997,261.38747273236515L453.50925,117.17991153001788L455.127,171.37275109291076L456.88854999999995,315.1567554496229L458.6501,-38.175569155812354L460.5195,276.79144939631226L462.35295,256.8022464796901L464.07854999999995,111.07354419529435L465.87605,264.87811882272365L467.81735,-145.34762581586847L469.75865,272.021941973269L471.55615000000006,258.3858570478857L473.1739,254.5782400690019L475.0433,273.8193757295609L477.09245,179.78475703150033L478.96185,195.3983734756708L481.0829,269.8849187627435L482.6647,280.4142923489213L484.57005000000004,225.56744473278522L486.43944999999997,268.0253440909088L488.38075000000003,187.1121044665575L490.39395,206.29295328855514L492.1555,249.08125385865569L494.09680000000003,289.54497901014986L495.78645,277.1452143251896L497.79965000000004,276.12815922349694L499.705,313.22684466596695L501.53845,313.0778657667339L503.2281,190.48596130907535L505.06155,165.02177467793226L507.07475000000005,20.379514566063847L508.9801,254.06579314023256L510.5619,158.80347037911417L512.5751,223.9595962151885L514.40855,244.1337374433875L516.13415,278.99100369997325L517.7878499999999,251.2193566583097L519.72915,265.5659989848733L521.5626000000001,278.6602445807308L523.6477,141.05009654760357L525.4452,313.89949176684024L527.2427,305.05035784319045L529.14805,140.43618584275245L530.94555,225.08622961342334L532.74305,208.85783409923314L534.75625,283.212041708082L536.5537499999999,325.0533719097963L538.4591,280.2340655051172L540.22065,143.38754782676696L542.09005,269.69936438128354L544.0313500000001,207.8758539095521L546.04455,241.56797066554427L547.8061,217.26763392090797L549.49575,285.9430853672326L551.473,299.52733827978375L553.1267,207.37716587483882L555.03205,280.1462520774454L556.97335,177.40630483478307L558.62705,305.70021035838874L560.42455,289.6629387907684L562.3299000000001,-28.659249150753055L564.1993,300.31128720603886L566.10465,261.583394689858L567.97405,264.64698700457814L569.6637,297.045937871933L571.4971499999999,301.41283775903287L573.3306,265.1277562066913L575.23595,320.5407603107393L576.9975,272.5756890535355L578.97475,298.0002829268575L580.8081999999999,178.9956595212221L582.7495,322.26996212722736L584.6189,304.32749077901246L586.30855,132.76995303332805L588.5015,227.67050782442092L590.11925,320.7918205227703L592.0965,322.21354332743215L593.71425,307.15955816432836L595.58365,242.99082806557416L597.4171,285.871993836388L599.5022,274.7265004947782L601.33565,312.28292292673143L603.0972,304.9406167281792L605.0744500000001,324.51249427269215L606.9078999999999,161.71063961684703L608.7054,270.68981113135817L610.53885,183.14855726659297L612.3723,220.4072551265359L614.0979,152.97510897964239L616.1111,217.04106101989746L617.80075,268.3305920496583L619.9937,191.30616741478443L621.89905,150.97169665843248L623.5168,285.83617083951833L625.49405,266.8880380153656L627.43535,-25.442707219719978L629.2687999999999,211.7701079159975L631.24605,321.1763654764742L633.1514000000001,292.0470441620797L635.0208,87.84174839258196L636.85425,324.0128630643245L639.01125,291.96552344821396L640.66495,289.03312761560085L642.46245,232.5436792731285L644.4397,321.51479833284395L646.4529,306.8444912251085L648.2144499999999,269.6703621581197L650.08385,303.1529960850254L652.0611,290.4779699094594L653.46315,214.33950657248496L655.18875,313.86555658411237L656.7346,282.44818546101453L658.4961500000001,286.92532958686354L660.29365,209.2531866788864L662.37875,221.58523941636085L664.4279,141.21446399241682L666.4051499999999,221.87287951111793L667.98695,260.3090042643249L669.56875,185.55272011309862L671.6898,306.41870332639667L673.6311,197.80184397697448L675.75215,322.3294909798075L677.83725,108.46316809058186L679.8864,-53.770398402214084L682.00745,296.1609270818532L684.1285,277.8421888522804L686.2136,224.2315235942602L688.2268,310.09471604358407L690.27595,279.5561656750739L692.3969999999999,285.8069456577301L694.4821,247.69014459326863L696.5672,319.2332355933264L698.7242,242.73609196990728L700.70145,292.14553613439205L702.78655,266.4581033796072L704.9076,277.3245610691607L706.9927,253.16921783834695L709.11375,296.30721727609637L711.12695,323.4179907524027L713.248,204.3260357737541L715.36905,315.36435853214937L717.45415,227.68314605802297L719.5751999999999,264.8988833114505L721.5884,174.1762093663216L723.7094500000001,204.5306531175971L725.86645,270.7937391869724L727.95155,81.79515743851658L730.0726000000001,275.81891561150553L732.12175,251.89190548136833L734.20685,271.4361005857587L736.36385,217.88451349586248L738.44895,207.18394289016723L740.6059499999999,175.5140315204859L742.69105,210.73588500022888L744.6683,230.70733336955308L746.78935,266.34408351257446L748.9104000000001,250.73979025930166L751.0314500000001,315.6004475126043L753.1525,93.14595753550526L755.20165,286.4142878841609L757.28675,278.953725604713L759.4078000000001,272.49963669329884L761.52885,278.10837211310866L763.6139499999999,216.1773779824376L765.6631,285.10716654583814L767.7482000000001,306.2612006602809L769.8692500000001,83.40595135688778L771.9903,238.94902825579047L774.0394499999999,314.51614251583817L776.12455,278.5701135568321L778.2096499999999,278.8416067533195L780.3307,324.59190549727066L782.4158,194.4982895091176L784.5009,277.9048754297197L786.5141000000001,279.9917388170958L788.6711,266.72749020382764L790.7562,145.84865899980068L792.8772499999999,296.6961979329586L794.9264,272.9673804178834L797.0474499999999,302.52139684036376L799.0966,305.6233879107982L801.14575,318.41995073938745L803.2668,217.7763902977109L805.31595,126.80829758048057L807.437,213.14595038294792L809.5220999999999,276.1874427482486L811.6431499999999,290.1948945991695L813.72825,281.595227906853L815.8133499999999,303.92903144694867L817.89845,327.07866255024567L819.9835499999999,238.74960350096225L822.1046,315.56791168861093L824.1897,276.4935297355056L826.2748,293.7152645945549L828.3598999999999,290.89638403840365L830.40905,262.7498790085316L832.5301,261.01254433617L834.6152000000001,299.8936064936221L836.7003,251.32082630172374L838.8213499999999,292.9315122239292L840.9424,281.8137948330492L842.9556000000001,217.15570869147777L845.1126,269.37539963275196L847.1257999999999,297.2857768110931L849.24685,278.7344076599926L851.33195,207.9274042904377L853.3811000000001,314.5979404611513L855.4662,282.04453060626986L857.4794,284.6660018362105L859.5645,322.3029596369248L861.68555,256.4661715574563L863.7347,239.9029801994562L865.8198,225.13675907850265L867.8689499999999,246.638618914783L869.95405,305.88531882259997L872.11105,236.6905336663127L874.1242500000001,290.6498094018549L876.2452999999999,318.1636157956906L878.2585,278.02975572869184L880.3435999999999,286.6047913603485L882.32085,312.06176850702616L884.4059500000001,312.77741875257345L886.4551000000001,297.5967982247472L888.4323499999999,303.4963274303824L890.51745,287.59091975390913L892.60255,198.58165936768054L894.6876500000001,275.59491846933963L896.70085,304.41878646835687L898.7859500000001,80.03549756705758L900.87105,285.79359747692945L902.9921,295.80377670228484L905.11315,304.5262202549726L907.12635,308.5801478404552L909.1036,221.7683353856206L911.1887,315.95275660967457L913.3097500000001,303.66728242244574L915.39485,280.6642113648355L917.5159,269.5830797240138L919.49315,297.37147213183346L921.5782499999999,250.85734812766316L923.66335,301.29521241635086L925.7484499999999,208.90596969276666L927.8695,210.00222204476594L929.84675,322.2577896131203L931.9318499999999,287.2588199492544L934.0528999999999,280.36667014695706L936.17395,316.6031782560982L938.25905,266.77177096009257L940.27225,264.3311015725136L942.3573500000001,302.17745675928893L944.4064999999999,304.82986056469383L946.5275499999999,259.4938440643251L948.61265,305.5832128202543L950.6258499999999,283.05343598350885L952.71095,320.7524595245719L954.832,257.39303989559414L956.9530500000001,295.3648093085736L959.03815,314.97312408629807L961.1232500000001,205.7474908813834L963.13645,321.00019295923414L965.2575,290.6374234635383L967.3426,294.28258574791255L969.4636499999999,306.52079344019296L971.5128,286.1812843870372L973.5979000000001,302.25396677143874L975.683,311.5950779685751L977.80405,322.7100787846372L979.88915,258.25402396023276L981.9382999999999,235.89414892941713L984.0234,301.9290133774281L986.1084999999999,241.66448241323232L988.22955,252.12235668897628L990.31465,326.1005652968539L992.3638000000001,305.2830210350454L994.377,298.08732480034234L996.4621,292.1865165162832L998.5472,267.39775663465264L1000.6682500000001,219.77826537787914L1002.7174,296.40563590675595L1004.8384500000001,306.1991066833958L1006.8876,250.45655653104185L1009.0086500000001,314.976508070156L1011.1297000000001,195.9582929894328L1013.1788499999999,267.0949964247644L1015.2999,288.41566717475655L1017.385,281.15420988053086L1019.4701,255.8152849249542L1021.6271,207.7471246406436L1023.7121999999999,296.96455797404053L1025.8692,263.4902248553932L1027.9183500000001,285.7728329882026L1030.0394000000001,136.58124296218156L1032.16045,216.49941237866878L1034.2814999999998,176.01423332691192L1036.40255,263.3042245566845L1038.48765,280.3265229262412L1040.6087,307.09633619282397L1042.6938,300.3746837306768L1044.74295,321.8436370009091L1046.864,278.14627507925036L1048.98505,267.17770233973863L1051.07015,326.3203630793374L1053.1912,301.20800039023163L1055.2044,278.85473784282806L1057.2894999999999,301.40853993818166L1059.41055,281.59396349675956L1061.3878,286.24629442803564L1063.4729,326.2330571759027L1065.52205,314.27308534495535L1067.60715,324.2186355391983L1069.6922499999998,310.745304908976L1071.7413999999999,307.3613489208743L1073.79055,296.9651975132525L1075.8397,252.4617935925722L1077.96075,275.19602788835766L1080.0818,176.09609434604647L1082.13095,236.32352616861462L1084.21605,324.82212494525595L1086.30115,304.53231934681537L1088.38625,297.36871741935613L1090.5073,288.9736093975604L1092.55645,296.1755514074117L1094.64155,317.6658650672995L1096.6907,286.35859810039403L1098.81175,311.74611776825043L1100.8609,249.81653619781136L1102.946,214.31273980289697L1104.9592,240.95785025730729L1106.9724,223.56938341856002L1109.0575,293.8523988168687L1111.17855,244.61328624039888L1113.2636499999999,277.10214810669424L1115.3128,311.76174687445166L1117.29005,321.9015915749129L1119.3392,306.79788407161834L1121.46025,299.5896552152932L1123.54535,299.5716249033809L1125.5945,292.4534155916423L1127.6077,317.7453608181328L1129.65685,242.1936219021678L1131.7779,314.85139307789507L1133.82705,103.6734770447016L1135.9121499999999,319.08188335821035L1137.8894,285.3288108877838L1139.93855,283.7085764318705L1142.09555,279.9393112700433L1144.18065,308.7699619051069L1146.26575,295.16022716872396L1148.243,285.1117988046259L1150.3281000000002,294.8507400624454L1152.4491500000001,238.73645480945706L1154.53425,303.3125156465918L1156.61935,325.533420346817L1158.63255,288.329939583689L1160.7536,306.8688201181591L1162.8387,308.65484631378206L1164.95975,305.8388158142567L1167.04485,301.28891970254483L1169.05805,319.5113640091382L1171.21505,296.74042001590135L1173.2641999999998,309.1094662830234L1175.38525,306.89084901697936L1177.5063,281.71041830666366L1179.5914,317.07526160627606L1181.6765,307.2687785536051L1183.7616,292.17295417785647L1185.88265,223.7853364482522L1188.0037,295.7530624162406L1190.0169,322.3532283724286L1192.0660500000001,304.4708737101406L1194.1871,262.5264685995877L1196.2721999999999,293.17221366092565L1198.39325,294.986002605781L1200.4064500000002,261.78611101806166L1202.49155,223.94109064936637L1204.6126,297.0861525669694L1206.73365,269.3791547253728L1208.81875,266.448099578172L1210.90385,297.7612683478743L1212.953,249.077023512125L1215.0381,316.2212934041396L1217.1951000000001,232.75974964946508L1219.2802,222.07274431586265L1221.32935,324.0775841392111L1223.2347,304.322653163597L1225.4636,309.8353300871328L1227.58465,304.9814474930987L1229.66975,306.5404563372955L1231.6470000000002,268.20894465073945L1233.7321,318.0896338703111L1235.8172000000002,284.5346616044641L1237.9023,315.4543612081558L1239.9874,318.0384435969405L1242.03655,292.4419009521604L1244.12165,312.87921256609263L1246.1708,295.35257298722865L1248.2199500000002,230.63260702639818L1250.3410000000001,317.16247803289446L1252.3542,300.8114860787988L1254.4393,254.92349149882793L1256.3087,317.46960427137094L1258.25,304.0521940844134L1260.37105,250.05130576193332L1262.45615,248.7568490602076L1264.54125,259.3880736663938L1266.69825,297.85754540227356L1268.6755,320.89340751282873L1270.7606,240.2390492543578L1272.8097500000001,306.8246713768691L1274.89485,252.2797009371221L1277.0518499999998,300.5338057804853L1279.1009999999999,268.0068267904222L1281.2220499999999,258.49342284947636L1283.1993,297.2598256006837L1285.3563000000001,264.84173549562695L1287.4773500000001,304.57863606736066L1289.56245,224.88398267179727L1291.6475500000001,321.6852890722454L1293.6967,313.11832688972356L1295.81775,293.36283741742375L1297.9388,284.19353197552266L1299.98795,278.2824617274106L1302.109,201.69073524177074L1304.1941000000002,307.5301315331832L1306.3510999999999,307.4803017474711L1308.47215,269.6946411788464L1310.55725,315.33175743408503L1312.64235,273.4155448548496L1314.7274499999999,309.9916856897995L1316.81255,275.15126014351847L1319.0055,230.1183705613017L1321.12655,253.54855846837162L1323.1757,180.64919108748435L1325.2608,293.7998656578362L1327.38185,285.46524983122947L1329.5029,239.0414387382567L1331.62395,324.1717808576301L1333.745,298.17558707892897L1335.8301000000001,314.6825327234343L1337.9511499999999,295.74852403476837L1340.0003,313.70804218333217L1342.12135,288.5165823552758L1344.2423999999999,310.9965763449669L1346.21965,301.71845535971227L1348.30475,306.0624609164894L1350.4258,150.19707972407343L1352.5109,295.8737593073398L1354.4522,281.7674487758428L1356.57325,314.4398730643094L1358.6224,311.3005936307833L1360.7794000000001,233.82458830475807L1362.82855,302.5373002443463L1364.9855499999999,305.56968128532174L1366.99875,317.38815249865877L1369.08385,262.420768609643L1371.24085,301.0726527705789L1373.32595,281.57750856354835L1375.4470000000001,310.3970391372219L1377.49615,259.04183065742257L1379.6172000000001,274.48741844147446L1381.5225500000001,306.8178652714938L1383.356,322.0842702301685L1385.5489499999999,295.1776208750904L1387.3824,233.68571441844105L1389.43155,287.23524500839414L1391.4088,228.67515938580036L1393.45795,220.41578622758388L1395.47115,236.6842556208372L1397.62815,314.5701645104215L1399.64135,298.6243822541088" fill="none"></path></g></g></g></g></g></g><g transform="translate(60, 378)" clip-path="url(#clip_1)"><clipPath id="clip_1"><rect width="1438" height="22"></rect></clipPath><g><g><line x1="0" y1="0" x2="0" y2="5" style="visibility: inherit;" fill="rgb(0, 0, 0)" stroke="rgb(204, 204, 204)" stroke-width="1px"></line><line x1="179.75" y1="0" x2="179.75" y2="5" style="visibility: inherit;" fill="rgb(0, 0, 0)" stroke="rgb(204, 204, 204)" stroke-width="1px"></line><line x1="359.5" y1="0" x2="359.5" y2="5" style="visibility: inherit;" fill="rgb(0, 0, 0)" stroke="rgb(204, 204, 204)" stroke-width="1px"></line><line x1="539.25" y1="0" x2="539.25" y2="5" style="visibility: inherit;" fill="rgb(0, 0, 0)" stroke="rgb(204, 204, 204)" stroke-width="1px"></line><line x1="719" y1="0" x2="719" y2="5" style="visibility: inherit;" fill="rgb(0, 0, 0)" stroke="rgb(204, 204, 204)" stroke-width="1px"></line><line x1="898.75" y1="0" x2="898.75" y2="5" style="visibility: inherit;" fill="rgb(0, 0, 0)" stroke="rgb(204, 204, 204)" stroke-width="1px"></line><line x1="1078.5" y1="0" x2="1078.5" y2="5" style="visibility: inherit;" fill="rgb(0, 0, 0)" stroke="rgb(204, 204, 204)" stroke-width="1px"></line><line x1="1258.25" y1="0" x2="1258.25" y2="5" style="visibility: inherit;" fill="rgb(0, 0, 0)" stroke="rgb(204, 204, 204)" stroke-width="1px"></line><line x1="1438" y1="0" x2="1438" y2="5" style="visibility: inherit;" fill="rgb(0, 0, 0)" stroke="rgb(204, 204, 204)" stroke-width="1px"></line></g><g transform="translate(0, 8)"><text x="0" y="0" dx="0em" dy="0.95em" style="text-anchor: middle; visibility: hidden; font-family: &quot;Helvetica Neue&quot;, sans-serif; font-size: 12px; font-weight: 200;" fill="rgb(50, 49, 63)" stroke="none" stroke-width="1px">-5k</text><text x="179.75" y="0" dx="0em" dy="0.95em" style="text-anchor: middle; visibility: inherit; font-family: &quot;Helvetica Neue&quot;, sans-serif; font-size: 12px; font-weight: 200;" fill="rgb(50, 49, 63)" stroke="none" stroke-width="1px">0</text><text x="359.5" y="0" dx="0em" dy="0.95em" style="text-anchor: middle; visibility: inherit; font-family: &quot;Helvetica Neue&quot;, sans-serif; font-size: 12px; font-weight: 200;" fill="rgb(50, 49, 63)" stroke="none" stroke-width="1px">5k</text><text x="539.25" y="0" dx="0em" dy="0.95em" style="text-anchor: middle; visibility: inherit; font-family: &quot;Helvetica Neue&quot;, sans-serif; font-size: 12px; font-weight: 200;" fill="rgb(50, 49, 63)" stroke="none" stroke-width="1px">10k</text><text x="719" y="0" dx="0em" dy="0.95em" style="text-anchor: middle; visibility: inherit; font-family: &quot;Helvetica Neue&quot;, sans-serif; font-size: 12px; font-weight: 200;" fill="rgb(50, 49, 63)" stroke="none" stroke-width="1px">15k</text><text x="898.75" y="0" dx="0em" dy="0.95em" style="text-anchor: middle; visibility: inherit; font-family: &quot;Helvetica Neue&quot;, sans-serif; font-size: 12px; font-weight: 200;" fill="rgb(50, 49, 63)" stroke="none" stroke-width="1px">20k</text><text x="1078.5" y="0" dx="0em" dy="0.95em" style="text-anchor: middle; visibility: inherit; font-family: &quot;Helvetica Neue&quot;, sans-serif; font-size: 12px; font-weight: 200;" fill="rgb(50, 49, 63)" stroke="none" stroke-width="1px">25k</text><text x="1258.25" y="0" dx="0em" dy="0.95em" style="text-anchor: middle; visibility: inherit; font-family: &quot;Helvetica Neue&quot;, sans-serif; font-size: 12px; font-weight: 200;" fill="rgb(50, 49, 63)" stroke="none" stroke-width="1px">30k</text><text x="1438" y="0" dx="0em" dy="0.95em" style="text-anchor: middle; visibility: hidden; font-family: &quot;Helvetica Neue&quot;, sans-serif; font-size: 12px; font-weight: 200;" fill="rgb(50, 49, 63)" stroke="none" stroke-width="1px">35k</text></g><line x1="0" y1="0" x2="1438" y2="0" fill="rgb(0, 0, 0)" stroke="rgb(204, 204, 204)" stroke-width="1px"></line></g></g></g></g></svg>