<svg viewBox="0 0 1498 400" xmlns="http://www.w3.org/2000/svg"><g><g><g><g><g><line x1="60" y1="378" x2="55" y2="378" style="visibility: inherit;" fill="rgb(0, 0, 0)" stroke="rgb(204, 204, 204)" stroke-width="1px"></line><line x1="60" y1="346.5" x2="55" y2="346.5" style="visibility: inherit;" fill="rgb(0, 0, 0)" stroke="rgb(204, 204, 204)" stroke-width="1px"></line><line x1="60" y1="315" x2="55" y2="315" style="visibility: inherit;" fill="rgb(0, 0, 0)" stroke="rgb(204, 204, 204)" stroke-width="1px"></line><line x1="60" y1="283.5" x2="55" y2="283.5" style="visibility: inherit;" fill="rgb(0, 0, 0)" stroke="rgb(204, 204, 204)" stroke-width="1px"></line><line x1="60" y1="252" x2="55" y2="252" style="visibility: inherit;" fill="rgb(0, 0, 0)" stroke="rgb(204, 204, 204)" stroke-width="1px"></line><line x1="60" y1="220.5" x2="55" y2="220.5" style="visibility: inherit;" fill="rgb(0, 0, 0)" stroke="rgb(204, 204, 204)" stroke-width="1px"></line><line x1="60" y1="188.99999999999997" x2="55" y2="188.99999999999997" style="visibility: inherit;" fill="rgb(0, 0, 0)" stroke="rgb(204, 204, 204)" stroke-width="1px"></line><line x1="60" y1="157.50000000000003" x2="55" y2="157.50000000000003" style="visibility: inherit;" fill="rgb(0, 0, 0)" stroke="rgb(204, 204, 204)" stroke-width="1px"></line><line x1="60" y1="125.99999999999997" x2="55" y2="125.99999999999997" style="visibility: inherit;" fill="rgb(0, 0, 0)" stroke="rgb(204, 204, 204)" stroke-width="1px"></line><line x1="60" y1="94.5" x2="55" y2="94.5" style="visibility: inherit;" fill="rgb(0, 0, 0)" stroke="rgb(204, 204, 204)" stroke-width="1px"></line><line x1="60" y1="63" x2="55" y2="63" style="visibility: inherit;" fill="rgb(0, 0, 0)" stroke="rgb(204, 204, 204)" stroke-width="1px"></line><line x1="60" y1="31.5" x2="55" y2="31.5" style="visibility: inherit;" fill="rgb(0, 0, 0)" stroke="rgb(204, 204, 204)" stroke-width="1px"></line><line x1="60" y1="0" x2="55" y2="0" style="visibility: inherit;" fill="rgb(0, 0, 0)" stroke="rgb(204, 204, 204)" stroke-width="1px"></line></g><g transform="translate(50, 0)"><text x="0" y="378" dx="0em" dy="0.3em" style="text-anchor: end; visibility: hidden; font-family: &quot;Helvetica Neue&quot;, sans-serif; font-size: 12px; font-weight: 200;" fill="rgb(50, 49, 63)" stroke="none" stroke-width="1px">-0.02</text><text x="0" y="346.5" dx="0em" dy="0.3em" style="text-anchor: end; visibility: inherit; font-family: &quot;Helvetica Neue&quot;, sans-serif; font-size: 12px; font-weight: 200;" fill="rgb(50, 49, 63)" stroke="none" stroke-width="1px">0</text><text x="0" y="315" dx="0em" dy="0.3em" style="text-anchor: end; visibility: inherit; font-family: &quot;Helvetica Neue&quot;, sans-serif; font-size: 12px; font-weight: 200;" fill="rgb(50, 49, 63)" stroke="none" stroke-width="1px">0.02</text><text x="0" y="283.5" dx="0em" dy="0.3em" style="text-anchor: end; visibility: inherit; font-family: &quot;Helvetica Neue&quot;, sans-serif; font-size: 12px; font-weight: 200;" fill="rgb(50, 49, 63)" stroke="none" stroke-width="1px">0.04</text><text x="0" y="252" dx="0em" dy="0.3em" style="text-anchor: end; visibility: inherit; font-family: &quot;Helvetica Neue&quot;, sans-serif; font-size: 12px; font-weight: 200;" fill="rgb(50, 49, 63)" stroke="none" stroke-width="1px">0.06</text><text x="0" y="220.5" dx="0em" dy="0.3em" style="text-anchor: end; visibility: inherit; font-family: &quot;Helvetica Neue&quot;, sans-serif; font-size: 12px; font-weight: 200;" fill="rgb(50, 49, 63)" stroke="none" stroke-width="1px">0.08</text><text x="0" y="188.99999999999997" dx="0em" dy="0.3em" style="text-anchor: end; visibility: inherit; font-family: &quot;Helvetica Neue&quot;, sans-serif; font-size: 12px; font-weight: 200;" fill="rgb(50, 49, 63)" stroke="none" stroke-width="1px">0.1</text><text x="0" y="157.50000000000003" dx="0em" dy="0.3em" style="text-anchor: end; visibility: inherit; font-family: &quot;Helvetica Neue&quot;, sans-serif; font-size: 12px; font-weight: 200;" fill="rgb(50, 49, 63)" stroke="none" stroke-width="1px">0.12</text><text x="0" y="125.99999999999997" dx="0em" dy="0.3em" style="text-anchor: end; visibility: inherit; font-family: &quot;Helvetica Neue&quot;, sans-serif; font-size: 12px; font-weight: 200;" fill="rgb(50, 49, 63)" stroke="none" stroke-width="1px">0.14</text><text x="0" y="94.5" dx="0em" dy="0.3em" style="text-anchor: end; visibility: inherit; font-family: &quot;Helvetica Neue&quot;, sans-serif; font-size: 12px; font-weight: 200;" fill="rgb(50, 49, 63)" stroke="none" stroke-width="1px">0.16</text><text x="0" y="63" dx="0em" dy="0.3em" style="text-anchor: end; visibility: inherit; font-family: &quot;Helvetica Neue&quot;, sans-serif; font-size: 12px; font-weight: 200;" fill="rgb(50, 49, 63)" stroke="none" stroke-width="1px">0.18</text><text x="0" y="31.5" dx="0em" dy="0.3em" style="text-anchor: end; visibility: inherit; font-family: &quot;Helvetica Neue&quot;, sans-serif; font-size: 12px; font-weight: 200;" fill="rgb(50, 49, 63)" stroke="none" stroke-width="1px">0.2</text><text x="0" y="0" dx="0em" dy="0.3em" style="text-anchor: end; visibility: hidden; font-family: &quot;Helvetica Neue&quot;, sans-serif; font-size: 12px; font-weight: 200;" fill="rgb(50, 49, 63)" stroke="none" stroke-width="1px">0.22</text></g><line x1="60" y1="0" x2="60" y2="378" fill="rgb(0, 0, 0)" stroke="rgb(204, 204, 204)" stroke-width="1px"></line></g></g><g transform="translate(60, 0)" clip-path="url(#clip_0)"><clipPath id="clip_0"><rect width="1438" height="378"></rect></clipPath><g><g><g><line x1="0" y1="0" x2="0" y2="378" fill="rgb(0, 0, 0)" stroke="rgb(60, 60, 60)" stroke-width="1px" opacity="0.25"></line><line x1="179.75" y1="0" x2="179.75" y2="378" fill="rgb(0, 0, 0)" stroke="rgb(60, 60, 60)" stroke-width="1px" opacity="0.25"></line><line x1="359.5" y1="0" x2="359.5" y2="378" fill="rgb(0, 0, 0)" stroke="rgb(60, 60, 60)" stroke-width="1px" opacity="0.25"></line><line x1="539.25" y1="0" x2="539.25" y2="378" fill="rgb(0, 0, 0)" stroke="rgb(60, 60, 60)" stroke-width="1px" opacity="0.25"></line><line x1="719" y1="0" x2="719" y2="378" fill="rgb(0, 0, 0)" stroke="rgb(60, 60, 60)" stroke-width="1px" opacity="0.25"></line><line x1="898.75" y1="0" x2="898.75" y2="378" fill="rgb(0, 0, 0)" stroke="rgb(60, 60, 60)" stroke-width="1px" opacity="0.25"></line><line x1="1078.5" y1="0" x2="1078.5" y2="378" fill="rgb(0, 0, 0)" stroke="rgb(60, 60, 60)" stroke-width="1px" opacity="0.25"></line><line x1="1258.25" y1="0" x2="1258.25" y2="378" fill="rgb(0, 0, 0)" stroke="rgb(60, 60, 60)" stroke-width="1px" opacity="0.25"></line><line x1="1438" y1="0" x2="1438" y2="378" fill="rgb(0, 0, 0)" stroke="rgb(60, 60, 60)" stroke-width="1px" opacity="0.25"></line></g><g><line x1="0" y1="378" x2="1438" y2="378" fill="rgb(0, 0, 0)" stroke="rgb(60, 60, 60)" stroke-width="1px" opacity="0.25"></line><line x1="0" y1="346.5" x2="1438" y2="346.5" fill="rgb(0, 0, 0)" stroke="rgb(60, 60, 60)" stroke-width="1px" opacity="0.25"></line><line x1="0" y1="315" x2="1438" y2="315" fill="rgb(0, 0, 0)" stroke="rgb(60, 60, 60)" stroke-width="1px" opacity="0.25"></line><line x1="0" y1="283.5" x2="1438" y2="283.5" fill="rgb(0, 0, 0)" stroke="rgb(60, 60, 60)" stroke-width="1px" opacity="0.25"></line><line x1="0" y1="252" x2="1438" y2="252" fill="rgb(0, 0, 0)" stroke="rgb(60, 60, 60)" stroke-width="1px" opacity="0.25"></line><line x1="0" y1="220.5" x2="1438" y2="220.5" fill="rgb(0, 0, 0)" stroke="rgb(60, 60, 60)" stroke-width="1px" opacity="0.25"></line><line x1="0" y1="188.99999999999997" x2="1438" y2="188.99999999999997" fill="rgb(0, 0, 0)" stroke="rgb(60, 60, 60)" stroke-width="1px" opacity="0.25"></line><line x1="0" y1="157.50000000000003" x2="1438" y2="157.50000000000003" fill="rgb(0, 0, 0)" stroke="rgb(60, 60, 60)" stroke-width="1px" opacity="0.25"></line><line x1="0" y1="125.99999999999997" x2="1438" y2="125.99999999999997" fill="rgb(0, 0, 0)" stroke="rgb(60, 60, 60)" stroke-width="1px" opacity="0.25"></line><line x1="0" y1="94.5" x2="1438" y2="94.5" fill="rgb(0, 0, 0)" stroke="rgb(60, 60, 60)" stroke-width="1px" opacity="0.25"></line><line x1="0" y1="63" x2="1438" y2="63" fill="rgb(0, 0, 0)" stroke="rgb(60, 60, 60)" stroke-width="1px" opacity="0.25"></line><line x1="0" y1="31.5" x2="1438" y2="31.5" fill="rgb(0, 0, 0)" stroke="rgb(60, 60, 60)" stroke-width="1px" opacity="0.25"></line><line x1="0" y1="0" x2="1438" y2="0" fill="rgb(0, 0, 0)" stroke="rgb(60, 60, 60)" stroke-width="1px" opacity="0.25"></line></g></g></g><g><g><line x1="0" y1="346.5" x2="1438" y2="346.5" fill="rgb(0, 0, 0)" stroke="rgb(153, 153, 153)" stroke-width="1.5px"></line></g></g><g><g><line x1="179.75" y1="0" x2="179.75" y2="378" fill="rgb(0, 0, 0)" stroke="rgb(153, 153, 153)" stroke-width="1.5px"></line></g></g><g><g><g><g><g><path style="fill: none;" stroke="rgb(255, 112, 67)" stroke-width="2px" d="M212.1769,-16.50659889902215L214.08225000000002,21.694446995090914L216.02355,75.06643805209865L217.9289,114.03139330574874L219.61855,96.23885921792282L221.8115,85.75441180244832L223.4652,122.86661483186788L225.58624999999998,124.616411618091L227.5635,-119.17531231189929L232.99195,-45.55988639705379L235.07705,65.3261760428262L236.9105,121.6257785539151L238.708,85.38274389072575L240.82905000000002,53.835878181298426L242.55464999999998,90.12859302440955L244.5319,142.80304377671663L246.58104999999998,183.425465786937L248.4864,184.96905882832104L250.4277,129.09364648555524L252.2971,176.46656090151995L254.2384,186.02096441742518L256.32349999999997,196.93761046036505L258.3367,196.42983109531147L260.278,207.95553584037984L262.1474,78.31111064150832L263.873,136.91937990078733L265.7424,-151.66054640747802L267.64775000000003,-5.029776011936974L269.4812,90.60737599178856L271.02705000000003,74.11825066945948L273.18405,121.97402570936691L274.9456,147.64876182555034L276.85095,165.6586943070935L278.57655,216.98798224187914L280.51785,193.26859227333142L282.53105,139.55422468490866L284.47235,189.00464209024992L286.16200000000003,198.21643916133021L288.35495000000003,189.13798608400185L290.15245,235.7656621241146L291.91400000000004,212.04408993742283L293.89125,181.78979048980105L295.7966,219.23242727430375L297.84575,203.59592002935233L299.64325,138.2247398096741L301.58455,59.61065008630868L303.4899,115.18709728354531L305.5031,148.26785606285523L307.19275,157.7701909580266L308.95430000000005,182.09164579739783L310.93155,183.40735608953602L312.80095,217.70970717441065L314.8501,136.07365710360418L316.9352,146.11380777551298L318.5889,88.14469401713347L320.7459,112.56650418446145L322.6153,156.46631691697647L324.44874999999996,190.767601727506L326.3541,200.1229691410425L328.33135,61.586280793211586L330.2367,125.38514391497478L332.21395,192.01728862175764L334.0474,210.6804964700307L335.95275,234.29239830279144L338.00190000000003,208.31883142533178L339.8713,224.2955078401701L341.8126,185.9448039423547L343.68199999999996,204.53550377435218L345.51545,215.5258542892142L347.4927,208.44257156233812L349.43399999999997,153.31178221810353L351.33934999999997,169.2658811194211L353.2447,207.08246440336163L355.07815,227.2283696332279L357.05539999999996,232.50673760764022L358.74505,243.39329474146496L360.90205000000003,259.8965794159492L362.5917,267.04747314235686L364.35325,279.3520904986925L366.36645,269.71721299045487L368.128,249.5397448453498L370.2131,203.5302881904359L372.04654999999997,216.58805218982192L373.98785,234.4524362453669L375.56964999999997,230.0371468883067L377.475,229.8013055873698L379.45225000000005,241.60716073380624L381.39355,234.06440734962652L382.97535,237.72493233442322L384.84475,241.5164482215644L386.53439999999995,145.8749097120524L388.43975,201.3684110943532L390.23724999999996,237.21220614487268L392.17855,271.0999775743445L393.94010000000003,266.2720612535453L395.77355,267.3696292981253L397.57105,249.27247993020688L399.22475000000003,210.33222769420428L401.0582,239.5762292785709L402.74785,265.3273726571062L404.79699999999997,226.40451350322118L406.3788,214.7634529144213L408.21225,226.0917320502189L410.08165,220.61783133461395L411.73535,224.56422215410663L413.7126,248.4862272692239L415.47415,231.85917927935813L417.2357,185.3599527187055L419.1051,211.81337818842565L420.79475,199.62479508722683L422.73605,221.78866230133093L424.4257,186.7632026295836L426.40295,231.58165677910893L427.8769,238.86195285186676L429.6025,178.4216933790774L431.3281,223.88213196807686L433.30535000000003,187.48393026240817L435.03094999999996,217.65779457687228L437.11605,228.35343511819175L438.80569999999994,244.99132257949907L440.63915000000003,233.79613532573939L442.3288,246.15826368302677L444.342,256.30096814614876L446.2833,274.0808035289189L448.0808,281.0741518336499L449.62665,255.2626876233795L451.63984999999997,252.98035760514608L453.50925,234.4747023778717L455.127,254.72775721386432L456.88854999999995,279.77728888294314L458.6501,234.76915543318518L460.5195,254.1795295389934L462.35295,262.7545130334761L464.07854999999995,271.14573610916534L465.87605,286.30825398695345L467.81735,243.20747193295884L469.75865,235.77354259848073L471.55615000000006,261.4948240805237L473.1739,270.51906271955784L475.0433,276.7439900945509L477.09245,272.442118925505L478.96185,267.48422443130795L481.0829,269.88900760715717L482.6647,258.9050861353011L484.57005000000004,250.89808701004569L486.43944999999997,268.184630383706L488.38075000000003,251.83859128931516L490.39395,246.26176966833683L492.1555,258.53206956152684L494.09680000000003,222.65913162985186L495.78645,258.9679481296762L497.79965000000004,245.27857880646135L499.705,247.47963853540506L501.53845,249.12490212984375L503.2281,248.71331879536802L505.06155,248.35319030309017L507.07475000000005,220.79765444412408L508.9801,238.188149460641L510.5619,204.448550753884L512.5751,225.2948761049464L514.40855,220.05071737847058L516.13415,249.7047027169545L517.7878499999999,259.6019365828561L519.72915,258.34632678576276L521.5626000000001,277.6167294517038L523.6477,251.61982118993268L525.4452,271.02960795333547L527.2427,264.2359510133896L529.14805,275.81924879075484L530.94555,287.99988724378585L532.74305,230.8436013674011L534.75625,249.33904159905137L536.5537499999999,279.8910574698694L538.4591,294.78704665581864L540.22065,282.97297390836763L542.09005,274.1549369456666L544.0313500000001,261.94055478944165L546.04455,256.99956124081484L547.8061,267.772321364607L549.49575,283.63378202696185L551.473,260.8578757600757L553.1267,213.16646613221002L555.03205,249.91411200040955L556.97335,206.42277036234364L558.62705,226.85862763300315L560.42455,251.1875803966807L562.3299000000001,196.05466340777195L564.1993,245.59310687808343L566.10465,222.05287137167542L567.97405,238.1119885342532L569.6637,246.58707184476933L571.4971499999999,270.2972685777144L573.3306,281.8170890187023L575.23595,301.1431391209244L576.9975,296.5527522352266L578.97475,287.005388573523L580.8081999999999,228.93680667621828L582.7495,258.51797373514137L584.6189,276.467387191479L586.30855,217.24703971864258L588.5015,234.48842884791776L590.11925,241.40174368883896L592.0965,266.7336792475923L593.71425,257.4855424211588L595.58365,253.58706577695406L597.4171,266.1135583151996L599.5022,280.24296285984633L601.33565,263.24497765766216L603.0972,261.2744065074124L605.0744500000001,285.61102316814646L606.9078999999999,279.8925417932152L608.7054,259.06089825166936L610.53885,257.9409505202393L612.3723,268.77422659093264L614.0979,253.89235923882796L616.1111,271.84641746027154L617.80075,278.4141120737367L619.9937,281.84931919131117L621.89905,269.2861812705006L623.5168,274.9000973623518L625.49405,220.2840505374386L627.43535,209.8466482569524L629.2687999999999,238.6667980646937L631.24605,267.21932056894L633.1514000000001,288.7112875206774L635.0208,284.8986935331527L636.85425,291.90176669145245L639.01125,296.13484708970554L640.66495,295.9889251783834L642.46245,288.3409506914226L644.4397,294.918865639699L646.4529,239.34843156560208L648.2144499999999,260.35401621355976L650.08385,284.426249507185L652.0611,300.5417075846292L653.46315,281.99251750521046L655.18875,270.38302047796356L656.7346,264.6573805793959L658.4961500000001,261.50688612966763L660.29365,275.1373213410916L662.37875,238.30852088216193L664.4279,232.55715878536253L666.4051499999999,246.03911027449337L667.98695,226.90330579065068L669.56875,236.2672082569169L671.6898,270.7636078293453L673.6311,283.273645893206L675.75215,267.6565464827238L677.83725,251.98576713161577L679.8864,236.0701570842082L682.00745,227.44740240475025L684.1285,256.17888219625047L686.2136,264.99337232691227L688.2268,263.8396722604762L690.27595,264.9284973445493L692.3969999999999,282.6748214544629L694.4821,255.22994249950497L696.5672,278.29723692098645L698.7242,269.9194874221646L700.70145,288.24910780516643L702.78655,280.70346287922484L704.9076,283.9845164375688L706.9927,255.0549298588744L709.11375,260.9492958062477L711.12695,277.6138611666016L713.248,264.24867812583756L715.36905,280.6720012711877L717.45415,281.9807820029494L719.5751999999999,261.46229990467054L721.5884,265.1089672469772L723.7094500000001,273.5259786590145L725.86645,272.8406241800908L727.95155,272.5279310415103L730.0726000000001,248.93903325020756L732.12175,265.31734114747934L734.20685,276.24365271992497L736.36385,273.31629120777257L738.44895,281.40194859039906L740.6059499999999,281.70995788682774L742.69105,285.2880177075224L744.6683,272.51718020585514L746.78935,264.5602150761922L748.9104000000001,263.1625495689416L751.0314500000001,279.4599974304321L753.1525,256.73611293732415L755.20165,282.2881228677886L757.28675,289.5293561102425L759.4078000000001,301.5604456003889L761.52885,308.78022347533016L763.6139499999999,278.4994289168317L765.6631,273.010027109897L767.7482000000001,276.52385027516834L769.8692500000001,269.93986516332L771.9903,281.8120590977989L774.0394499999999,288.63951171088945L776.12455,239.31459229081113L778.2096499999999,264.6861184650018L780.3307,282.3976560898634L782.4158,200.18136871266438L784.5009,245.23741236870333L786.5141000000001,254.05063447382952L788.6711,265.12772362248245L790.7562,275.22022744605624L792.8772499999999,296.9912793470304L794.9264,290.6008655627299L797.0474499999999,283.1342082410889L799.0966,285.1640541502736L801.14575,283.4053795709551L803.2668,278.687926867565L805.31595,265.19917637047797L807.437,256.1439370568849L809.5220999999999,269.64990820325954L811.6431499999999,282.7887309638413L813.72825,295.10775476829724L815.8133499999999,308.47530683993705L817.89845,310.84736615565066L819.9835499999999,306.99457574574143L822.1046,313.1856398638367L824.1897,283.7249573741126L826.2748,285.82531112574145L828.3598999999999,303.0788571336425L830.40905,290.35157998195626L832.5301,282.9404089423498L834.6152000000001,291.6480140341806L836.7003,279.6431607188873L838.8213499999999,287.351472752219L840.9424,275.7784854021225L842.9556000000001,273.7633670566412L845.1126,272.26145045744966L847.1257999999999,294.8512821810698L849.24685,300.09318395434354L851.33195,262.09444287406524L853.3811000000001,281.5235898434348L855.4662,289.06844778071206L857.4794,263.7373502505443L859.5645,266.3964688734783L861.68555,279.887774236147L863.7347,265.1727178884413L865.8198,273.255396145157L867.8689499999999,273.1517824635339L869.95405,283.4584236006696L872.11105,270.9910826734161L874.1242500000001,268.6277217090998L876.2452999999999,272.8014440623446L878.2585,291.8022288464024L880.3435999999999,300.80155854642476L882.32085,312.67591706273015L884.4059500000001,315.4101189515415L886.4551000000001,315.1415322209253L888.4323499999999,294.5461049130472L890.51745,301.8775724538215L892.60255,285.09533320474907L894.6876500000001,277.52923766141106L896.70085,292.289117073953L898.7859500000001,289.6918960547089L900.87105,292.9879887654268L902.9921,287.0665993603398L905.11315,262.36433305813847L907.12635,287.74880277424444L909.1036,285.67243990784516L911.1887,267.4600388317444L913.3097500000001,285.7237670494102L915.39485,301.01000286775724L917.5159,301.9604267173284L919.49315,290.12538520802696L921.5782499999999,292.98134981429365L923.66335,285.86070706597434L925.7484499999999,280.0565111780254L927.8695,278.4503571015053L929.84675,275.2740209204824L931.9318499999999,290.1664406435413L934.0528999999999,300.8838904560639L936.17395,292.44401989197934L938.25905,289.86125857422473L940.27225,304.2844784999771L942.3573500000001,309.4388108161022L944.4064999999999,318.03018184531805L946.5275499999999,308.76177878248143L948.61265,303.1687881473747L950.6258499999999,294.0409845724134L952.71095,282.5110180207746L954.832,257.6712999867592L956.9530500000001,270.76266097886526L959.03815,289.96400390632846L961.1232500000001,215.0316103134626L963.13645,253.06351372206652L965.2575,271.93744867431786L967.3426,273.27985463522475L969.4636499999999,292.62161941592456L971.5128,283.4621743024263L973.5979000000001,279.635521516852L975.683,258.7945731017902L977.80405,274.2588128192076L979.88915,273.59928693728733L981.9382999999999,276.76767532442267L984.0234,285.735988638039L986.1084999999999,254.5686660148117L988.22955,264.19538158401326L990.31465,278.564344267395L992.3638000000001,292.89211904203705L994.377,285.5020884495724L996.4621,297.8738756393939L998.5472,304.14018111023597L1000.6682500000001,296.00650412644916L1002.7174,308.811365459448L1004.8384500000001,317.96347926241805L1006.8876,308.1049011271158L1009.0086500000001,295.9970737603878L1011.1297000000001,265.24461799607127L1013.1788499999999,277.8062479629842L1015.2999,294.0493894091086L1017.385,286.3978339401386L1019.4701,296.2445535223187L1021.6271,296.1455119735301L1023.7121999999999,284.92041536040904L1025.8692,292.73263901169776L1027.9183500000001,292.58285416332296L1030.0394000000001,292.46499373267534L1032.16045,300.0519580602672L1034.2814999999998,293.7203785514847L1036.40255,278.4033366791019L1038.48765,288.4873999902075L1040.6087,295.9866512811759L1042.6938,263.67797332087633L1044.74295,293.11846513273997L1046.864,286.10002361817766L1048.98505,297.03314985161194L1051.07015,307.38894545704227L1053.1912,286.155489785493L1055.2044,285.5924119579915L1057.2894999999999,283.5763345735147L1059.41055,243.44010252814735L1061.3878,253.86383898592737L1063.4729,273.602688870053L1065.52205,289.6037194929841L1067.60715,282.32465204759376L1069.6922499999998,253.84904522099458L1071.7413999999999,270.109356556227L1073.79055,282.0495251745821L1075.8397,272.3734546620155L1077.96075,292.2231378938856L1080.0818,295.68689376554505L1082.13095,248.6214040901757L1084.21605,265.40457713821513L1086.30115,264.5845316527425L1088.38625,284.77768553216094L1090.5073,299.68669554691814L1092.55645,287.9949480196911L1094.64155,263.43239158398376L1096.6907,284.5714960903315L1098.81175,292.86822087007096L1100.8609,296.9495149772604L1102.946,278.88458188153743L1104.9592,278.3415321143117L1106.9724,283.15867006669316L1109.0575,293.72629133397265L1111.17855,293.39049012830213L1113.2636499999999,305.4917771137974L1115.3128,311.4257201845778L1117.29005,318.48907463746264L1119.3392,324.1730960286975L1121.46025,296.70704973800895L1123.54535,276.0910419318909L1125.5945,293.2031681377491L1127.6077,294.57029817782643L1129.65685,301.6783684896398L1131.7779,314.30893099163285L1133.82705,304.3219749292988L1135.9121499999999,309.6657253547763L1137.8894,276.81387356485453L1139.93855,297.6173955504032L1142.09555,288.43304207348416L1144.18065,299.0421460802769L1146.26575,270.00591892513125L1148.243,285.2446534045785L1150.3281000000002,296.8440790531486L1152.4491500000001,304.7051690687209L1154.53425,282.25946152326287L1156.61935,296.5975262231637L1158.63255,293.99502315264994L1160.7536,296.3186316662553L1162.8387,301.32010772517464L1164.95975,310.9936685603329L1167.04485,299.90315989205055L1169.05805,292.22887061714414L1171.21505,291.1876452560978L1173.2641999999998,275.6278505665515L1175.38525,286.0256707797917L1177.5063,275.79231820884183L1179.5914,282.0716277562549L1181.6765,299.3488145692182L1183.7616,308.790036120521L1185.88265,299.7176751276892L1188.0037,298.60470409727344L1190.0169,311.3840612916574L1192.0660500000001,305.8876909016624L1194.1871,305.5003435603711L1196.2721999999999,300.04144352179367L1198.39325,307.9565822631216L1200.4064500000002,313.35057215542173L1202.49155,304.9519923189317L1204.6126,299.81559455895626L1206.73365,307.82620093377955L1208.81875,309.19338103921723L1210.90385,308.9439864287765L1212.953,314.82604639373665L1215.0381,323.50838482837344L1217.1951000000001,317.7106503484277L1219.2802,307.14912110195326L1221.32935,313.3539031125651L1223.2347,318.924742581102L1225.4636,320.56103015975816L1227.58465,326.1677299697275L1229.66975,311.501867725496L1231.6470000000002,314.52634143176346L1233.7321,320.5351742668013L1235.8172000000002,302.2823274232781L1237.9023,294.8030309124491L1239.9874,308.0543820522697L1242.03655,313.8092849794758L1244.12165,290.9038252305229L1246.1708,304.6886980285489L1248.2199500000002,287.4772944584634L1250.3410000000001,300.9369151970831L1252.3542,306.0915494579725L1254.4393,304.95286634377555L1256.3087,306.0985884178395L1258.25,302.12691630922046L1260.37105,305.0195553198593L1262.45615,285.1017280456506L1264.54125,288.0001136146237L1266.69825,297.51645692555604L1268.6755,305.0378697961181L1270.7606,277.52924616334496L1272.8097500000001,290.8304904770712L1274.89485,290.20491916518563L1277.0518499999998,305.6473859579483L1279.1009999999999,298.75298863834854L1281.2220499999999,298.83873832784127L1283.1993,305.9200477514388L1285.3563000000001,302.65504796884784L1287.4773500000001,310.81072920535405L1289.56245,303.04986423238756L1291.6475500000001,299.04502514442584L1293.6967,276.05519017243853L1295.81775,285.5276435787348L1297.9388,292.8161454737108L1299.98795,300.1731499926699L1302.109,305.3283322227867L1304.1941000000002,307.1940672418697L1306.3510999999999,199.5721807850136L1308.47215,220.5866219623526L1310.55725,265.33086003355027L1312.64235,285.6700996085515L1314.7274499999999,298.69141921025573L1316.81255,304.41894467173256L1319.0055,308.20260887368465L1321.12655,295.64536535605157L1323.1757,295.083461142268L1325.2608,291.9471176768459L1327.38185,299.5595328825782L1329.5029,303.6250094387275L1331.62395,294.77433599015126L1333.745,287.0223613111976L1335.8301000000001,299.54151118569393L1337.9511499999999,302.42011099769366L1340.0003,313.406933829717L1342.12135,315.37128893392213L1344.2423999999999,309.3070981248136L1346.21965,313.59736079015823L1348.30475,314.07780430488884L1350.4258,310.0552909725791L1352.5109,302.11483464413203L1354.4522,301.5608012036879L1356.57325,302.0070031147539L1358.6224,307.4729283130967L1360.7794000000001,296.24130350809116L1362.82855,308.6141940487076L1364.9855499999999,314.93240270250436L1366.99875,319.5199977840239L1369.08385,263.3662074259075L1371.24085,281.60964996672584L1373.32595,277.1162367734725L1375.4470000000001,287.91475255628916L1377.49615,283.17450894618327L1379.6172000000001,286.1343512815493L1381.5225500000001,291.78631843893277L1383.356,297.5971548573288L1385.5489499999999,205.52353867388445L1387.3824,237.09950892327237L1389.43155,274.5989438657344L1391.4088,289.8813484975326L1393.45795,297.7209263984041L1395.47115,302.54627594612106L1397.62815,315.0983218324158L1399.64135,315.1183543546184" fill="none"></path></g></g></g></g><g opacity="0.2"><g><g><g><path style="fill: none;" stroke="rgb(255, 112, 67)" stroke-width="2px" d="M197.25764999999998,-524.6568921804428L198.8035,66.77183845639229L200.63695,-80.01074230670935L202.68609999999998,-33.3072941601277L204.37575,200.002113930881L206.31705,7.051878064870834L208.4381,-134.13763305544853L210.19965,-105.08767327666288L212.1769,80.87589593231678L214.08225000000002,78.99475881457329L216.02355,155.12337090075016L217.9289,172.47836460918188L219.61855,69.55018454790115L221.8115,70.02778539061546L223.4652,178.53482441604137L225.58624999999998,127.2411041110754L227.5635,-484.86267364025116L229.54074999999997,111.57056280970573L231.41015000000002,-197.5623678267002L232.99195,28.82695609331131L235.07705,231.65525646507737L236.9105,206.07517828792334L238.708,31.01819345355034L240.82905000000002,6.515580430626869L242.55464999999998,144.56766472756863L244.5319,221.8147194162011L246.58104999999998,244.35909857600927L248.4864,187.28444838523865L250.4277,45.28052808344364L252.2971,247.5259324684739L254.2384,200.35256968438622L256.32349999999997,213.3125795200467L258.3367,195.668162047863L260.278,225.24409295618534L262.1474,-116.15552714467054L263.873,224.83178378641605L265.7424,-584.530435860157L267.64775000000003,214.91637957841158L269.4812,234.06310399621722L271.02705000000003,49.3845626860857L273.18405,193.75768826901913L274.9456,186.16086599975822L276.85095,192.67359302937982L278.57655,293.98191414400935L280.51785,157.6895073205233L282.53105,58.982673302292824L284.47235,263.1802681982517L286.16200000000003,212.03413476794955L288.35495000000003,175.52030646800995L290.15245,305.7071761842817L291.91400000000004,176.46173165738583L293.89125,136.4083413183689L295.7966,275.39638245105743L297.84575,180.14115916192532L299.64325,40.1679694801569L301.58455,-58.31048449873924L303.4899,198.55176807940006L305.5031,197.88899423182008L307.19275,172.02369330078366L308.95430000000005,218.57382805645466L310.93155,185.3809215277433L312.80095,269.1632338017225L314.8501,13.619581997394562L316.9352,161.17403378337625L318.5889,1.1910233795642853L320.7459,149.19921943545344L322.6153,222.31603601574898L324.44874999999996,242.21952894330025L326.3541,214.15602026134727L328.33135,-146.2187517285347L330.2367,221.08343859761953L332.21395,291.965505681932L334.0474,238.67530824244022L335.95275,269.7102510519326L338.00190000000003,169.3584811091423L339.8713,248.2605224624276L341.8126,128.4187480956316L343.68199999999996,232.4215535223484L345.51545,232.0113800615072L347.4927,197.81764747202396L349.43399999999997,70.61559820175171L351.33934999999997,193.1970294713974L353.2447,263.8073393292725L355.07815,257.44722747802734L357.05539999999996,240.42428956925866L358.74505,259.7231304422021L360.90205000000003,284.6515064276755L362.5917,277.7738137319684L364.35325,297.809016533196L366.36645,255.2648967280984L368.128,219.27354262769222L370.2131,134.51610320806503L372.04654999999997,236.17469818890095L373.98785,261.24901232868433L375.56964999999997,223.41421285271642L377.475,229.44754363596437L379.45225000000005,259.31594345346093L381.39355,222.75027727335691L382.97535,243.2157198116183L384.84475,247.20372205227613L386.53439999999995,2.412601947784424L388.43975,284.6086631678045L390.23724999999996,290.97789872065187L392.17855,321.93163471855223L393.94010000000003,259.0301867723465L395.77355,269.01598136499524L397.57105,222.12675587832928L399.22475000000003,151.92184934020042L401.0582,283.44223165512085L402.74785,303.9540877249092L404.79699999999997,168.02022477239373L406.3788,197.30186203122136L408.21225,243.0841507539153L410.08165,212.4069802612066L411.73535,230.48380838334558L413.7126,284.3692349418998L415.47415,206.91860729455945L417.2357,115.61111287772655L419.1051,251.49351639300585L420.79475,181.34192043542862L422.73605,255.03446312248707L424.4257,134.22501312196255L426.40295,298.809338003397L427.8769,249.78239696100354L429.6025,87.76130416989326L431.3281,292.0727898515761L433.30535000000003,132.8866277039051L435.03094999999996,262.9185910485685L437.11605,244.396895930171L438.80569999999994,269.94815377146006L440.63915000000003,217.0033544450998L442.3288,264.7014562189579L444.342,271.51502484083176L446.2833,300.7505566030741L448.0808,291.56417429074645L449.62665,216.54549130797383L451.63984999999997,249.55686257779598L453.50925,206.7162195369601L455.127,285.1073394678533L456.88854999999995,317.3515863865614L458.6501,167.25695525854826L460.5195,283.29509069770575L462.35295,275.61698827520013L464.07854999999995,283.73257072269917L465.87605,309.0520308036357L467.81735,178.55629885196686L469.75865,224.6226485967636L471.55615000000006,300.07674630358815L473.1739,284.05542067810893L475.0433,286.0813811570406L477.09245,265.98931217193604L478.96185,260.04738269001245L481.0829,273.4961823709309L482.6647,242.42920392751694L484.57005000000004,238.88758832216263L486.43944999999997,294.11444544419646L488.38075000000003,227.3195326477289L490.39395,237.8965372368693L492.1555,276.9375194013119L494.09680000000003,168.84972473233938L495.78645,313.43117287941277L497.79965000000004,224.74452482163906L499.705,250.78122812882066L501.53845,251.59279752150178L503.2281,248.0959437936544L505.06155,247.81299756467342L507.07475000000005,179.46435065567493L508.9801,264.2738919854164L510.5619,153.83915269374847L512.5751,256.56436413154006L514.40855,212.18447928875685L516.13415,294.1856807246804L517.7878499999999,274.4477873817086L519.72915,256.4629120901227L521.5626000000001,306.5223334506154L523.6477,212.62445879727602L525.4452,300.1442880984396L527.2427,254.0454656034708L529.14805,293.19419545680285L530.94555,306.27084492333233L532.74305,145.10917255282402L534.75625,277.08220194652677L536.5537499999999,325.7190812760964L538.4591,317.13103043474257L540.22065,265.25186478719115L542.09005,260.92788150161505L544.0313500000001,243.61898155510423L546.04455,249.58807091787457L547.8061,283.93146155029535L549.49575,307.425973020494L551.473,226.69401635974646L553.1267,141.62935169041157L555.03205,305.03558080270886L556.97335,141.18575790524483L558.62705,257.5124135389924L560.42455,287.681009542197L562.3299000000001,113.35528792440891L564.1993,319.9007720835507L566.10465,186.7425181120634L567.97405,262.2006642781198L569.6637,259.29969681054354L571.4971499999999,305.86256367713213L573.3306,299.0968196801841L575.23595,330.1322142742574L576.9975,289.66717190667987L578.97475,272.68434308096766L580.8081999999999,141.83393383026123L582.7495,302.889724323526L584.6189,303.3915073759854L586.30855,128.41651850938797L588.5015,260.35051254183054L590.11925,251.77171595022082L592.0965,304.7315825857222L593.71425,243.61333718150854L595.58365,247.739350810647L597.4171,284.9032971225679L599.5022,301.43706967681646L601.33565,237.74799985438585L603.0972,258.31854978203773L605.0744500000001,322.11594815924764L606.9078999999999,271.3148197308183L608.7054,227.8134329393506L610.53885,256.2610289230943L612.3723,285.0241406969726L614.0979,231.56955821067095L616.1111,298.77750479243696L617.80075,288.2656539939344L619.9937,287.0021298676729L621.89905,250.44147438928485L623.5168,283.3209715001285L625.49405,138.35998030006886L627.43535,194.19054483622313L629.2687999999999,281.8970227763057L631.24605,310.0481043253094L633.1514000000001,320.94923794828355L635.0208,279.1798025518656L636.85425,302.40637642890215L639.01125,302.48446768708527L640.66495,295.7700423114002L642.46245,276.86898896098137L644.4397,304.7857380621135L646.4529,155.99278045445683L648.2144499999999,291.86239318549633L650.08385,320.5345994476229L652.0611,324.7148947007954L653.46315,254.1687323860824L655.18875,252.96877493709326L656.7346,256.0689207315445L658.4961500000001,256.78114445507526L660.29365,295.58297415822744L662.37875,183.06532019376755L664.4279,223.93011564016342L666.4051499999999,266.2620375081897L667.98695,198.19959906488654L669.56875,250.31306195631623L671.6898,322.50820718798786L673.6311,302.0387029889971L675.75215,244.23089736700055L677.83725,228.47959810495377L679.8864,212.19674201309678L682.00745,214.51327038556335L684.1285,299.2761018835008L686.2136,278.2151075229049L688.2268,262.10912216082215L690.27595,266.561734970659L692.3969999999999,309.29430761933327L694.4821,214.06262406706807L696.5672,312.8981785532087L698.7242,257.35286317393184L700.70145,315.7435383796692L702.78655,269.3849954903126L704.9076,288.90609677508473L706.9927,211.66054999083278L709.11375,269.79084472730756L711.12695,302.61070920713246L713.248,244.20090356469152L715.36905,305.306985989213L717.45415,283.9439531005919L719.5751999999999,230.6845767572522L721.5884,270.57896826043725L723.7094500000001,286.1514957770705L725.86645,271.8125924617052L727.95155,272.0588913336396L730.0726000000001,213.55568656325337L732.12175,289.884802993387L734.20685,292.6331200785935L736.36385,268.92524893954396L738.44895,293.5304346643388L740.6059499999999,282.1719718314707L742.69105,290.6551074385643L744.6683,253.36092395335436L746.78935,252.6247673816979L748.9104000000001,261.06605130806565L751.0314500000001,303.9061692226678L753.1525,222.65028619766233L755.20165,320.6161377634853L757.28675,300.3912059739232L759.4078000000001,319.6070798356086L761.52885,319.609890287742L763.6139499999999,233.0782370790839L765.6631,264.7759243994951L767.7482000000001,281.79458502307534L769.8692500000001,260.06388749554753L771.9903,299.6203499995172L774.0394499999999,298.88069063052535L776.12455,165.32721316069365L778.2096499999999,302.74340772628784L780.3307,308.9649625271559L782.4158,76.85693764686584L784.5009,312.82147785276175L786.5141000000001,267.27046763151884L788.6711,281.74335734546185L790.7562,290.358983181417L792.8772499999999,329.6478571984917L794.9264,281.0152448862791L797.0474499999999,271.9342222586274L799.0966,288.2088230140507L801.14575,280.7673677019775L803.2668,271.61174781247973L805.31595,244.9660506248474L807.437,242.5610780864954L809.5220999999999,289.9088649228215L811.6431499999999,302.49696510471404L813.72825,313.58629047498107L815.8133499999999,328.5266349473968L817.89845,314.4054551292211L819.9835499999999,301.2153901308775L822.1046,322.4722360409796L824.1897,239.53393363952637L826.2748,288.9758417531848L828.3598999999999,328.959176145494L830.40905,271.26066425442696L832.5301,271.82365238294005L834.6152000000001,304.709421671927L836.7003,261.63588074594736L838.8213499999999,298.91394080221653L840.9424,258.4190043769777L842.9556000000001,270.74068953841925L845.1126,270.0085755586624L847.1257999999999,328.7360297665L849.24685,307.9560366142541L851.33195,205.0963312536478L853.3811000000001,310.66731029748917L855.4662,300.385734686628L857.4794,225.74070395529267L859.5645,270.3851468078792L861.68555,300.12473228015006L863.7347,243.1001333668828L865.8198,285.3794135302305L867.8689499999999,272.99636194109917L869.95405,298.91838530637324L872.11105,252.2900712825358L874.1242500000001,265.0826802626252L876.2452999999999,279.06202759221196L878.2585,320.30340602248907L880.3435999999999,314.3005530964583L882.32085,330.4874548371881L884.4059500000001,319.51142178475857L886.4551000000001,314.73865212500095L888.4323499999999,263.65296395123005L890.51745,312.8747737649828L892.60255,259.9219743311405L894.6876500000001,266.1800943464041L896.70085,314.42893619276583L898.7859500000001,285.79606452584267L900.87105,297.93212783150375L902.9921,278.1845152527094L905.11315,225.31093360483644L907.12635,325.82550734840333L909.1036,282.5578956082463L911.1887,240.1414372175932L913.3097500000001,313.11935937590897L915.39485,323.9393565952778L917.5159,303.38606249168515L919.49315,272.37282294407487L921.5782499999999,297.2652967236936L923.66335,275.1797429434955L925.7484499999999,271.350217346102L927.8695,276.0411259867251L929.84675,270.5095166489482L931.9318499999999,312.5050702281296L934.0528999999999,316.96006517484784L936.17395,279.7842140458524L938.25905,285.98711659759283L940.27225,325.9193083886057L942.3573500000001,317.1703092902899L944.4064999999999,330.91723838914186L946.5275499999999,294.85917418822646L948.61265,294.77930219471455L950.6258499999999,280.3492792099714L952.71095,265.21606819331646L954.832,220.41172293573618L956.9530500000001,290.3997024670243L959.03815,318.76601829752326L961.1232500000001,102.63301992416382L963.13645,310.1113688349724L965.2575,300.24835110269487L967.3426,275.29346357658505L969.4636499999999,321.63426658697426L971.5128,269.723006632179L973.5979000000001,273.8955423384905L975.683,227.53315047919747L977.80405,297.45517239533365L979.88915,272.60999811440706L981.9382999999999,281.5202579051256L984.0234,299.1884586084634L986.1084999999999,207.8176820799708L988.22955,278.63545493781567L990.31465,300.1177882924676L992.3638000000001,314.3837812040001L994.377,274.4170425608754L996.4621,316.43155642412603L998.5472,313.53963931649923L1000.6682500000001,283.805988650769L1002.7174,328.0186574589461L1004.8384500000001,331.69164996687323L1006.8876,293.3170339241624L1009.0086500000001,277.8353327102959L1011.1297000000001,219.1159343495965L1013.1788499999999,296.64869291335344L1015.2999,318.41410157829523L1017.385,274.9205007366836L1019.4701,311.0146328955889L1021.6271,295.99694965034723L1023.7121999999999,268.0827704407275L1025.8692,304.4509744886309L1027.9183500000001,292.35817689076066L1030.0394000000001,292.288203086704L1032.16045,311.43240455165505L1034.2814999999998,284.223009288311L1036.40255,255.42777387052774L1038.48765,303.6134949568659L1040.6087,307.2355282176286L1042.6938,215.21495638042686L1044.74295,337.2792028505355L1046.864,275.5723613463342L1048.98505,313.4328392017633L1051.07015,322.92263886518776L1053.1912,254.30530627816916L1055.2044,284.7477952167392L1057.2894999999999,280.55221849679947L1059.41055,183.23575446009636L1061.3878,269.4994436725974L1063.4729,303.2109636962414L1065.52205,313.6052654273808L1067.60715,271.40605087950826L1069.6922499999998,211.1356349810958L1071.7413999999999,294.4998235590756L1073.79055,299.9597781021148L1075.8397,257.8593488931656L1077.96075,321.9976627416909L1080.0818,300.88252757303417L1082.13095,178.02316957712173L1084.21605,290.5793367102742L1086.30115,263.3544634245336L1088.38625,315.06741635128856L1090.5073,322.0502105690539L1092.55645,270.4573267288506L1094.64155,226.58855693042275L1096.6907,316.28015284985304L1098.81175,305.3133080396801L1100.8609,303.0714561380446L1102.946,251.78718223795295L1104.9592,277.5269574634731L1106.9724,290.3843769952655L1109.0575,309.5777232348919L1111.17855,292.8867883197963L1113.2636499999999,323.6437075920403L1115.3128,320.32663479074836L1117.29005,329.08410631679L1119.3392,332.6991281155497L1121.46025,255.5079803019762L1123.54535,245.16703022271395L1125.5945,318.8713574465364L1127.6077,296.62099323794246L1129.65685,312.3404739573598L1131.7779,333.2547747446224L1133.82705,289.3415408357978L1135.9121499999999,317.6813509929925L1137.8894,227.53609587997198L1139.93855,328.8226785287261L1142.09555,274.65651185810566L1144.18065,314.955802090466L1146.26575,226.45157819241282L1148.243,308.1027551237494L1150.3281000000002,314.2432175260037L1152.4491500000001,316.4968040920794L1154.53425,248.59090020507574L1156.61935,318.104623273015L1158.63255,290.0912685468793L1160.7536,299.8040444366634L1162.8387,308.8223218135536L1164.95975,325.5040098130703L1167.04485,283.267396889627L1169.05805,280.71743670478463L1171.21505,289.6258072145283L1173.2641999999998,252.28815853223205L1175.38525,301.62240109965205L1177.5063,260.442289352417L1179.5914,291.49059207737446L1181.6765,325.2645947886631L1183.7616,322.95186844747514L1185.88265,286.10913363844156L1188.0037,296.9352475516498L1190.0169,330.5530970832333L1192.0660500000001,297.64313531666994L1194.1871,304.91932254843414L1196.2721999999999,291.8530934639275L1198.39325,319.8292903751135L1200.4064500000002,321.4415569938719L1202.49155,292.3541225641966L1204.6126,292.11099791899323L1206.73365,319.84211049601436L1208.81875,311.24415119737387L1210.90385,308.5698945131153L1212.953,323.6491363411769L1215.0381,336.5318924803287L1217.1951000000001,309.01404862850904L1219.2802,291.30682723224163L1221.32935,322.6610761284828L1223.2347,327.2810017839074L1225.4636,323.01546152774245L1227.58465,334.57777968468145L1229.66975,289.50307435914874L1231.6470000000002,319.0630519911647L1233.7321,329.54842351935804L1235.8172000000002,274.9030571579933L1237.9023,283.58408614620566L1239.9874,327.9314087620005L1242.03655,322.441639370285L1244.12165,256.5456356070936L1246.1708,325.36600722558796L1248.2199500000002,261.66018910333514L1250.3410000000001,321.1263463050127L1252.3542,313.8235008493066L1254.4393,303.2448416724801L1256.3087,307.81717152893543L1258.25,296.16940814629197L1260.37105,309.3585138358176L1262.45615,255.22498713433743L1264.54125,292.3476919680834L1266.69825,311.79097189195454L1268.6755,316.31998910196126L1270.7606,236.2663107141852L1272.8097500000001,310.78235694766045L1274.89485,289.2665621973574L1277.0518499999998,328.8110861470923L1279.1009999999999,288.4113926589489L1281.2220499999999,298.96736286208034L1283.1993,316.5420118868351L1285.3563000000001,297.75754829496145L1287.4773500000001,323.0442510601133L1289.56245,291.4085667729378L1291.6475500000001,293.03776651248336L1293.6967,241.5704377144575L1295.81775,299.73632368817925L1297.9388,303.74889831617475L1299.98795,311.2086567711085L1302.109,313.06110556796193L1304.1941000000002,309.9926697704941L1306.3510999999999,38.13935109972954L1308.47215,252.10828372836113L1310.55725,332.44721714034677L1312.64235,316.17895897105336L1314.7274499999999,318.22339861281216L1316.81255,313.01023286394775L1319.0055,313.87810517661273L1321.12655,276.809500079602L1323.1757,294.24060482159257L1325.2608,287.2426024787128L1327.38185,310.97815569117665L1329.5029,309.7232242729515L1331.62395,281.49832581728697L1333.745,275.39439929276705L1335.8301000000001,318.32023599743843L1337.9511499999999,306.73801071569324L1340.0003,329.887168077752L1342.12135,318.31782159022987L1344.2423999999999,300.2108119111508L1346.21965,320.0327547881752L1348.30475,314.79846957698464L1350.4258,304.02152097411454L1352.5109,290.20415015146136L1354.4522,300.7297510430217L1356.57325,302.6763059813529L1358.6224,315.67181611061096L1360.7794000000001,279.3938663005829L1362.82855,327.17352985963225L1364.9855499999999,324.40971568319947L1366.99875,326.4013904063031L1369.08385,179.1355218887329L1371.24085,308.9748137779534L1373.32595,270.3761169835925L1375.4470000000001,304.11252623051405L1377.49615,276.06414353102446L1379.6172000000001,290.57411478459835L1381.5225500000001,300.26426917500794L1383.356,306.3134094849229L1385.5489499999999,67.41311439871788L1387.3824,284.4634642973542L1389.43155,330.8480962794274L1391.4088,312.80495544523L1393.45795,309.4802932497114L1395.47115,309.7843002676964L1397.62815,333.926390661858L1399.64135,315.1484031379223" fill="none"></path></g></g></g></g></g><g><g opacity="0.981323"><span fill="rgb(0, 0, 0)" stroke="none" stroke-width="1px">Alt + Scroll to Zoom</span></g></g></g><g transform="translate(60, 378)" clip-path="url(#clip_1)"><clipPath id="clip_1"><rect width="1438" height="22"></rect></clipPath><g><g><line x1="0" y1="0" x2="0" y2="5" style="visibility: inherit;" fill="rgb(0, 0, 0)" stroke="rgb(204, 204, 204)" stroke-width="1px"></line><line x1="179.75" y1="0" x2="179.75" y2="5" style="visibility: inherit;" fill="rgb(0, 0, 0)" stroke="rgb(204, 204, 204)" stroke-width="1px"></line><line x1="359.5" y1="0" x2="359.5" y2="5" style="visibility: inherit;" fill="rgb(0, 0, 0)" stroke="rgb(204, 204, 204)" stroke-width="1px"></line><line x1="539.25" y1="0" x2="539.25" y2="5" style="visibility: inherit;" fill="rgb(0, 0, 0)" stroke="rgb(204, 204, 204)" stroke-width="1px"></line><line x1="719" y1="0" x2="719" y2="5" style="visibility: inherit;" fill="rgb(0, 0, 0)" stroke="rgb(204, 204, 204)" stroke-width="1px"></line><line x1="898.75" y1="0" x2="898.75" y2="5" style="visibility: inherit;" fill="rgb(0, 0, 0)" stroke="rgb(204, 204, 204)" stroke-width="1px"></line><line x1="1078.5" y1="0" x2="1078.5" y2="5" style="visibility: inherit;" fill="rgb(0, 0, 0)" stroke="rgb(204, 204, 204)" stroke-width="1px"></line><line x1="1258.25" y1="0" x2="1258.25" y2="5" style="visibility: inherit;" fill="rgb(0, 0, 0)" stroke="rgb(204, 204, 204)" stroke-width="1px"></line><line x1="1438" y1="0" x2="1438" y2="5" style="visibility: inherit;" fill="rgb(0, 0, 0)" stroke="rgb(204, 204, 204)" stroke-width="1px"></line></g><g transform="translate(0, 8)"><text x="0" y="0" dx="0em" dy="0.95em" style="text-anchor: middle; visibility: hidden; font-family: &quot;Helvetica Neue&quot;, sans-serif; font-size: 12px; font-weight: 200;" fill="rgb(50, 49, 63)" stroke="none" stroke-width="1px">-5k</text><text x="179.75" y="0" dx="0em" dy="0.95em" style="text-anchor: middle; visibility: inherit; font-family: &quot;Helvetica Neue&quot;, sans-serif; font-size: 12px; font-weight: 200;" fill="rgb(50, 49, 63)" stroke="none" stroke-width="1px">0</text><text x="359.5" y="0" dx="0em" dy="0.95em" style="text-anchor: middle; visibility: inherit; font-family: &quot;Helvetica Neue&quot;, sans-serif; font-size: 12px; font-weight: 200;" fill="rgb(50, 49, 63)" stroke="none" stroke-width="1px">5k</text><text x="539.25" y="0" dx="0em" dy="0.95em" style="text-anchor: middle; visibility: inherit; font-family: &quot;Helvetica Neue&quot;, sans-serif; font-size: 12px; font-weight: 200;" fill="rgb(50, 49, 63)" stroke="none" stroke-width="1px">10k</text><text x="719" y="0" dx="0em" dy="0.95em" style="text-anchor: middle; visibility: inherit; font-family: &quot;Helvetica Neue&quot;, sans-serif; font-size: 12px; font-weight: 200;" fill="rgb(50, 49, 63)" stroke="none" stroke-width="1px">15k</text><text x="898.75" y="0" dx="0em" dy="0.95em" style="text-anchor: middle; visibility: inherit; font-family: &quot;Helvetica Neue&quot;, sans-serif; font-size: 12px; font-weight: 200;" fill="rgb(50, 49, 63)" stroke="none" stroke-width="1px">20k</text><text x="1078.5" y="0" dx="0em" dy="0.95em" style="text-anchor: middle; visibility: inherit; font-family: &quot;Helvetica Neue&quot;, sans-serif; font-size: 12px; font-weight: 200;" fill="rgb(50, 49, 63)" stroke="none" stroke-width="1px">25k</text><text x="1258.25" y="0" dx="0em" dy="0.95em" style="text-anchor: middle; visibility: inherit; font-family: &quot;Helvetica Neue&quot;, sans-serif; font-size: 12px; font-weight: 200;" fill="rgb(50, 49, 63)" stroke="none" stroke-width="1px">30k</text><text x="1438" y="0" dx="0em" dy="0.95em" style="text-anchor: middle; visibility: hidden; font-family: &quot;Helvetica Neue&quot;, sans-serif; font-size: 12px; font-weight: 200;" fill="rgb(50, 49, 63)" stroke="none" stroke-width="1px">35k</text></g><line x1="0" y1="0" x2="1438" y2="0" fill="rgb(0, 0, 0)" stroke="rgb(204, 204, 204)" stroke-width="1px"></line></g></g></g></g></svg>