<svg viewBox="0 0 1498 400" xmlns="http://www.w3.org/2000/svg"><g><g><g><g><g><line x1="60" y1="378" x2="55" y2="378" style="visibility: inherit;" fill="rgb(0, 0, 0)" stroke="rgb(204, 204, 204)" stroke-width="1px"></line><line x1="60" y1="340.2" x2="55" y2="340.2" style="visibility: inherit;" fill="rgb(0, 0, 0)" stroke="rgb(204, 204, 204)" stroke-width="1px"></line><line x1="60" y1="302.4" x2="55" y2="302.4" style="visibility: inherit;" fill="rgb(0, 0, 0)" stroke="rgb(204, 204, 204)" stroke-width="1px"></line><line x1="60" y1="264.6" x2="55" y2="264.6" style="visibility: inherit;" fill="rgb(0, 0, 0)" stroke="rgb(204, 204, 204)" stroke-width="1px"></line><line x1="60" y1="226.79999999999998" x2="55" y2="226.79999999999998" style="visibility: inherit;" fill="rgb(0, 0, 0)" stroke="rgb(204, 204, 204)" stroke-width="1px"></line><line x1="60" y1="188.99999999999997" x2="55" y2="188.99999999999997" style="visibility: inherit;" fill="rgb(0, 0, 0)" stroke="rgb(204, 204, 204)" stroke-width="1px"></line><line x1="60" y1="151.19999999999996" x2="55" y2="151.19999999999996" style="visibility: inherit;" fill="rgb(0, 0, 0)" stroke="rgb(204, 204, 204)" stroke-width="1px"></line><line x1="60" y1="113.40000000000003" x2="55" y2="113.40000000000003" style="visibility: inherit;" fill="rgb(0, 0, 0)" stroke="rgb(204, 204, 204)" stroke-width="1px"></line><line x1="60" y1="75.59999999999997" x2="55" y2="75.59999999999997" style="visibility: inherit;" fill="rgb(0, 0, 0)" stroke="rgb(204, 204, 204)" stroke-width="1px"></line><line x1="60" y1="37.80000000000001" x2="55" y2="37.80000000000001" style="visibility: inherit;" fill="rgb(0, 0, 0)" stroke="rgb(204, 204, 204)" stroke-width="1px"></line><line x1="60" y1="0" x2="55" y2="0" style="visibility: inherit;" fill="rgb(0, 0, 0)" stroke="rgb(204, 204, 204)" stroke-width="1px"></line></g><g transform="translate(50, 0)"><text x="0" y="378" dx="0em" dy="0.3em" style="text-anchor: end; visibility: hidden; font-family: &quot;Helvetica Neue&quot;, sans-serif; font-size: 12px; font-weight: 200;" fill="rgb(50, 49, 63)" stroke="none" stroke-width="1px">-0.01</text><text x="0" y="340.2" dx="0em" dy="0.3em" style="text-anchor: end; visibility: inherit; font-family: &quot;Helvetica Neue&quot;, sans-serif; font-size: 12px; font-weight: 200;" fill="rgb(50, 49, 63)" stroke="none" stroke-width="1px">0</text><text x="0" y="302.4" dx="0em" dy="0.3em" style="text-anchor: end; visibility: inherit; font-family: &quot;Helvetica Neue&quot;, sans-serif; font-size: 12px; font-weight: 200;" fill="rgb(50, 49, 63)" stroke="none" stroke-width="1px">0.01</text><text x="0" y="264.6" dx="0em" dy="0.3em" style="text-anchor: end; visibility: inherit; font-family: &quot;Helvetica Neue&quot;, sans-serif; font-size: 12px; font-weight: 200;" fill="rgb(50, 49, 63)" stroke="none" stroke-width="1px">0.02</text><text x="0" y="226.79999999999998" dx="0em" dy="0.3em" style="text-anchor: end; visibility: inherit; font-family: &quot;Helvetica Neue&quot;, sans-serif; font-size: 12px; font-weight: 200;" fill="rgb(50, 49, 63)" stroke="none" stroke-width="1px">0.03</text><text x="0" y="188.99999999999997" dx="0em" dy="0.3em" style="text-anchor: end; visibility: inherit; font-family: &quot;Helvetica Neue&quot;, sans-serif; font-size: 12px; font-weight: 200;" fill="rgb(50, 49, 63)" stroke="none" stroke-width="1px">0.04</text><text x="0" y="151.19999999999996" dx="0em" dy="0.3em" style="text-anchor: end; visibility: inherit; font-family: &quot;Helvetica Neue&quot;, sans-serif; font-size: 12px; font-weight: 200;" fill="rgb(50, 49, 63)" stroke="none" stroke-width="1px">0.05</text><text x="0" y="113.40000000000003" dx="0em" dy="0.3em" style="text-anchor: end; visibility: inherit; font-family: &quot;Helvetica Neue&quot;, sans-serif; font-size: 12px; font-weight: 200;" fill="rgb(50, 49, 63)" stroke="none" stroke-width="1px">0.06</text><text x="0" y="75.59999999999997" dx="0em" dy="0.3em" style="text-anchor: end; visibility: inherit; font-family: &quot;Helvetica Neue&quot;, sans-serif; font-size: 12px; font-weight: 200;" fill="rgb(50, 49, 63)" stroke="none" stroke-width="1px">0.07</text><text x="0" y="37.80000000000001" dx="0em" dy="0.3em" style="text-anchor: end; visibility: inherit; font-family: &quot;Helvetica Neue&quot;, sans-serif; font-size: 12px; font-weight: 200;" fill="rgb(50, 49, 63)" stroke="none" stroke-width="1px">0.08</text><text x="0" y="0" dx="0em" dy="0.3em" style="text-anchor: end; visibility: hidden; font-family: &quot;Helvetica Neue&quot;, sans-serif; font-size: 12px; font-weight: 200;" fill="rgb(50, 49, 63)" stroke="none" stroke-width="1px">0.09</text></g><line x1="60" y1="0" x2="60" y2="378" fill="rgb(0, 0, 0)" stroke="rgb(204, 204, 204)" stroke-width="1px"></line></g></g><g transform="translate(60, 0)" clip-path="url(#clip_0)"><clipPath id="clip_0"><rect width="1438" height="378"></rect></clipPath><g><g><g><line x1="0" y1="0" x2="0" y2="378" fill="rgb(0, 0, 0)" stroke="rgb(60, 60, 60)" stroke-width="1px" opacity="0.25"></line><line x1="179.75" y1="0" x2="179.75" y2="378" fill="rgb(0, 0, 0)" stroke="rgb(60, 60, 60)" stroke-width="1px" opacity="0.25"></line><line x1="359.5" y1="0" x2="359.5" y2="378" fill="rgb(0, 0, 0)" stroke="rgb(60, 60, 60)" stroke-width="1px" opacity="0.25"></line><line x1="539.25" y1="0" x2="539.25" y2="378" fill="rgb(0, 0, 0)" stroke="rgb(60, 60, 60)" stroke-width="1px" opacity="0.25"></line><line x1="719" y1="0" x2="719" y2="378" fill="rgb(0, 0, 0)" stroke="rgb(60, 60, 60)" stroke-width="1px" opacity="0.25"></line><line x1="898.75" y1="0" x2="898.75" y2="378" fill="rgb(0, 0, 0)" stroke="rgb(60, 60, 60)" stroke-width="1px" opacity="0.25"></line><line x1="1078.5" y1="0" x2="1078.5" y2="378" fill="rgb(0, 0, 0)" stroke="rgb(60, 60, 60)" stroke-width="1px" opacity="0.25"></line><line x1="1258.25" y1="0" x2="1258.25" y2="378" fill="rgb(0, 0, 0)" stroke="rgb(60, 60, 60)" stroke-width="1px" opacity="0.25"></line><line x1="1438" y1="0" x2="1438" y2="378" fill="rgb(0, 0, 0)" stroke="rgb(60, 60, 60)" stroke-width="1px" opacity="0.25"></line></g><g><line x1="0" y1="378" x2="1438" y2="378" fill="rgb(0, 0, 0)" stroke="rgb(60, 60, 60)" stroke-width="1px" opacity="0.25"></line><line x1="0" y1="340.2" x2="1438" y2="340.2" fill="rgb(0, 0, 0)" stroke="rgb(60, 60, 60)" stroke-width="1px" opacity="0.25"></line><line x1="0" y1="302.4" x2="1438" y2="302.4" fill="rgb(0, 0, 0)" stroke="rgb(60, 60, 60)" stroke-width="1px" opacity="0.25"></line><line x1="0" y1="264.6" x2="1438" y2="264.6" fill="rgb(0, 0, 0)" stroke="rgb(60, 60, 60)" stroke-width="1px" opacity="0.25"></line><line x1="0" y1="226.79999999999998" x2="1438" y2="226.79999999999998" fill="rgb(0, 0, 0)" stroke="rgb(60, 60, 60)" stroke-width="1px" opacity="0.25"></line><line x1="0" y1="188.99999999999997" x2="1438" y2="188.99999999999997" fill="rgb(0, 0, 0)" stroke="rgb(60, 60, 60)" stroke-width="1px" opacity="0.25"></line><line x1="0" y1="151.19999999999996" x2="1438" y2="151.19999999999996" fill="rgb(0, 0, 0)" stroke="rgb(60, 60, 60)" stroke-width="1px" opacity="0.25"></line><line x1="0" y1="113.40000000000003" x2="1438" y2="113.40000000000003" fill="rgb(0, 0, 0)" stroke="rgb(60, 60, 60)" stroke-width="1px" opacity="0.25"></line><line x1="0" y1="75.59999999999997" x2="1438" y2="75.59999999999997" fill="rgb(0, 0, 0)" stroke="rgb(60, 60, 60)" stroke-width="1px" opacity="0.25"></line><line x1="0" y1="37.80000000000001" x2="1438" y2="37.80000000000001" fill="rgb(0, 0, 0)" stroke="rgb(60, 60, 60)" stroke-width="1px" opacity="0.25"></line><line x1="0" y1="0" x2="1438" y2="0" fill="rgb(0, 0, 0)" stroke="rgb(60, 60, 60)" stroke-width="1px" opacity="0.25"></line></g></g></g><g><g><line x1="0" y1="340.2" x2="1438" y2="340.2" fill="rgb(0, 0, 0)" stroke="rgb(153, 153, 153)" stroke-width="1.5px"></line></g></g><g><g><line x1="179.75" y1="0" x2="179.75" y2="378" fill="rgb(0, 0, 0)" stroke="rgb(153, 153, 153)" stroke-width="1.5px"></line></g></g><g><g><g><g><g><path style="fill: none;" stroke="rgb(255, 112, 67)" stroke-width="2px" d="M210.19965,-89.91033507731322L212.1769,18.860290884425865L214.08225000000002,51.50707726998644L216.02355,97.83522185969781L217.9289,149.2164368422889L219.61855,126.90142881205043L221.8115,135.83119794564803L223.4652,170.03830675154407L225.58624999999998,160.28628568016939L227.5635,-27.890262481563525L229.54074999999997,62.98280480854038L231.41015000000002,53.42781951138613L232.99195,10.90008553899031L235.07705,79.18250368164729L236.9105,130.7601607850424L238.708,81.8078708751674L240.82905000000002,-28.629546864463407L242.55464999999998,89.57551556925222L244.5319,113.90172446402755L246.58104999999998,155.51756234757963L248.4864,140.5114210023132L250.4277,80.91108684847683L252.2971,151.27041786068992L254.2384,175.19281612702113L256.32349999999997,181.66518497381222L258.3367,204.25373838011944L260.278,222.05180736571998L262.1474,84.64391305522798L263.873,129.28325481679929L265.7424,-26.452929854900106L267.64775000000003,93.24056096322096L269.4812,156.43378932951788L271.02705000000003,70.39852459691105L273.18405,129.5518508093325L274.9456,157.7147919426717L276.85095,150.47025506319292L278.57655,190.6844491507067L280.51785,129.83062148244514L282.53105,107.37356145948661L284.47235,158.95900876862527L286.16200000000003,192.2384158035695L288.35495000000003,183.10929489377588L290.15245,228.5419449212765L291.91400000000004,242.1034808923374L293.89125,224.64567427334597L295.7966,231.64597095428357L297.84575,169.5397317062522L299.64325,114.25814503018285L301.58455,69.05348280897277L303.4899,129.65317888635718L305.5031,184.1215814732213L307.19275,194.02579142825002L308.95430000000005,207.31359117910978L310.93155,236.07587663224766L312.80095,255.27896979863306L314.8501,185.43149275907788L316.9352,200.47620435731955L318.5889,136.25787599669303L320.7459,157.47133384100437L322.6153,180.8494783207884L324.44874999999996,216.851646738953L326.3541,191.94032500130334L328.33135,132.7096345588112L330.2367,191.31163825658223L332.21395,227.44768411140004L334.0474,242.1185715378544L335.95275,256.0176734126342L338.00190000000003,213.2589156196554L339.8713,245.91091136908767L341.8126,228.60091408238551L343.68199999999996,238.63153641191568L345.51545,236.0331269357648L347.4927,241.00607800686637L349.43399999999997,195.73211885097191L351.33934999999997,192.6245132947121L353.2447,218.41720690692387L355.07815,226.2289447078998L357.05539999999996,218.88994841396183L358.74505,227.89738797497375L360.90205000000003,239.00442267150655L362.5917,243.50135047728403L364.35325,254.5668317216312L366.36645,265.61995631412714L368.128,240.26906650517014L370.2131,197.92104151280896L372.04654999999997,207.49637230773078L373.98785,202.2241797288615L375.56964999999997,200.7459695053314L377.475,199.73962016059247L379.45225000000005,238.85116182239824L381.39355,249.24952805204376L382.97535,217.46162791826237L384.84475,226.65209563122934L386.53439999999995,174.23079832998957L388.43975,220.76041611974264L390.23724999999996,249.7469560920884L392.17855,267.88448657242594L393.94010000000003,262.81449412374576L395.77355,261.60652531903315L397.57105,249.2010055424054L399.22475000000003,247.28678780622957L401.0582,262.0544472374182L402.74785,273.3052447776592L404.79699999999997,219.90636900786137L406.3788,222.25887792422517L408.21225,243.7731702322611L410.08165,255.855820505312L411.73535,263.9738847354L413.7126,264.0362971317139L415.47415,213.9830245120148L417.2357,181.62075935738207L419.1051,219.0523689194734L420.79475,222.65801346207945L422.73605,218.73188101473622L424.4257,211.0132421018074L426.40295,246.06069929846467L427.8769,239.8570710733434L429.6025,230.55712274282575L431.3281,250.27706117552162L433.30535000000003,241.7332936759093L435.03094999999996,247.31137342544187L437.11605,254.13729956800813L438.80569999999994,247.49883099708006L440.63915000000003,261.5770572400871L442.3288,243.4514640126695L444.342,252.93204835856375L446.2833,256.8335907137657L448.0808,274.33668454028754L449.62665,255.71706531845086L451.63984999999997,258.9567553472671L453.50925,225.87737812114676L455.127,247.52574638314795L456.88854999999995,269.573378636466L458.6501,256.86578907193336L460.5195,257.33607816947455L462.35295,261.9359566334066L464.07854999999995,270.0399991627441L465.87605,285.2801028511468L467.81735,267.91719719180725L469.75865,282.60777546292104L471.55615000000006,277.7522569216821L473.1739,281.5599401204308L475.0433,262.83519547811267L477.09245,251.9248168583579L478.96185,255.67879935776395L481.0829,266.14438751921176L482.6647,282.5872079201646L484.57005000000004,239.40632468152683L486.43944999999997,261.36926913850687L488.38075000000003,274.86137649353253L490.39395,253.88988647601553L492.1555,273.9804016443583L494.09680000000003,265.2916307403143L495.78645,281.2080866207776L497.79965000000004,273.89052156448946L499.705,246.78800795460094L501.53845,249.53478051295485L503.2281,258.2741252384818L505.06155,244.65800938500385L507.07475000000005,229.90466365393053L508.9801,237.12895686612157L510.5619,243.8765102504827L512.5751,252.77914349193202L514.40855,240.03005592080845L516.13415,260.59186134250695L517.7878499999999,260.518235810469L519.72915,271.5193415587368L521.5626000000001,284.8738460651173L523.6477,254.72964448875985L525.4452,265.22742836741685L527.2427,276.8424170724635L529.14805,281.47384542477636L530.94555,291.31707369418444L532.74305,254.91489372808638L534.75625,267.9727758539253L536.5537499999999,284.4941791953167L538.4591,287.2578026855898L540.22065,270.69880019336415L542.09005,281.87884119754716L544.0313500000001,271.0729748779874L546.04455,267.7887517544234L547.8061,282.5551425881746L549.49575,280.31779970214143L551.473,259.11434579363686L553.1267,238.59188244504463L555.03205,258.89241180457316L556.97335,276.1838225986817L558.62705,268.2279244063054L560.42455,268.0456874834153L562.3299000000001,263.81613754312116L564.1993,276.0215161048169L566.10465,259.6582967837331L567.97405,235.60199180720312L569.6637,260.93630693720615L571.4971499999999,260.82963645557663L573.3306,269.2273927354819L575.23595,286.8019075969759L576.9975,277.5206167286577L578.97475,278.9663364479507L580.8081999999999,239.9831210237482L582.7495,258.3058373744332L584.6189,267.688204349282L586.30855,210.79399042081985L588.5015,233.72701049180122L590.11925,246.22033493597084L592.0965,259.39638690459L593.71425,276.4091813213066L595.58365,259.9225935892126L597.4171,279.80887371813424L599.5022,289.76714535841444L601.33565,255.63677005224883L603.0972,256.4785929772464L605.0744500000001,278.99821457837265L606.9078999999999,262.15741640552426L608.7054,258.90982205584373L610.53885,254.3071040225907L612.3723,270.0329460497429L614.0979,277.02851881538214L616.1111,275.6757191732787L617.80075,274.74208430619615L619.9937,271.31435506922946L621.89905,259.69876313914625L623.5168,257.77163369959453L625.49405,265.16611311618004L627.43535,230.19951740851113L629.2687999999999,256.926726081968L631.24605,270.3094629836086L633.1514000000001,283.6146206660273L635.0208,287.5850542803527L636.85425,289.203113202746L639.01125,297.7028111591907L640.66495,304.00497303932735L642.46245,304.00949845808645L644.4397,297.6911029541367L646.4529,296.66712909810985L648.2144499999999,301.87210851265934L650.08385,299.83131105395523L652.0611,300.2644956856511L653.46315,286.4424092191185L655.18875,285.9865660457447L656.7346,289.64104849211185L658.4961500000001,274.931182687949L660.29365,276.64428550211835L662.37875,249.71124876146465L664.4279,246.6209233188924L666.4051499999999,255.9700215407787L667.98695,261.93440150192845L669.56875,266.9449251518933L671.6898,282.40154980309535L673.6311,289.01569532744725L675.75215,289.82330057139774L677.83725,285.2595209533905L679.8864,266.61862368791907L682.00745,275.14389715021616L684.1285,275.17188986674404L686.2136,268.17704137167607L688.2268,272.34266627610486L690.27595,267.2244068180368L692.3969999999999,275.2750277131704L694.4821,281.9400873416607L696.5672,299.0812638648715L698.7242,264.77669885923666L700.70145,275.9527397168887L702.78655,279.0659811820514L704.9076,287.22444032167954L706.9927,271.5155112882588L709.11375,273.7750070047458L711.12695,279.438518526082L713.248,258.4721162735967L715.36905,276.87801029381444L717.45415,279.79173081455997L719.5751999999999,282.13618922316056L721.5884,278.03172699143306L723.7094500000001,275.9469152351011L725.86645,286.1901686125868L727.95155,270.9943925031348L730.0726000000001,209.45444634367965L732.12175,241.4865990943309L734.20685,259.9968147275804L736.36385,267.5333126949047L738.44895,280.6571706516608L740.6059499999999,281.7086727045813L742.69105,282.1544459925794L744.6683,268.37146817128087L746.78935,248.6936274843229L748.9104000000001,271.8440026242622L751.0314500000001,272.40127709383296L753.1525,272.37153391346055L755.20165,282.0800120345039L757.28675,278.1176917249729L759.4078000000001,290.650256687389L761.52885,293.99338118254315L763.6139499999999,272.2549819339464L765.6631,286.5098130282253L767.7482000000001,295.8692647431189L769.8692500000001,275.5512466248211L771.9903,284.46213038988924L774.0394499999999,294.21226762251865L776.12455,263.61045956800467L778.2096499999999,278.0823368608361L780.3307,295.2545717878285L782.4158,277.08297616560117L784.5009,289.3026183791093L786.5141000000001,299.02128866849137L788.6711,289.49860640965574L790.7562,294.4300143504302L792.8772499999999,305.58929844136003L794.9264,291.7152727617917L797.0474499999999,298.40352848941666L799.0966,304.9437822391068L801.14575,298.04778295871466L803.2668,274.07443139503505L805.31595,281.6392513147003L807.437,268.2823002821807L809.5220999999999,262.274669976032L811.6431499999999,265.96416488230005L813.72825,287.5331321186708L815.8133499999999,297.7406836960844L817.89845,304.428283505537L819.9835499999999,295.4418061738598L822.1046,295.5656561014287L824.1897,298.988752963378L826.2748,303.8035349504554L828.3598999999999,311.6255988694074L830.40905,289.38850471656576L832.5301,291.2001056795183L834.6152000000001,299.73387116818805L836.7003,277.4339062269281L838.8213499999999,275.54039603923263L840.9424,287.30376109781565L842.9556000000001,290.7213872856063L845.1126,266.60529100693236L847.1257999999999,287.41404076127395L849.24685,290.4089431763183L851.33195,266.1649021554286L853.3811000000001,270.0121106254038L855.4662,273.39622749847035L857.4794,263.1956474886051L859.5645,273.1885051837987L861.68555,280.6023831004755L863.7347,275.878833226255L865.8198,275.23146553033075L867.8689499999999,285.98548196103263L869.95405,298.55038652656134L872.11105,296.83251667104753L874.1242500000001,285.34921938706987L876.2452999999999,294.1002217595551L878.2585,301.1724840928479L880.3435999999999,306.9803245579817L882.32085,308.183783314861L884.4059500000001,310.66992292939847L886.4551000000001,311.9548726555063L888.4323499999999,303.15421748199185L890.51745,307.78751180448006L892.60255,280.58106695817634L894.6876500000001,288.9511594504519L896.70085,291.8504296383502L898.7859500000001,291.9315964011098L900.87105,297.12120319502026L902.9921,292.12102697280926L905.11315,276.74599238507676L907.12635,293.5276337292655L909.1036,284.15663898628134L911.1887,291.3731215652298L913.3097500000001,292.2288867256922L915.39485,303.48767619293227L917.5159,304.27580259747083L919.49315,306.45601156536804L921.5782499999999,293.2626629977468L923.66335,301.6575863071706L925.7484499999999,301.5707976155535L927.8695,278.3533702679309L929.84675,267.61456140386065L931.9318499999999,273.8351184803665L934.0528999999999,280.46963473161577L936.17395,281.03047226548506L938.25905,292.78191749739835L940.27225,302.60137241580003L942.3573500000001,304.26401147572943L944.4064999999999,313.3897097461149L946.5275499999999,291.82346146301774L948.61265,300.21067044166534L950.6258499999999,303.91032894747144L952.71095,299.6068240886729L954.832,293.04634886776216L956.9530500000001,301.14702298846726L959.03815,307.8188095087223L961.1232500000001,295.23507498946265L963.13645,301.12010318664596L965.2575,307.44270524488616L967.3426,266.3932409519358L969.4636499999999,286.57935761522674L971.5128,298.34319455719844L973.5979000000001,304.891911878269L975.683,301.51713461403915L977.80405,300.80361419036905L979.88915,296.4337150285537L981.9382999999999,301.7439815512237L984.0234,292.56188165491443L986.1084999999999,294.7403219216801L988.22955,293.40773151986224L990.31465,302.5538264109041L992.3638000000001,301.4646606399623L994.377,297.132821241558L996.4621,307.0835131407025L998.5472,300.33223164261835L1000.6682500000001,272.7315373717633L1002.7174,287.29652872853796L1004.8384500000001,300.3577276183565L1006.8876,296.52702824136014L1009.0086500000001,281.1242600599551L1011.1297000000001,275.33932713267944L1013.1788499999999,291.1650737137958L1015.2999,298.78654198595075L1017.385,274.69387857346646L1019.4701,287.7932473407919L1021.6271,290.502756724759L1023.7121999999999,298.9207060407126L1025.8692,295.8635291636303L1027.9183500000001,304.8518184288033L1030.0394000000001,301.7719448652082L1032.16045,304.86768652952986L1034.2814999999998,305.57769116167594L1036.40255,284.95361117544394L1038.48765,291.291186814443L1040.6087,294.90646385129435L1042.6938,301.3039732621678L1044.74295,309.5132785768252L1046.864,310.7420136823321L1048.98505,308.35569524461414L1051.07015,309.9329943783247L1053.1912,306.68590867413064L1055.2044,305.6017125126301L1057.2894999999999,292.38927924672237L1059.41055,299.81797156089226L1061.3878,286.20100475939324L1063.4729,277.4737369739545L1065.52205,294.96343670061424L1067.60715,306.415747213788L1069.6922499999998,300.5232484185261L1071.7413999999999,297.75009443304316L1073.79055,301.06578014189824L1075.8397,279.3258849513222L1077.96075,289.31457728217185L1080.0818,299.83971187320435L1082.13095,288.0109762349551L1084.21605,295.21569087230114L1086.30115,290.1869970525679L1088.38625,297.3667610582934L1090.5073,309.0877200694219L1092.55645,301.9381034410796L1094.64155,277.8183859030486L1096.6907,291.03241064221146L1098.81175,301.6167830168932L1100.8609,299.04485365120945L1102.946,284.6885253379844L1104.9592,281.798855419165L1106.9724,291.2029154051579L1109.0575,288.3633294093154L1111.17855,293.7656615774358L1113.2636499999999,299.7493336725548L1115.3128,307.25777447794763L1117.29005,309.53895130529935L1119.3392,313.57710017457566L1121.46025,307.1039432003794L1123.54535,307.21394487438783L1125.5945,307.766726984192L1127.6077,312.87788893378325L1129.65685,314.1810054459962L1131.7779,316.4768794124599L1133.82705,300.46566165836305L1135.9121499999999,299.21782068998607L1137.8894,299.5699844085633L1139.93855,307.73364012932535L1142.09555,307.7972022714958L1144.18065,308.198546196684L1146.26575,299.09724068115037L1148.243,305.3601841659539L1150.3281000000002,313.42586432762107L1152.4491500000001,314.271203362448L1154.53425,311.65499725133355L1156.61935,315.57317552188147L1158.63255,316.09267851721705L1160.7536,307.7949001569239L1162.8387,309.93753418452667L1164.95975,305.5670431877799L1167.04485,296.49114408526583L1169.05805,298.30990921696286L1171.21505,309.397300658615L1173.2641999999998,311.80594552665445L1175.38525,317.3234610429227L1177.5063,313.89353251164073L1179.5914,299.69118904176304L1181.6765,307.04646429510683L1183.7616,304.00778473253115L1185.88265,301.3255460478965L1188.0037,307.0021578862133L1190.0169,312.6797077193178L1192.0660500000001,311.436818058152L1194.1871,301.6835962044353L1196.2721999999999,305.33560349566665L1198.39325,308.12169762297225L1200.4064500000002,309.4207853094861L1202.49155,307.17031681812557L1204.6126,313.4065744367346L1206.73365,309.22909706783923L1208.81875,305.7136712387361L1210.90385,310.70544491753924L1212.953,311.9336551999804L1215.0381,316.1626203644727L1217.1951000000001,312.46586510202013L1219.2802,299.2667697159095L1221.32935,298.87523584471006L1223.2347,305.8710495871655L1225.4636,306.9381677670688L1227.58465,312.47071439212027L1229.66975,312.98656606367507L1231.6470000000002,311.6361862509923L1233.7321,312.6078619953678L1235.8172000000002,304.54831946949275L1237.9023,304.4061452410228L1239.9874,305.7424047092561L1242.03655,311.04442767232445L1244.12165,301.79660264986626L1246.1708,307.78409712545795L1248.2199500000002,308.84330459435415L1250.3410000000001,307.5241273465731L1252.3542,311.95276347416507L1254.4393,303.40818514923967L1256.3087,296.0005136925025L1258.25,300.80922976899404L1260.37105,303.27686260532295L1262.45615,304.8391113471446L1264.54125,292.96457273193937L1266.69825,303.6091215177104L1268.6755,303.7419177021816L1270.7606,301.5909028250715L1272.8097500000001,301.8295511441672L1274.89485,303.53104349179534L1277.0518499999998,308.84156238438766L1279.1009999999999,304.6507530015831L1281.2220499999999,291.22969567073136L1283.1993,287.3606644099519L1285.3563000000001,289.18839957151204L1287.4773500000001,304.0482301984482L1289.56245,291.2514633538874L1291.6475500000001,297.71633719697905L1293.6967,305.33656589296646L1295.81775,309.9268578099143L1297.9388,311.7164752266962L1299.98795,315.3569040544128L1302.109,311.99348514540765L1304.1941000000002,302.4594262871967L1306.3510999999999,294.1721593909756L1308.47215,299.99003724624487L1310.55725,306.0741125966297L1312.64235,305.07896703214567L1314.7274499999999,303.29377730656336L1316.81255,300.0618831978361L1319.0055,298.0193455634189L1321.12655,295.2534553571148L1323.1757,289.5298272039654L1325.2608,287.19205192900665L1327.38185,291.98306751237493L1329.5029,301.61052094272486L1331.62395,306.44613952441046L1333.745,303.630277954358L1335.8301000000001,304.2327831809629L1337.9511499999999,302.8759047704881L1340.0003,310.1452736093369L1342.12135,309.06960716478625L1344.2423999999999,293.70880431492685L1346.21965,295.9811627230618L1348.30475,295.2106412435516L1350.4258,301.5049977020886L1352.5109,301.0073011262099L1354.4522,291.4924312187958L1356.57325,301.10428857557343L1358.6224,307.6092906589947L1360.7794000000001,303.78977847550163L1362.82855,308.7197416104606L1364.9855499999999,307.2658346508581L1366.99875,307.6078423675679L1369.08385,292.4523308781852L1371.24085,289.9731432088059L1373.32595,295.98406991915954L1375.4470000000001,304.78781471390755L1377.49615,300.0140556844427L1379.6172000000001,287.49830162121975L1381.5225500000001,301.0019762047775L1383.356,308.07093459791827L1385.5489499999999,294.5050955189877L1387.3824,299.01436997375566L1389.43155,307.98314468992754L1391.4088,309.99305615042454L1393.45795,310.41183751159787L1395.47115,309.9989822902315L1397.62815,312.9827556529959L1399.64135,304.919524031837" fill="none"></path></g></g></g></g><g opacity="0.2"><g><g><g><path style="fill: none;" stroke="rgb(255, 112, 67)" stroke-width="2px" d="M197.25764999999998,-1194.1792855739595L198.8035,84.56482250690459L200.63695,154.82357237935062L202.68609999999998,-128.32907404303563L204.37575,241.66556463092564L206.31705,-162.25645791292197L208.4381,95.89476306438445L210.19965,-192.05627213716514L212.1769,182.0102645874023L214.08225000000002,100.47618259191512L216.02355,167.3265240758657L217.9289,226.28765065670012L219.61855,93.42907537221907L221.8115,149.22581356465813L223.4652,221.34888243377208L225.58624999999998,145.65826904475685L227.5635,-310.1549113869668L229.54074999999997,199.29235551953315L231.41015000000002,39.09534473419188L232.99195,-52.891506958007824L235.07705,181.60612274408336L236.9105,208.12664274573325L238.708,8.379438114166248L240.82905000000002,-194.28567062616355L242.55464999999998,266.8831073909998L244.5319,150.39103758037086L246.58104999999998,217.94131894111632L248.4864,118.0022090345621L250.4277,-8.489414262771618L252.2971,256.80941429436206L254.2384,211.07641350924968L256.32349999999997,191.37373824119567L258.3367,238.13656848371028L260.278,248.74891084134578L262.1474,-121.4679283976555L263.873,196.24226745665072L265.7424,-260.0572068572045L267.64775000000003,272.780797187984L269.4812,251.22363187819718L271.02705000000003,-58.6543725013733L273.18405,218.28184012770652L274.9456,199.95920364260672L276.85095,139.60344974398615L278.57655,251.0057402819395L280.51785,38.54987998008727L282.53105,73.68797142505645L284.47235,236.33717973232268L286.16200000000003,242.15752635598182L288.35495000000003,169.41561352908607L290.15245,296.69091996252536L291.91400000000004,262.44578484892844L293.89125,198.4589643448591L295.7966,242.14641597568988L297.84575,76.38037283420562L299.64325,31.335765016078938L301.58455,1.2464894771575814L303.4899,220.55272300243377L305.5031,265.8241853535175L307.19275,208.8821063607931L308.95430000000005,227.2452908053994L310.93155,279.2193048119545L312.80095,284.0836095482111L314.8501,80.66027719974517L316.9352,223.04327175468205L318.5889,39.930383455753315L320.7459,189.29152060747145L322.6153,215.9166950404644L324.44874999999996,270.85489936619996L326.3541,154.57334239482876L328.33135,43.863598895072926L330.2367,279.21464380323886L332.21395,281.6517528936267L334.0474,264.124902677536L335.95275,276.8663262248039L338.00190000000003,149.12077893018719L339.8713,294.88890499323605L341.8126,202.6359181523323L343.68199999999996,253.6774699062109L345.51545,232.13551272153853L347.4927,248.4655046135187L349.43399999999997,127.8211801171303L351.33934999999997,187.96310496032234L353.2447,257.10624732524155L355.07815,237.94655140936374L357.05539999999996,207.88145397305487L358.74505,241.4085473164916L360.90205000000003,255.66497471630572L362.5917,250.24674218595027L364.35325,271.1650535881519L366.36645,282.1996432028711L368.128,202.24273179173468L370.2131,134.3990040242672L372.04654999999997,221.85936850011348L373.98785,194.31589086055754L375.56964999999997,198.5286541700363L377.475,198.2300961434841L379.45225000000005,297.51847431510686L381.39355,264.847077396512L382.97535,169.7797777175903L384.84475,240.43779720067977L386.53439999999995,95.59885237812995L388.43975,290.5548428043723L390.23724999999996,293.22676605060695L392.17855,295.09078229293226L393.94010000000003,255.20950545072554L395.77355,259.7945721119642L397.57105,230.5927258774638L399.22475000000003,244.4154612019658L401.0582,284.20593638420104L402.74785,290.1814410880208L404.79699999999997,139.8080553531647L406.3788,225.7876412987709L408.21225,276.04460869431495L410.08165,273.97979591488837L411.73535,276.15098108053206L413.7126,264.12991572618483L415.47415,138.90311558246614L417.2357,133.07736162543299L419.1051,275.1997832626104L420.79475,228.06648027598857L422.73605,212.84268234372138L424.4257,199.43528373241423L426.40295,298.63188509345053L427.8769,230.5516287356615L429.6025,216.60720024704932L431.3281,279.8569688245654L433.30535000000003,228.91764242649077L435.03094999999996,255.67849304974078L437.11605,264.3761887818575L438.80569999999994,237.54112814068793L440.63915000000003,282.69439660459756L442.3288,216.2630741715431L444.342,267.15292487740516L446.2833,262.68590424656867L448.0808,300.5913252800703L449.62665,227.78763648569583L451.63984999999997,263.8162903904915L453.50925,176.25831228196617L455.127,279.99829877614974L456.88854999999995,302.644827016443L458.6501,237.80440472513436L460.5195,258.04151181578635L462.35295,268.8357743293047L464.07854999999995,282.1960629567504L465.87605,308.1402583837509L467.81735,241.87283870279788L469.75865,304.6436428695917L471.55615000000006,270.4689791098237L473.1739,287.2714649185538L475.0433,234.74807851463555L477.09245,235.5592489287257L478.96185,261.309773106873L481.0829,281.8427697613835L482.6647,307.2514385215938L484.57005000000004,174.6349998235702L486.43944999999997,294.313685823977L488.38075000000003,295.09953752607106L490.39395,222.43265144973992L492.1555,304.1161743968725L494.09680000000003,252.25847438424825L495.78645,305.0827704414725L497.79965000000004,262.9141739800572L499.705,206.1342375397682L501.53845,253.6549393504858L503.2281,271.3831423267722L505.06155,224.23383560478686L507.07475000000005,207.77464505732058L508.9801,247.96539668440818L510.5619,253.99784032702445L512.5751,266.13309335410594L514.40855,220.90642456412314L516.13415,291.43456947505473L517.7878499999999,260.40779751241206L519.72915,288.0210001811385L521.5626000000001,304.90560282468795L523.6477,209.5133421242237L525.4452,280.9741041854024L527.2427,294.2649001300335L529.14805,288.42098795324563L530.94555,306.08191609829663L532.74305,200.31162377893924L534.75625,287.55959904268383L536.5537499999999,309.27628420740365L538.4591,291.4032379209995L540.22065,245.86029645502566L542.09005,298.64890270382165L544.0313500000001,254.86417539864777L546.04455,262.8624170690775L547.8061,304.7047288388014L549.49575,276.9617853730917L551.473,227.30916493088006L553.1267,207.80818742215632L555.03205,289.34320584386586L556.97335,302.1209387898445L558.62705,256.2940771177411L560.42455,267.7723320990801L562.3299000000001,257.4718126326799L564.1993,294.3295839473605L566.10465,235.11346780210732L567.97405,199.51753434240817L569.6637,298.9377796322107L571.4971499999999,260.66963073313235L573.3306,281.8240271553397L575.23595,313.163679889217L576.9975,263.59868042618035L578.97475,281.13491602689027L580.8081999999999,181.50829788744446L582.7495,285.7899119004607L584.6189,281.76175481155514L586.30855,125.45266952812673L588.5015,268.12654059827327L590.11925,264.9603216022253L592.0965,279.16046485751866L593.71425,301.92837294638156L595.58365,235.1927119910717L597.4171,309.63829391151666L599.5022,304.70455281883477L601.33565,204.4412070930004L603.0972,257.74132736474274L605.0744500000001,312.7776469800621L606.9078999999999,236.89621914625167L608.7054,254.03843053132294L610.53885,247.40302697271107L612.3723,293.62170909047126L614.0979,287.52187796384095L616.1111,273.6465197101235L617.80075,273.3416320055723L619.9937,266.17276121377944L621.89905,242.2753752440214L623.5168,254.88093954026698L625.49405,276.25783224105834L627.43535,177.7496238470077L629.2687999999999,297.0175390921533L631.24605,290.3835683360696L633.1514000000001,303.5723571896553L635.0208,293.54070470184087L636.85425,291.6302015863359L639.01125,310.45235809385775L640.66495,313.45821585953234L642.46245,304.016286586225L644.4397,288.21350969821214L646.4529,295.1311683140695L648.2144499999999,309.67957763448356L650.08385,296.7701148658991L652.0611,300.9142726331949L653.46315,265.7092795193195L655.18875,285.3028012856841L656.7346,295.12277216166257L658.4961500000001,252.8663839817047L660.29365,279.21393972337245L662.37875,209.31169365048407L664.4279,241.98543515503405L666.4051499999999,269.9936688736081L667.98695,270.8809714436531L669.56875,274.4607106268406L671.6898,305.5864867798984L673.6311,298.93691361397504L675.75215,291.03470843732356L677.83725,278.4138515263796L679.8864,238.65727778971194L682.00745,287.9318073436618L684.1285,275.21387894153594L686.2136,257.6847686290741L688.2268,278.5911036327481L690.27595,259.5470176309347L692.3969999999999,287.35095905587076L694.4821,291.93767678439616L696.5672,324.79302864968776L698.7242,213.3198513507843L700.70145,292.7168010033667L702.78655,283.73584337979554L704.9076,299.4621290311217L706.9927,247.9521177381277L709.11375,277.16425057947635L711.12695,287.9337858080864L713.248,227.02251289486884L715.36905,304.486851324141L717.45415,284.1623115956783L719.5751999999999,285.65287683606147L721.5884,271.87503364384173L723.7094500000001,272.8196976006031L725.86645,301.55504867881535L727.95155,248.20072833895682L730.0726000000001,117.14452710449694L732.12175,289.5348282203078L734.20685,287.76213817745446L736.36385,278.8380596458912L738.44895,300.3429575867951L740.6059499999999,283.285925783962L742.69105,282.8231059245765L744.6683,247.69700143933295L746.78935,219.17686645388602L748.9104000000001,306.56956533417105L751.0314500000001,273.23718879818915L753.1525,272.3269191429019L755.20165,296.642729216069L757.28675,272.1742112606764L759.4078000000001,309.44910413101314L761.52885,299.00806792527436L763.6139499999999,239.64738306105136L765.6631,307.89205966964363L767.7482000000001,309.90844231545924L769.8692500000001,245.07421944737433L771.9903,297.82845603749155L774.0394499999999,308.8374734714627L776.12455,217.7077474862337L778.2096499999999,299.79015280008315L780.3307,321.0129241783172L782.4158,249.82558273226022L784.5009,307.6320816993713L786.5141000000001,313.59929410256444L788.6711,275.21458302140235L790.7562,301.8271262615919L792.8772499999999,322.3282245777547L794.9264,270.90423424243926L797.0474499999999,308.43591208085417L799.0966,314.75416286364197L801.14575,287.70378403812646L803.2668,238.1144040495157L805.31595,292.9864811941981L807.437,248.2468737334013L809.5220999999999,253.26322451680898L811.6431499999999,271.49840724170207L813.72825,319.8865829732269L815.8133499999999,313.0520110622048L817.89845,314.45968321971594L819.9835499999999,281.9620901763439L822.1046,295.7514309927821L824.1897,304.12339825630187L826.2748,311.0257079310715L828.3598999999999,323.3586947478354L830.40905,256.03286348730325L832.5301,293.91750712394713L834.6152000000001,312.53451940119265L836.7003,243.9839588150382L838.8213499999999,272.70013075768946L840.9424,304.94880868569015L842.9556000000001,295.8478265672922L845.1126,230.43114658892154L847.1257999999999,318.62716539278625L849.24685,294.90129679888486L851.33195,229.798840624094L853.3811000000001,275.7829233303666L855.4662,278.47240280807017L857.4794,247.89477747380732L859.5645,288.1777917265892L861.68555,291.72319997549056L863.7347,268.79350841492413L865.8198,274.26041398644446L867.8689499999999,302.11650660708546L869.95405,317.3977433748543L872.11105,294.25571188777684L874.1242500000001,268.1242734611034L876.2452999999999,307.22672531828283L878.2585,311.78087759278714L880.3435999999999,315.69208525568246L882.32085,309.9889714501798L884.4059500000001,314.39913235120474L886.4551000000001,313.882297244668L888.4323499999999,289.9532347217202L890.51745,314.7374532882124L892.60255,239.7713996887207L894.6876500000001,301.5062981888652L896.70085,296.1993349201977L898.7859500000001,292.0533465452492L900.87105,304.90561338588594L902.9921,284.62076263949274L905.11315,253.68344050347804L907.12635,318.7000957455486L909.1036,270.1001468718052L911.1887,302.1978454336524L913.3097500000001,293.51253446638583L915.39485,320.3758603937924L917.5159,305.4579922042787L919.49315,309.7263250172138L921.5782499999999,273.4726401463151L923.66335,314.24997127130626L925.7484499999999,301.44061457812785L927.8695,243.52722924649714L929.84675,251.50634810775517L931.9318499999999,283.1659540951252L934.0528999999999,290.42140910848974L936.17395,281.87172856628894L938.25905,310.40908534526824L940.27225,317.33055479340254L942.3573500000001,306.7579700656235L944.4064999999999,327.0782571516931L946.5275499999999,259.47408903837203L948.61265,312.7914839096367L950.6258499999999,309.45981670618056L952.71095,293.1515668004751L954.832,283.205636036396L956.9530500000001,313.2980341695249L959.03815,317.8264892891049L961.1232500000001,276.3594732105732L963.13645,309.9476454824209L965.2575,316.92660833224653L967.3426,204.8190445125103L969.4636499999999,316.8585326101631L971.5128,315.98894997015594L973.5979000000001,314.71498785987495L975.683,296.45496871769427L977.80405,299.7333335548639L979.88915,289.8788662858307L981.9382999999999,309.70938133522867L984.0234,278.78873181045054L986.1084999999999,298.0079823218286L988.22955,291.40884591713547L990.31465,316.2729687474668L992.3638000000001,299.8309119835496L994.377,290.63506214395164L996.4621,322.0095509894192L998.5472,290.20530939549207L1000.6682500000001,231.3304959654808L1002.7174,309.1440157637L1004.8384500000001,319.9495259530842L1006.8876,290.78097917586564L1009.0086500000001,258.0201077878475L1011.1297000000001,266.66192774176596L1013.1788499999999,314.9036935854703L1015.2999,310.21874439418315L1017.385,238.55488345474004L1019.4701,307.44230049178003L1021.6271,294.5670208007097L1023.7121999999999,311.54763001464306L1025.8692,291.2777638480067L1027.9183500000001,318.334252326563L1030.0394000000001,297.15213451981543L1032.16045,309.5112990260124L1034.2814999999998,306.642698109895L1036.40255,254.01749119609593L1038.48765,300.7975502729416L1040.6087,300.3293794065714L1042.6938,310.90023737847804L1044.74295,321.8272365488112L1046.864,312.5851163405925L1048.98505,304.77621758803724L1051.07015,312.29894307889043L1053.1912,301.81528011783956L1055.2044,303.9754182703793L1057.2894999999999,272.5706293478608L1059.41055,310.96101003214716L1061.3878,265.77555455714463L1063.4729,264.3828352957964L1065.52205,321.19798629060386L1067.60715,323.59421298354863L1069.6922499999998,291.68450022563337L1071.7413999999999,293.5903634548187L1073.79055,306.0393087051809L1075.8397,246.7160421654582L1077.96075,304.2976157784462L1080.0818,315.6274137597531L1082.13095,270.2678727775812L1084.21605,306.02276282832025L1086.30115,282.643956322968L1088.38625,308.13640706688165L1090.5073,326.66915858611463L1092.55645,291.21367849856614L1094.64155,241.6388095960021L1096.6907,310.8534477509558L1098.81175,317.4933415789157L1100.8609,295.18695960268377L1102.946,263.1540328681469L1104.9592,277.464350540936L1106.9724,305.30900538414716L1109.0575,284.10395041555165L1111.17855,301.86915982961654L1113.2636499999999,308.7248418152332L1115.3128,318.52043568603693L1117.29005,312.96071654632686L1119.3392,319.6343234784901L1121.46025,297.39420773908495L1123.54535,307.3789473854005L1125.5945,308.59590014889835L1127.6077,320.54463185817L1129.65685,316.13568021431564L1131.7779,319.9206903621554L1133.82705,276.44883502721785L1135.9121499999999,297.34605923742055L1137.8894,300.0982299864292L1139.93855,319.9791237104684L1142.09555,307.89254548475145L1144.18065,308.8005620844662L1146.26575,285.44528240785L1148.243,314.75459939315914L1150.3281000000002,325.52438457012175L1152.4491500000001,315.53921191468834L1154.53425,307.73068808466195L1156.61935,321.45044292770325L1158.63255,316.8719330102205L1160.7536,295.34823261648415L1162.8387,313.1514852259308L1164.95975,299.01130669265984L1167.04485,282.8772954314947L1169.05805,301.03805691450833L1171.21505,326.0283878210932L1173.2641999999998,315.41891282871364L1175.38525,325.59973431732504L1177.5063,308.74863971471785L1179.5914,278.3876738369465L1181.6765,318.0793771751225L1183.7616,299.4497653886676L1185.88265,297.3021880209446L1188.0037,315.51707564368843L1190.0169,321.1960324689746L1192.0660500000001,309.5724835664034L1194.1871,287.05376342386006L1196.2721999999999,310.8136144325137L1198.39325,312.30083881393074L1200.4064500000002,311.36941683925687L1202.49155,303.7946140810847L1204.6126,322.7609608646482L1206.73365,302.9628810144961L1208.81875,300.4405324950814L1210.90385,318.1931054357439L1212.953,313.7759706236422L1215.0381,322.50606811121105L1217.1951000000001,306.92073220834135L1219.2802,279.46812663674353L1221.32935,298.2879350379109L1223.2347,316.36477020084857L1225.4636,308.5388450369239L1227.58465,320.7695343296975L1229.66975,313.76034357100724L1231.6470000000002,309.6106165319681L1233.7321,314.0653756119311L1235.8172000000002,292.45900568068026L1237.9023,304.1928838983178L1239.9874,307.74679391160606L1242.03655,318.9974621169269L1244.12165,287.924865116179L1246.1708,316.7653388388455L1248.2199500000002,310.4321157976985L1250.3410000000001,305.5453614749014L1252.3542,318.5957176655531L1254.4393,290.59131766185163L1256.3087,284.8890065073967L1258.25,308.02230388373135L1260.37105,306.9783118598163L1262.45615,307.182484459877L1264.54125,275.1527648091316L1266.69825,319.5759446963668L1268.6755,303.9411119788885L1270.7606,298.3643805094063L1272.8097500000001,302.18752362281083L1274.89485,306.08328201323746L1277.0518499999998,316.8073407232761L1279.1009999999999,298.36453892737626L1281.2220499999999,271.0981096744537L1283.1993,281.5571175187826L1285.3563000000001,291.9300023138523L1287.4773500000001,326.3379761388525L1289.56245,272.05631308704614L1291.6475500000001,307.4136479616165L1293.6967,316.7669089369476L1295.81775,316.812295685336L1297.9388,314.4009013518691L1299.98795,320.8175472959876L1302.109,306.9483567818999L1304.1941000000002,288.1583379998803L1306.3510999999999,281.74125904664396L1308.47215,308.7168540291488L1310.55725,315.2002256222069L1312.64235,303.58624868541955L1314.7274499999999,300.61599271818994L1316.81255,295.2140420347452L1319.0055,294.95553911179303L1321.12655,291.10462004765867L1323.1757,280.94438497424125L1325.2608,283.68538901656865L1327.38185,299.1695908874273L1329.5029,316.0517010882497L1331.62395,313.6995673969388L1333.745,299.4064855992794L1335.8301000000001,305.1365410208702L1337.9511499999999,300.84058715477585L1340.0003,321.0493268676102L1342.12135,307.4561074979603L1344.2423999999999,270.66760004013776L1346.21965,299.3897003352642L1348.30475,294.05485902428626L1350.4258,310.9465323898941L1352.5109,300.2607562623918L1354.4522,277.2201263576746L1356.57325,315.52207461073993L1358.6224,317.3667937841266L1360.7794000000001,298.06051020026206L1362.82855,316.114686312899L1364.9855499999999,305.0849742114544L1366.99875,308.12085394263266L1369.08385,269.71906364411115L1371.24085,286.25436170473694L1373.32595,305.00045998468994L1375.4470000000001,317.99343190602957L1377.49615,292.8534171402454L1379.6172000000001,268.7246705263853L1381.5225500000001,321.2574880801141L1383.356,318.67437218762933L1385.5489499999999,274.15633690059184L1387.3824,305.7782816559076L1389.43155,321.4363067641854L1391.4088,313.00792334116994L1393.45795,311.04000955335795L1395.47115,309.37969945818185L1397.62815,317.45841569714247L1399.64135,292.8246766000986" fill="none"></path></g></g></g></g></g><g><g opacity="0.0245975"><span fill="rgb(0, 0, 0)" stroke="none" stroke-width="1px">Alt + Scroll to Zoom</span></g></g></g><g transform="translate(60, 378)" clip-path="url(#clip_1)"><clipPath id="clip_1"><rect width="1438" height="22"></rect></clipPath><g><g><line x1="0" y1="0" x2="0" y2="5" style="visibility: inherit;" fill="rgb(0, 0, 0)" stroke="rgb(204, 204, 204)" stroke-width="1px"></line><line x1="179.75" y1="0" x2="179.75" y2="5" style="visibility: inherit;" fill="rgb(0, 0, 0)" stroke="rgb(204, 204, 204)" stroke-width="1px"></line><line x1="359.5" y1="0" x2="359.5" y2="5" style="visibility: inherit;" fill="rgb(0, 0, 0)" stroke="rgb(204, 204, 204)" stroke-width="1px"></line><line x1="539.25" y1="0" x2="539.25" y2="5" style="visibility: inherit;" fill="rgb(0, 0, 0)" stroke="rgb(204, 204, 204)" stroke-width="1px"></line><line x1="719" y1="0" x2="719" y2="5" style="visibility: inherit;" fill="rgb(0, 0, 0)" stroke="rgb(204, 204, 204)" stroke-width="1px"></line><line x1="898.75" y1="0" x2="898.75" y2="5" style="visibility: inherit;" fill="rgb(0, 0, 0)" stroke="rgb(204, 204, 204)" stroke-width="1px"></line><line x1="1078.5" y1="0" x2="1078.5" y2="5" style="visibility: inherit;" fill="rgb(0, 0, 0)" stroke="rgb(204, 204, 204)" stroke-width="1px"></line><line x1="1258.25" y1="0" x2="1258.25" y2="5" style="visibility: inherit;" fill="rgb(0, 0, 0)" stroke="rgb(204, 204, 204)" stroke-width="1px"></line><line x1="1438" y1="0" x2="1438" y2="5" style="visibility: inherit;" fill="rgb(0, 0, 0)" stroke="rgb(204, 204, 204)" stroke-width="1px"></line></g><g transform="translate(0, 8)"><text x="0" y="0" dx="0em" dy="0.95em" style="text-anchor: middle; visibility: hidden; font-family: &quot;Helvetica Neue&quot;, sans-serif; font-size: 12px; font-weight: 200;" fill="rgb(50, 49, 63)" stroke="none" stroke-width="1px">-5k</text><text x="179.75" y="0" dx="0em" dy="0.95em" style="text-anchor: middle; visibility: inherit; font-family: &quot;Helvetica Neue&quot;, sans-serif; font-size: 12px; font-weight: 200;" fill="rgb(50, 49, 63)" stroke="none" stroke-width="1px">0</text><text x="359.5" y="0" dx="0em" dy="0.95em" style="text-anchor: middle; visibility: inherit; font-family: &quot;Helvetica Neue&quot;, sans-serif; font-size: 12px; font-weight: 200;" fill="rgb(50, 49, 63)" stroke="none" stroke-width="1px">5k</text><text x="539.25" y="0" dx="0em" dy="0.95em" style="text-anchor: middle; visibility: inherit; font-family: &quot;Helvetica Neue&quot;, sans-serif; font-size: 12px; font-weight: 200;" fill="rgb(50, 49, 63)" stroke="none" stroke-width="1px">10k</text><text x="719" y="0" dx="0em" dy="0.95em" style="text-anchor: middle; visibility: inherit; font-family: &quot;Helvetica Neue&quot;, sans-serif; font-size: 12px; font-weight: 200;" fill="rgb(50, 49, 63)" stroke="none" stroke-width="1px">15k</text><text x="898.75" y="0" dx="0em" dy="0.95em" style="text-anchor: middle; visibility: inherit; font-family: &quot;Helvetica Neue&quot;, sans-serif; font-size: 12px; font-weight: 200;" fill="rgb(50, 49, 63)" stroke="none" stroke-width="1px">20k</text><text x="1078.5" y="0" dx="0em" dy="0.95em" style="text-anchor: middle; visibility: inherit; font-family: &quot;Helvetica Neue&quot;, sans-serif; font-size: 12px; font-weight: 200;" fill="rgb(50, 49, 63)" stroke="none" stroke-width="1px">25k</text><text x="1258.25" y="0" dx="0em" dy="0.95em" style="text-anchor: middle; visibility: inherit; font-family: &quot;Helvetica Neue&quot;, sans-serif; font-size: 12px; font-weight: 200;" fill="rgb(50, 49, 63)" stroke="none" stroke-width="1px">30k</text><text x="1438" y="0" dx="0em" dy="0.95em" style="text-anchor: middle; visibility: hidden; font-family: &quot;Helvetica Neue&quot;, sans-serif; font-size: 12px; font-weight: 200;" fill="rgb(50, 49, 63)" stroke="none" stroke-width="1px">35k</text></g><line x1="0" y1="0" x2="1438" y2="0" fill="rgb(0, 0, 0)" stroke="rgb(204, 204, 204)" stroke-width="1px"></line></g></g></g></g></svg>